<svg xmlns="http://www.w3.org/2000/svg" width="13.6" height="13.2" viewBox="0 0 13.6 13.2"><defs><style>.a{fill:#ff3e3e;}.b{fill:#fff;}</style></defs><title>history-x</title><rect class="a" width="13.6" height="13.24" rx="6"/><path class="b" d="M10.8,8.6,9.1,6.8a.3.3,0,0,1,0-.4l1.7-1.7a.3.3,0,0,0,0-.4L9.1,2.6a.3.3,0,0,0-.4,0L7,4.3a.3.3,0,0,1-.4,0L4.8,2.6a.2.2,0,0,0-.3,0L2.7,4.3a.3.3,0,0,0,0,.4L4.5,6.4a.3.3,0,0,1,0,.4L2.7,8.6a.2.2,0,0,0,0,.3l1.8,1.8a.2.2,0,0,0,.3,0L6.6,8.9H7l1.7,1.8a.3.3,0,0,0,.4,0l1.7-1.8A.2.2,0,0,0,10.8,8.6Z"/></svg>