<svg xmlns="http://www.w3.org/2000/svg" viewBox="0 0 12.6 12.6"><defs><style>.a{fill:#cacae0;}.b{fill:#8181b5;stroke:#fff;stroke-miterlimit:10;stroke-width:0.79px;}.c{fill:#fff;}</style></defs><title>Asset 21</title><circle class="a" cx="6.3" cy="6.3" r="6.3"/><circle class="b" cx="6.3" cy="6.3" r="4.9"/><path class="c" d="M6.6,3.4,7.2,5a.2.2,0,0,0,.2.2H9.2c.2,0,.3.3.1.5l-1.4,1a.4.4,0,0,0-.1.3l.6,1.7c.1.2-.2.4-.4.3L6.6,8H6.2L4.8,9c-.2.1-.5-.1-.4-.3L5,7V6.7l-1.5-1a.3.3,0,0,1,.2-.5H5.3c.2,0,.3-.1.3-.2l.5-1.6C6.2,3.1,6.6,3.1,6.6,3.4Z"/></svg>