<svg version="1.1" xmlns="http://www.w3.org/2000/svg" xmlns:xlink="http://www.w3.org/1999/xlink" x="0px" y="0px" width="30px" height="30px" viewBox="0 0 16.2 16.2" style="enable-background:new 0 0 16.2 16.2;" xml:space="preserve">
<style type="text/css">
	.st20{fill:#E0700A;}
	.st21{fill:#F79A3F;}
	.st22{fill:#FFFFFF;}
</style>
<defs>
</defs>
<g>
<circle class="st20" cx="8.1" cy="8.1" r="8.1"></circle>
<circle class="st21" cx="8.1" cy="8.1" r="6.9"></circle>
</g>
<g>
<path class="st22" d="M7.6,12.1c-1-0.1-2.1-0.4-2.9-0.9l0.8-1.5c0.7,0.4,1.4,0.7,2.1,0.7V8.8l-1-0.2c-1.2-0.3-1.8-1-1.8-2.2
		c0-1.5,1-2.4,2.8-2.5v-1h0.9v1c1,0.1,1.9,0.4,2.6,0.9l-0.8,1.5C9.7,5.9,9.1,5.6,8.4,5.5v1.6l0.9,0.2c1.3,0.3,1.9,1,1.9,2.1
		c0,1.5-1.1,2.5-2.9,2.6v1.2H7.6V12.1z M7.6,7V5.5c-0.6,0-1,0.3-1,0.7c0,0.4,0.2,0.6,0.8,0.7L7.6,7z M8.4,9v1.5c0.7-0.1,1-0.3,1-0.7
		c0-0.4-0.2-0.5-0.9-0.7L8.4,9z"></path>
</g>
</svg>
