<svg xmlns="http://www.w3.org/2000/svg" width="12.6" height="12.6" viewBox="0 0 12.6 12.6"><defs><style>.a{fill:#cacae0;}.b{fill:#8181b5;stroke:#fff;stroke-miterlimit:10;stroke-width:0.79px;}.c{fill:#fff;}</style></defs><title>ico-money</title><circle class="a" cx="6.3" cy="6.3" r="6.3"/><circle class="b" cx="6.3" cy="6.3" r="4.9"/><path class="c" d="M5.4,8.9h0a.3.3,0,0,1-.1-.2V8.5l-.5-.4a2.8,2.8,0,0,1-.1-.9h0l.7.2h.8L5.9,7a2.9,2.9,0,0,1-.8-.4c-.2-.2-.4-.4-.4-.6a.6.6,0,0,1-.1-.4,2,2,0,0,1,.2-.9l.4-.4V3.7a.1.1,0,0,1,.1-.1h.5a.4.4,0,0,1,.1.3v.2h.5V3.7H7V4a.3.3,0,0,1,.1.2h.6v.5h0v.2H6.4l.7.3.6.5a.9.9,0,0,1,.3.7,2.4,2.4,0,0,1-.2.8l-.5.4V9H6.7V8.5H6v.4H5.4Z"/></svg>