<svg xmlns="http://www.w3.org/2000/svg" viewBox="0 0 201.9 181.4"><defs><style>.a{fill:#a11ea8;}.b,.g,.h{fill:none;}.b,.c,.e,.g,.h{stroke:#561e70;}.b,.c{stroke-linecap:round;stroke-linejoin:round;}.b{stroke-width:15.9px;}.c,.e,.f{fill:#561e70;}.c,.g{stroke-width:2.38px;}.d{fill:#fff;}.e,.g,.h{stroke-miterlimit:10;}.e{stroke-width:1.96px;}.h{stroke-width:1.59px;}.i{fill:#500096;}</style></defs><title>Asset 13</title><path class="a" d="M193.9,59.2a11.8,11.8,0,0,0-1.3-4.9,14.7,14.7,0,0,0-5.3-6,6.1,6.1,0,0,0,3.7-6,3.2,3.2,0,0,0-.3-1.4c-.4-3.5-.6-4.6-.7-5.2a11.2,11.2,0,0,0-1.2-2.9,7.1,7.1,0,0,0-5.7-3.1h-.2a6.2,6.2,0,0,0-1.9-.2c-4.4.4-8.2.8-11.2,1.4h-.1a49.1,49.1,0,0,0-6.7,1.9A74.7,74.7,0,0,0,107.3,7.9c-18.1,0-35.7,6.9-50.5,18.3a7.3,7.3,0,0,0-3,.3,6.3,6.3,0,0,0-4.3,5.1,2.8,2.8,0,0,0-.1.9l-.4.4-.5-.3a35.9,35.9,0,0,0-15.8-3A29.9,29.9,0,0,0,23,31.5a24.2,24.2,0,0,0-8.1,5.1,21,21,0,0,0-5.4,8A23.4,23.4,0,0,0,8,54.6a26.2,26.2,0,0,0,3.8,13.1A20.7,20.7,0,0,0,20.3,75l1.5.6a106,106,0,0,0-4.2,17.7,86.5,86.5,0,0,0-.8,12.3,8.8,8.8,0,0,0-5,2.8c-2.2,2.7-1.7,5.8-1.5,7.4a11,11,0,0,1,.2,2.6v1.5c.4,9.4.7,16.2,1.5,25.2l.2,2.3,1.5,1.6a10.5,10.5,0,0,0,7.8,3,22.5,22.5,0,0,0,4-.4l2.6-.3h.8a21.1,21.1,0,0,0,5-.4c13.7,15.2,34.8,23.8,59.7,22.3a100.5,100.5,0,0,0,55.4-21c1.9.8,5.2,1,12.3,1.4l14.4.7h.6a7.7,7.7,0,0,0,5.4-2.2,7.6,7.6,0,0,0,2.4-5.5v-4.6a6.3,6.3,0,0,0-.7-3l.8-.9c2.8-3.8,1.2-8.3.4-10.3l-.4-1a8,8,0,0,0,2.8-5.7c.3-7.6-3.3-11.3-7.1-12.3a78.1,78.1,0,0,0,3.4-21,80.3,80.3,0,0,0-.7-12.1,21.2,21.2,0,0,0,3.6-2.1,18,18,0,0,0,7.3-9.6c0-.1,0-.2.1-.2A17.7,17.7,0,0,0,193.9,59.2Z"/><path class="b" d="M193.9,59.2a11.8,11.8,0,0,0-1.3-4.9,14.7,14.7,0,0,0-5.3-6,6.1,6.1,0,0,0,3.7-6,3.2,3.2,0,0,0-.3-1.4c-.4-3.5-.6-4.6-.7-5.2a11.2,11.2,0,0,0-1.2-2.9,7.1,7.1,0,0,0-5.7-3.1h-.2a6.2,6.2,0,0,0-1.9-.2c-4.4.4-8.2.8-11.2,1.4h-.1a49.1,49.1,0,0,0-6.7,1.9A74.7,74.7,0,0,0,107.3,7.9c-18.1,0-35.7,6.9-50.5,18.3a7.3,7.3,0,0,0-3,.3,6.3,6.3,0,0,0-4.3,5.1,2.8,2.8,0,0,0-.1.9l-.4.4-.5-.3a35.9,35.9,0,0,0-15.8-3A29.9,29.9,0,0,0,23,31.5a24.2,24.2,0,0,0-8.1,5.1,21,21,0,0,0-5.4,8A23.4,23.4,0,0,0,8,54.6a26.2,26.2,0,0,0,3.8,13.1A20.7,20.7,0,0,0,20.3,75l1.5.6a106,106,0,0,0-4.2,17.7,86.5,86.5,0,0,0-.8,12.3,8.8,8.8,0,0,0-5,2.8c-2.2,2.7-1.7,5.8-1.5,7.4a11,11,0,0,1,.2,2.6v1.5c.4,9.4.7,16.2,1.5,25.2l.2,2.3,1.5,1.6a10.5,10.5,0,0,0,7.8,3,22.5,22.5,0,0,0,4-.4l2.6-.3h.8a21.1,21.1,0,0,0,5-.4c13.7,15.2,34.8,23.8,59.7,22.3a100.5,100.5,0,0,0,55.4-21c1.9.8,5.2,1,12.3,1.4l14.4.7h.6a7.7,7.7,0,0,0,5.4-2.2,7.6,7.6,0,0,0,2.4-5.5v-4.6a6.3,6.3,0,0,0-.7-3l.8-.9c2.8-3.8,1.2-8.3.4-10.3l-.4-1a8,8,0,0,0,2.8-5.7c.3-7.6-3.3-11.3-7.1-12.3a78.1,78.1,0,0,0,3.4-21,80.3,80.3,0,0,0-.7-12.1,21.2,21.2,0,0,0,3.6-2.1,18,18,0,0,0,7.3-9.6c0-.1,0-.2.1-.2A17.7,17.7,0,0,0,193.9,59.2Z"/><path class="a" d="M17.6,93.3c-6.6,47.2,27.4,83,76,80s88.8-41.3,89.7-85.4-33.2-80-76-80S24.3,46.2,17.6,93.3Z"/><path class="a" d="M127.8,98.3h-4.4a2.1,2.1,0,0,1-.3-1.3,22.1,22.1,0,0,1,0-2.6v-3c0-.7.1-1.9.1-3.4h-2.7c-.4,0-.7-.5-.8-1.4a7.2,7.2,0,0,1,0-2.1V82.4h15.7a.1.1,0,0,0,.1.1l-.2,4.6a.8.8,0,0,1-.1.4l-.4.2a12.9,12.9,0,0,0-2.3-.3h-1c-.3,0-.5.3-.6,1s-.1.5-.1.9v2.4a12.3,12.3,0,0,1-.2,2c0,.5-.1.8-.1,1a3.1,3.1,0,0,1-.1.9v1.4c-.1.5-.3.8-.7.8h-2.1Z"/><path class="a" d="M129.1,102.8h-5.8a4.7,4.7,0,0,1-3.8-2.2,8.1,8.1,0,0,1-.9-3.4,15.8,15.8,0,0,1,0-3.1V91.7c-1.6-.6-3.1-2.2-3.4-5a12,12,0,0,1,0-2.7V81.7a5.1,5.1,0,0,1,1.4-2.6h.1a4.4,4.4,0,0,1,3.5-1.2H136a4.7,4.7,0,0,1,2.5,1.1,4.6,4.6,0,0,1,1.7,3.5l-.2,4.7a4.8,4.8,0,0,1-1.4,3.4,5.5,5.5,0,0,1-2.3,1.4l-.8.2c-.1.7-.1,1.4-.2,2.1s-.1.4-.1.6a1.7,1.7,0,0,1-.1.7c.1,0,.1.1,0,.2a8.1,8.1,0,0,1-.1,1.6,5.1,5.1,0,0,1-4.7,4.9ZM115.5,82.4Z"/><path class="a" d="M193.9,59.2a11.8,11.8,0,0,0-1.3-4.9,14.7,14.7,0,0,0-5.3-6,6.1,6.1,0,0,0,3.7-6,3.2,3.2,0,0,0-.3-1.4c-.4-3.5-.6-4.6-.7-5.2a11.2,11.2,0,0,0-1.2-2.9,7.1,7.1,0,0,0-5.7-3.1h-.2a6.2,6.2,0,0,0-1.9-.2c-4.4.4-8.2.8-11.2,1.4h-.1a36.3,36.3,0,0,0-10.6,3.8c-.2-1.5-.3-2.2-.4-2.6a8.2,8.2,0,0,0-1.2-3,6.9,6.9,0,0,0-5.6-3h-.2a6.2,6.2,0,0,0-1.9-.2,91.6,91.6,0,0,0-11.2,1.3h-.1A29.7,29.7,0,0,0,127,31.4a6.5,6.5,0,0,0-5.8-3h-.7a3.4,3.4,0,0,0-1.4-.1l-5.3.4-3.1.5h-7l-5.4.2-3.1.2-1,.2a8.8,8.8,0,0,0-2.6.9l-4-.6h-.1L84,30l-4-.4H79a2.8,2.8,0,0,0-1.3-.3,5.7,5.7,0,0,0-3.9.7c-1.5-1.3-3.5-2-6.7-2.5h-.6l-7-1.1H57.6a7.9,7.9,0,0,0-3.8.3,6.3,6.3,0,0,0-4.3,5.1,6.6,6.6,0,0,0-.1,1.5l-.9-.5a35.9,35.9,0,0,0-15.8-3A29.9,29.9,0,0,0,23,31.5a24.2,24.2,0,0,0-8.1,5.1,21,21,0,0,0-5.4,8A23.4,23.4,0,0,0,8,54.6a26.2,26.2,0,0,0,3.8,13.1A20.7,20.7,0,0,0,20.3,75a19.6,19.6,0,0,0,8.6,1.9h1a17.7,17.7,0,0,0,7.9-2,6.7,6.7,0,0,0,2.4.4h.9l5.8-.3h4a5.4,5.4,0,0,0,4.6-2.9h.2a29.1,29.1,0,0,0,5,.8h.2l1.4.2a16.9,16.9,0,0,0,3.9,0,16.8,16.8,0,0,0,4.1-.6l1.5.8a19,19,0,0,0,3.6.8l2.6.4a55.4,55.4,0,0,0,8,.6l1.4.2a5.7,5.7,0,0,0,2.5-.6l1.7-1.1.5-.5.7-.8a5.7,5.7,0,0,0,4.6,2.4h.4l18.4-1.2a6.5,6.5,0,0,0,1.9-.4h1.8a5.8,5.8,0,0,0,3.2-.2h1.5l1.5.8a9.2,9.2,0,0,0,2.7.8l3.5.5h3.1l8.4-.7a23.5,23.5,0,0,0,5.7-1.3,36,36,0,0,0,3.9-2l.6,2.3a4.5,4.5,0,0,0,.3,1.1,6.3,6.3,0,0,0,3.5,3.1,7.7,7.7,0,0,0,2.7.7l3.5.4h3l8.5-.9a19.7,19.7,0,0,0,5.6-1.3,25.3,25.3,0,0,0,5.1-2.8,18,18,0,0,0,7.3-9.6c0-.1,0-.2.1-.2A17.7,17.7,0,0,0,193.9,59.2ZM87.4,36.7h0a.4.4,0,0,0,.1-.3A.4.4,0,0,1,87.4,36.7Z"/><path class="a" d="M187,121.2c.4-8.2-3.9-11.8-8-12.5-.9-.2-19.4-1.4-24.4-1.7a7.3,7.3,0,0,0-4.1.6l-1.3-.7c-9.2-4.7-18.8-4.4-26.3.9l-1.3,1.1a7.4,7.4,0,0,0-5.3-2.7l-7.8-.6-3-.4c-3-.5-6.4-1-9.4,1.6a8.2,8.2,0,0,0-2.5,3.8,22.5,22.5,0,0,0-7.5-3.4,37.7,37.7,0,0,0-14.2-1.1h-.3a13.8,13.8,0,0,1-2.9,0c-6.6,0-11.2.1-14.3,1.9l-2.1-1.2h-.1c-8-3.3-15.5-2.5-22.2-1.9a58.4,58.4,0,0,1-9.1.4h-.7c-2.1.1-6,.2-8.4,3.1s-1.7,5.8-1.5,7.4a11,11,0,0,1,.2,2.6v1.5c.4,9.4.7,16.2,1.5,25.2l.2,2.3,1.5,1.6a10.5,10.5,0,0,0,7.8,3,22.5,22.5,0,0,0,4-.4l2.6-.3h.8c3.6,0,7.7-.1,10.4-3.5a9,9,0,0,0,1.8-4.8c3.8-.2,7.9-.8,11.3-2.7.3,1.9.6,3.9,1,5.9v.5l1.4,4.1,6,1.6h1.9l3.1-.2c3.5,0,7.8-.1,11.9-2.2l2-.9,1.3,1.2h0a6.5,6.5,0,0,0,7.6.8,29.6,29.6,0,0,0,5-2.6,11.4,11.4,0,0,0,1.1,1.1c2.5,2.1,6.7,3.2,12.8,3.2l5.3-.2c3.6-.2,5.6-2.6,6.8-5.4a25.5,25.5,0,0,0,8.8,5.1l.5.2h.5a32.9,32.9,0,0,0,4.5.3,30.8,30.8,0,0,0,12.3-2.5h.2c2.1,2.4,3.8,2.5,14.8,3.2l14.4.7h.6a7.7,7.7,0,0,0,5.4-2.2,7.6,7.6,0,0,0,2.4-5.5v-4.6a6.3,6.3,0,0,0-.7-3l.8-.9c2.8-3.8,1.2-8.3.4-10.3l-.4-1A8,8,0,0,0,187,121.2Zm-45.2,7.9a14,14,0,0,1-.2-2.3,4.2,4.2,0,0,1,.7-2h.3a4.5,4.5,0,0,1,1.7.3h.3v1l-1.9,2A3.8,3.8,0,0,1,141.8,129.1Z"/><path class="c" d="M53.2,64.1v-.5a.9.9,0,0,1,.1-.5v-.2L53,57.8V55.5c0-.4-.1-.7-.1-.9V53H49.6a3.6,3.6,0,0,1-1.5,0l-.7.3H45.1l-1.4.3H41.4l-.6.2h-1c-.3.1-.4.2-.3.5v2.2a19.2,19.2,0,0,1,.6,3c0,.7.1,1.3.1,1.8a8.3,8.3,0,0,1,.2,1.3,6.1,6.1,0,0,1-3,.8,3.5,3.5,0,0,1-3.1-1.4,11.9,11.9,0,0,1-1.5-5.9c-.2-3.1.4-5.4,1.6-6.8a6.3,6.3,0,0,1,4.6-1.9,7.3,7.3,0,0,1,2,.1,39.2,39.2,0,0,1,4.1.7l2,.4,1.6-8.6a32.6,32.6,0,0,0-13.5-2.6,24.7,24.7,0,0,0-7.9,1.6A18.2,18.2,0,0,0,21.1,43a16.2,16.2,0,0,0-4,6,19.2,19.2,0,0,0-1.2,7.7,20.2,20.2,0,0,0,3,10.3A13.6,13.6,0,0,0,25,72.3a13,13,0,0,0,7,1.4,12.9,12.9,0,0,0,6.2-1.6,5.9,5.9,0,0,0,3-4.1,12.8,12.8,0,0,0,.4,3c.2.8.4,1.1.7,1.1H44l5-.3h2.1l1.9-.2a7.9,7.9,0,0,0,.3-2.6c0-.9,0-2.3-.1-4.4Z"/><path class="c" d="M95.1,38.8c-.1,0-.2,0-.2.1h-.3c0-.1,0-.1.1-.1v-.3c0-.1,0-.2-.1-.2s0,0,0-.1h-.2l-6.1-.6H81.4a12.6,12.6,0,0,0-2.6.2h0c.1-.1,0-.1-.1-.2s-.1-.1-.2-.1h-.6a1.3,1.3,0,0,0-.3,1v1.4a3.4,3.4,0,0,0-.1.9,14.2,14.2,0,0,0,.1,1.9l-1.6,19c0,.2-.2.3-.6.5l-1.4.5-2.7.7c-.1,0-.3-.2-.5-.5a8.7,8.7,0,0,1,0-2.3V58.4c.1-.8.2-1.4.3-1.9l.2-2.4.3-2.8c.2-2.5.5-4.4.6-5.5v-.6c.1-1.1.1-2,.1-2.5V40.1a8,8,0,0,0,0-2.2,2.9,2.9,0,0,0-.8-1.3,8.8,8.8,0,0,0-3.8-.9l-.5.2-.2-.2L60,35q-.2.2-.9,0h-.8c-1.2-.1-1.8.1-1.9.7a4.9,4.9,0,0,0,.1,1.1,5.4,5.4,0,0,1-.1,1.1c-.1,1.2-.2,2.4-.3,3.3l-.3,2.1a27.5,27.5,0,0,1-.4,3.4c0,.2,0,.3-.1.4v.2l-.2.3v2.8c-.1.2-.1.5-.2.8l-.2,2.6a51.5,51.5,0,0,0-.2,6.7,13.1,13.1,0,0,0,2.1,6.3,5.2,5.2,0,0,0,1.8,1.8l2.4,1a21.3,21.3,0,0,0,3.9.4h2a12.6,12.6,0,0,0,2.7-.1A14.1,14.1,0,0,0,73,69c.1-.2.4-.3.7-.5s.2-.2.4-.3l.3-.3a5,5,0,0,1,1.5-.5l.3.3c.1.2.1.5.2.7a4.9,4.9,0,0,0,.7,1.6l2.5.4,2.6.2a48.8,48.8,0,0,0,7.3.2h1c.2.1.4.1.4.2s.1-.1.2-.1l.2-.2.4-.4.5-.8c.7-4.6,1.2-9.1,1.6-13.5s.9-10.1,1.4-16.8C95.2,38.9,95.2,38.8,95.1,38.8Z"/><path class="c" d="M158.5,55.5a7.8,7.8,0,0,0-3.5-3.9,30.2,30.2,0,0,0-5.5-2.6l-3.1-1.3c-.4-.2-.6-.3-.7-.5a3.5,3.5,0,0,1-.1-.6,2.3,2.3,0,0,1,.5-1.5,5.6,5.6,0,0,1,3.2-1.7l2.9-.6,1.3-.2,1.8-.3q1.2-.4,1.2-.9a.4.4,0,0,0-.1-.3c-.3-3-.6-4.8-.7-5.4l-.4-1.1a1.8,1.8,0,0,0-1.5-.6l-1.3-.3c-4.2.3-7.7.7-10.6,1.2a27.3,27.3,0,0,0-10.1,3.9,9.4,9.4,0,0,0-4.1,8.6,22.6,22.6,0,0,0,1.2,4.3c.8,2,1.7,2.9,2.7,2.9v.3q0,.3.6.6l.9.6.7.3a.1.1,0,0,1,0,.2h.4l1,.5c.1.1.1.1.1.2h.1a5.4,5.4,0,0,0,1.9.5l1.9.6a6.1,6.1,0,0,1,1.8,1,1.8,1.8,0,0,1,.6,1.5,1,1,0,0,1-.4,1,7,7,0,0,1-3.2.8h-1.8a19.8,19.8,0,0,1-7.5-.9q-.3.1-.3.3c-.1.1-.1.3-.1.6v.3l1.7,7.1a.9.9,0,0,0,.6.4,2.8,2.8,0,0,0,1.3.3,19.7,19.7,0,0,0,3.2.5l1.4.2h.7l8.5-.8a15.3,15.3,0,0,0,4-.9,25.2,25.2,0,0,0,4-2.1,13.5,13.5,0,0,0,5.3-6.7,11.9,11.9,0,0,0,.2-2.8A7.7,7.7,0,0,0,158.5,55.5Z"/><path class="c" d="M190.7,62a5.5,5.5,0,0,0-.7-2.8,8.5,8.5,0,0,0-3.6-3.9,27.4,27.4,0,0,0-5.5-2.6l-3.2-1.2c-.3-.2-.5-.3-.6-.5s-.1-.4-.1-.6a2.1,2.1,0,0,1,.4-1.5,5.7,5.7,0,0,1,3.2-1.7l2.9-.7,1.3-.2,1.8-.3q1.3-.4,1.2-.9c0-.2,0-.3-.1-.3-.4-3-.6-4.8-.8-5.4a1.9,1.9,0,0,0-.4-1.1c-.2-.4-.7-.6-1.4-.6l-1.3-.3c-4.2.4-7.8.8-10.6,1.3a26.5,26.5,0,0,0-10.1,4,9.4,9.4,0,0,0-4,8.7,24.8,24.8,0,0,0,1.2,4.3c.9,1.9,1.8,2.8,2.7,2.8v.3c0,.2.2.4.5.6l.9.5.7.4c.1,0,.2,0,.2.1h-.1l.4.2,1,.5a.1.1,0,0,0,.1.1h.1a7.7,7.7,0,0,0,1.9.5l1.9.5a7.7,7.7,0,0,1,1.8,1,2.4,2.4,0,0,1,.7,1.5,1.4,1.4,0,0,1-.5,1,6.9,6.9,0,0,1-3.1.8h-1.8a19.3,19.3,0,0,1-7.5-.9l-.4.3c0,.2-.1.4,0,.6V67l1.8,7.1a.9.9,0,0,0,.6.4,2.8,2.8,0,0,0,1.3.3,21.6,21.6,0,0,0,3.2.5h2.1l8.5-.8a15.6,15.6,0,0,0,4-1,22.4,22.4,0,0,0,4-2.2,12.5,12.5,0,0,0,5.2-6.7A8.3,8.3,0,0,0,190.7,62Z"/><path class="d" d="M50.8,61.7v-.5c0-.2,0-.3.1-.4v-.3l-.3-5.1V53.1c0-.4-.1-.7-.1-.9V50.6h-2a2,2,0,0,1-1.1,0H45.7l-.7.2h-.8l-1.5.2c-.8,0-1.3.1-1.4.3H39.1l-.7.2h-1c-.2,0-.3.1-.3.4v2.2a19.2,19.2,0,0,1,.6,3c0,.7.1,1.3.1,1.8a7.8,7.8,0,0,1,.2,1.4,7.3,7.3,0,0,1-2.9.7A3.6,3.6,0,0,1,32,59.7a11.6,11.6,0,0,1-1.5-5.9c-.2-3.1.4-5.3,1.6-6.8a6.3,6.3,0,0,1,4.6-1.9h2l4.2.7,1.9.5,1.6-8.7A32.5,32.5,0,0,0,33,35.1a28.4,28.4,0,0,0-8,1.6,19.8,19.8,0,0,0-6.3,3.9,16.2,16.2,0,0,0-4,6,19.2,19.2,0,0,0-1.2,7.7,20.2,20.2,0,0,0,3,10.3,14.1,14.1,0,0,0,6.1,5.3,14.3,14.3,0,0,0,7,1.5,13.8,13.8,0,0,0,6.2-1.7,5.9,5.9,0,0,0,3-4.1,19.9,19.9,0,0,0,.4,3c.2.8.4,1.1.7,1.1h1.7l5.1-.3h2l2-.2a13.4,13.4,0,0,0,.2-2.6,35.9,35.9,0,0,0-.1-4.4Z"/><path class="d" d="M92.6,36.5h-.5c0-.1,0-.2.1-.2v-.3c0-.1,0-.1-.1-.1h-.2l-6.1-.7H82.3a20.8,20.8,0,0,0-3.5-.1,7.6,7.6,0,0,0-2.5.2h0a.4.4,0,0,0-.1-.3H76a.8.8,0,0,0-.6.2c-.2.1-.3.5-.4.9V40L73.4,59c0,.2-.2.3-.6.4l-1.4.6-2.7.7a1.2,1.2,0,0,1-.5-.5,8.6,8.6,0,0,1,0-2.3V56.1a8.4,8.4,0,0,1,.3-1.8l.2-2.5L69,49c.3-2.5.5-4.3.7-5.4V43a21.9,21.9,0,0,0,0-2.6c.1-1.1.1-1.9.1-2.5a5.1,5.1,0,0,0-.1-2.2,1.9,1.9,0,0,0-.7-1.3c-.5-.5-1.8-.7-3.8-.9h-.5l-.2-.2-7.1-.6H55.8c-1.2-.1-1.8.2-1.9.8a5.4,5.4,0,0,0,.1,1.1,4.6,4.6,0,0,1-.1,1c-.1,1.3-.2,2.4-.3,3.4l-.3,2.1a26.3,26.3,0,0,1-.4,3.3,1,1,0,0,1-.1.4V45l-.2.4v2.8a2.8,2.8,0,0,1-.1.8L52,51.5a39.7,39.7,0,0,0-.2,6.8,13.8,13.8,0,0,0,2,6.2,6.4,6.4,0,0,0,1.9,1.8,8.7,8.7,0,0,0,2.4,1,20.6,20.6,0,0,0,3.9.5h2a8.3,8.3,0,0,0,2.7-.1,11.2,11.2,0,0,0,3.8-1l.7-.5.4-.3.3-.2c.7-.4,1.2-.6,1.5-.5l.3.3a1.5,1.5,0,0,1,.1.7c.3.8.5,1.3.8,1.5a9.3,9.3,0,0,0,2.5.4l2.6.2a38.1,38.1,0,0,0,7.3.2h.4l.6.2h.7l.5-.5a1.5,1.5,0,0,0,.5-.8c.7-4.5,1.2-9,1.6-13.5s.9-10,1.4-16.8C92.7,36.7,92.7,36.5,92.6,36.5Z"/><path class="e" d="M99.2,86H91.8v.4c-.1.1-.1.3-.1.6a5.6,5.6,0,0,1-.1.7v.8a1.3,1.3,0,0,0-.1.6v1.5c0,.1-.1.1-.3.1h-2l-.2-.2c0-.1-.1-.2,0-.4V87.9h0V86c0-.2-.1-.3-.1-.4l-.2-.2H81.5l-.2-1.3h-11l-1.8.2-1.8.2H65.6v1.7q.1,1.3.3,2.1c.2.9.5,1.3.9,1.3l2.7-.3h.1c.1,1.6.2,2.7.2,3.4l.3,3c.1,1.1.2,2,.3,2.6a2.7,2.7,0,0,0,.5,1.3l1.8-.2h3.9l.8-.2c.3-.1.5-.4.5-.9a7.6,7.6,0,0,0-.1-1.4V95.3c0-.6-.1-1.3-.1-2.1v-.7c0-.2-.1-.5-.1-.8V90c0-.7.2-1,.5-1.1h2.7v2.1c-.1,1.8-.1,3.3-.1,4.5v4.7c0,.1,0,.2.1.2l1.4.3,1.9.2h4c.1,0,.2,0,.2-.1h0c0-.1.1-.1.1-.2V100l.3-4.5h0v-.2c.1,0,.1-.1.2,0h2.6v4.5c0,.4.1.7.1.9a.5.5,0,0,0,.5.3h.5l2,.2,2.1.2h1.8c.2,0,.3,0,.4-.2l.2-.3.8-8.5v-.9c0-.6.1-1,.1-1.3V88.9l.2-2.2a.8.8,0,0,0-.2-.5Z"/><path class="e" d="M120.1,97.4c-.4-1.6-.9-3.5-1.6-5.8l-2.1-7.1-.2-.2H104.3l-1.6,7.3-1.2,5.8v.5a3.1,3.1,0,0,0-.2.8c0,.6.1.9.5.9h7.7a3.9,3.9,0,0,0,.3-1.1l.2-.9c0-.2.1-.4.1-.7h2.7a13.1,13.1,0,0,0,.8,2.7h6.3c.2,0,.3,0,.4-.2v-.5a2.8,2.8,0,0,0-.1-.9A1.3,1.3,0,0,1,120.1,97.4Zm-8-3.5h-1.8a4.2,4.2,0,0,0,.2-1.1c0-.3,0-.6.1-.7v-.6l.2-1.3.2-1.1v-.4a.6.6,0,0,0,.1-.4v-.2a.1.1,0,0,0,.1-.1h0v.5a.8.8,0,0,0,.1.4v.4a1.1,1.1,0,0,1,.1.5c.1.2.1.4.2.6a1.3,1.3,0,0,0,.1.6c0,.2.1.5.1.7l.2,1.3a11,11,0,0,1,.3,1.1Z"/><path class="e" d="M137.1,84.5H121.3v.8c0,.2-.1.4-.1.6v2.4c.1.9.4,1.4.8,1.4h2.7a30.3,30.3,0,0,1-.1,3.4v3a18.6,18.6,0,0,0,.1,2.6,4.6,4.6,0,0,0,.2,1.4h6.5a.9.9,0,0,0,.7-.9c0-.4.1-.8.1-1.4a2.8,2.8,0,0,1,.1-.9,4.6,4.6,0,0,1,.1-1c0-.6.1-1.3.1-2V90.4c.1-.7.3-1,.6-1h1l2.3.3.4-.2c.1-.2.2-.3.2-.4V84.5Z"/><path class="d" d="M73.9,98.2H71.3l-1.8.2a3.4,3.4,0,0,1-.4-1.4,21.9,21.9,0,0,1-.4-2.5l-.2-3c-.1-.7-.1-1.9-.3-3.4h-.1l-2.6.3c-.4,0-.7-.4-.9-1.3a5.8,5.8,0,0,1-.3-2.1V83.2h1l1.8-.2,1.8-.2h6c.4,0,.6-.1.8,0h4.2l.4,4.6a.4.4,0,0,1-.1.3l-.3.3a18.9,18.9,0,0,0-2.4,0h-1c-.3.1-.4.4-.4,1.1s0,.5,0,.9v.8a1.9,1.9,0,0,0,.1.8v.7a16.2,16.2,0,0,1,.1,2.1,2.5,2.5,0,0,0,.1,1,1.4,1.4,0,0,0,0,.9c0,.6.1,1,.1,1.4a.8.8,0,0,1-.6.9l-.7.2Z"/><path class="d" d="M80.6,99l-1.4-.3-.2-.2v-.2c-.1,0-.1-.2-.1-.3a28.8,28.8,0,0,0,0-4.2c0-1.2.1-2.7.2-4.5V87.6l.2-1.2v-.7a3.5,3.5,0,0,0,.1-.6V83.4h7.7l.3.2v3.4c0,.2-.1.5-.1.8v.4l.3.2H90V85.1a1.8,1.8,0,0,0,.1-.6v-.4h7.5l.7.2a.4.4,0,0,1,.1.5v2.2c0,.3-.1.6-.1.8v.7a7.2,7.2,0,0,1-.1,1.3V91l-.9,8.5a.4.4,0,0,1-.2.3c-.1.2-.2.2-.3.2H94.9l-2.1-.2-2-.2h-.4c-.3,0-.5-.1-.5-.3a2.5,2.5,0,0,1-.1-.9V93.8H87.1v.2H87l-.3,4.5v.7H82.5Z"/><path class="d" d="M99.9,97.6a2.2,2.2,0,0,1,.1-.8v-.3c.1-.1.1-.1.1-.2a54.1,54.1,0,0,1,1.2-5.8l1.6-7.3a.1.1,0,0,1,.1-.1v-.2h11.6c.2,0,.2.1.2.2l2.2,7.1c.6,2.3,1.2,4.2,1.5,5.8a2,2,0,0,1,.1.5,3.1,3.1,0,0,1,.2.8,1.5,1.5,0,0,1-.1.6l-.3.2h-6.4a15.7,15.7,0,0,1-.7-2.7h-2.7a2,2,0,0,0-.1.7c0,.1-.1.4-.2.9a5.3,5.3,0,0,1-.3,1.1h-.7a.1.1,0,0,0-.1-.1h-7C100,98.5,99.8,98.2,99.9,97.6Zm10.9-6.3-.2-1.3c-.1-.2-.1-.5-.2-.7a1.3,1.3,0,0,0-.1-.6c0-.2-.1-.4-.1-.6s-.1-.3-.1-.5-.1-.2-.1-.4,0-.3-.1-.4v-.3c0-.1-.1-.1-.1-.2h-.1c0,.1,0,.1-.1.2v.4a.6.6,0,0,1-.1.4v1.1l-.2,1.3v.6a2.3,2.3,0,0,1-.1.7c-.1.8-.2,1.2-.1,1.1H111C110.9,91.8,110.8,91.4,110.8,91.3Z"/><path class="d" d="M127.8,98.3h-4.4a2.1,2.1,0,0,1-.3-1.3,22.1,22.1,0,0,1,0-2.6v-3c0-.7.1-1.9.1-3.4h-2.7c-.4,0-.7-.5-.8-1.4a7.2,7.2,0,0,1,0-2.1V82.4h15.7a.1.1,0,0,0,.1.1l-.2,4.6a.8.8,0,0,1-.1.4l-.4.2a12.9,12.9,0,0,0-2.3-.3h-1c-.3,0-.5.3-.6,1s-.1.5-.1.9v2.4a12.3,12.3,0,0,1-.2,2c0,.5-.1.8-.1,1a3.1,3.1,0,0,1-.1.9v1.4c-.1.5-.3.8-.7.8h-2.1Z"/><path class="f" d="M98.7,70.6c-.3-.3-4.9-34.4-.6-33,4.8-.3,24.2-.7,24.2-.7,2.6.2,3.2,3.7,3.3,5.7a1.6,1.6,0,0,1-1.5,1.6l-9.1.9a.9.9,0,0,0-.8.6,19.3,19.3,0,0,0-.5,4.2.8.8,0,0,0,.9.8s6.8-.1,8.6.1c.2.1.7-.2,1.1,1.1,4.7,8.4-5.6,3.8-10.2,5.9a.5.5,0,0,0-.4.5c-.1.9-.1,2.9-.1,4.4a.9.9,0,0,0,.9.9c2.7,0,7.4-1.8,9.7-.2.3.1.4.4.5.7s.2,3,.4,4.4a1.5,1.5,0,0,1-1.4,1.5C118.2,70.3,98.7,71.2,98.7,70.6Z"/><path class="g" d="M98.7,70.6c-.3-.3-4.9-34.4-.6-33,4.8-.3,24.2-.7,24.2-.7,2.6.2,3.2,3.7,3.3,5.7a1.6,1.6,0,0,1-1.5,1.6l-9.1.9a.9.9,0,0,0-.8.6,19.3,19.3,0,0,0-.5,4.2.8.8,0,0,0,.9.8s6.8-.1,8.6.1c.2.1.7-.2,1.1,1.1,4.7,8.4-5.6,3.8-10.2,5.9a.5.5,0,0,0-.4.5c-.1.9-.1,2.9-.1,4.4a.9.9,0,0,0,.9.9c2.7,0,7.4-1.8,9.7-.2.3.1.4.4.5.7s.2,3,.4,4.4a1.5,1.5,0,0,1-1.4,1.5C118.2,70.3,98.7,71.2,98.7,70.6Z"/><path class="d" d="M96.3,68.3c-.3-.4-4.8-34.5-.6-33.1,4.9-.3,24.2-.7,24.3-.7,2.5.2,3.1,3.7,3.2,5.7a1.5,1.5,0,0,1-1.4,1.6c-2.1.1-7.4.7-9.2.9a.8.8,0,0,0-.8.7,27,27,0,0,0-.5,4.1.9.9,0,0,0,.9.9s6.8-.2,8.6,0c.2.1.7-.2,1.1,1.1,4.7,8.4-5.6,3.8-10.2,5.9a.7.7,0,0,0-.4.5c-.1.9-.1,2.9-.1,4.4a.9.9,0,0,0,.9.9c2.7,0,7.4-1.7,9.7-.2.3.2.5.4.5.7s.3,3,.4,4.4a1.4,1.4,0,0,1-1.4,1.5C115.8,67.9,96.3,68.8,96.3,68.3Z"/><path class="f" d="M22.1,147.3c-.8-9.1-1.1-15.8-1.5-25.6.5-5.5-2.7-7.1,3.6-7.3,9.1.7,19.3-3.2,29.4,1,7.5,3.3,6.2,17,1.1,21s-11.6,3.1-16.4,3.3v2.1c.1.2-.3.5,0,1.2,1.1,4.8-1.2,4.7-5.8,4.7S24.5,149.7,22.1,147.3Zm18.7-13.8c6.4-8.2-3.6-28.9-2.3,0h2.3Z"/><path class="h" d="M22.1,147.3c-.8-9.1-1.1-15.8-1.5-25.6.5-5.5-2.7-7.1,3.6-7.3,9.1.7,19.3-3.2,29.4,1,7.5,3.3,6.2,17,1.1,21s-11.6,3.1-16.4,3.3v2.1c.1.2-.3.5,0,1.2,1.1,4.8-1.2,4.7-5.8,4.7S24.5,149.7,22.1,147.3Zm18.7-13.8c6.4-8.2-3.6-28.9-2.3,0h2.3Z"/><path class="f" d="M84.5,143.5l-5.3-7.3h-.6c.1,2.2.2,7.3.2,10.9-4.1,2-9.1,1.2-13,1.7h-.4l-1.8-.5v-.4c-1.1-5.9-1.6-11.2-2.2-17.3a11.1,11.1,0,0,0,0-1.9,10.3,10.3,0,0,0-.2-2.2c-.1-2,0-4.2-.1-6.9a9.5,9.5,0,0,1-.2-2.2c-.8-3.3,13.5-1.8,15.7-2.3,11.2-1.3,28.7,4.1,15.5,16.7,1.1,2.2,3.9,5.3,6.5,8.3a2.9,2.9,0,0,0,.5,1c.9.7-.6,1.5-2.3,2.8a22.6,22.6,0,0,1-6.9,4.2l-.6.2A42.1,42.1,0,0,1,84.5,143.5ZM79.6,128c4.9-1.1,5.4-8.2-2.1-6.8,0,2.1-.1,4.1.1,7.2A6.3,6.3,0,0,0,79.6,128Z"/><path class="h" d="M84.5,143.5l-5.3-7.3h-.6c.1,2.2.2,7.3.2,10.9-4.1,2-9.1,1.2-13,1.7h-.4l-1.8-.5v-.4c-1.1-5.9-1.6-11.2-2.2-17.3a11.1,11.1,0,0,0,0-1.9,10.3,10.3,0,0,0-.2-2.2c-.1-2,0-4.2-.1-6.9a9.5,9.5,0,0,1-.2-2.2c-.8-3.3,13.5-1.8,15.7-2.3,11.2-1.3,28.7,4.1,15.5,16.7,1.1,2.2,3.9,5.3,6.5,8.3a2.9,2.9,0,0,0,.5,1c.9.7-.6,1.5-2.3,2.8a22.6,22.6,0,0,1-6.9,4.2l-.6.2A42.1,42.1,0,0,1,84.5,143.5ZM79.6,128c4.9-1.1,5.4-8.2-2.1-6.8,0,2.1-.1,4.1.1,7.2A6.3,6.3,0,0,0,79.6,128Z"/><path class="f" d="M102.2,146.5a25.5,25.5,0,0,1,0-2.8c1.8-33.9-2.1-30.3,9.5-29.1l7.9.6a1.3,1.3,0,0,1,1.2,1.5c-1.1,9.7-1.2,32.3-4.4,32.2C116.4,148.9,102.4,150.1,102.2,146.5Z"/><path class="h" d="M102.2,146.5a25.5,25.5,0,0,1,0-2.8c1.8-33.9-2.1-30.3,9.5-29.1l7.9.6a1.3,1.3,0,0,1,1.2,1.5c-1.1,9.7-1.2,32.3-4.4,32.2C116.4,148.9,102.4,150.1,102.2,146.5Z"/><path class="f" d="M134.4,149c-23.8-8.2-9.6-46.7,15.7-33.7v6.5c-17.2-5.7-12.5,27.8,1,13.5l1.6,8.1C149.3,148.3,140.2,150,134.4,149Z"/><path class="h" d="M134.4,149c-23.8-8.2-9.6-46.7,15.7-33.7v6.5c-17.2-5.7-12.5,27.8,1,13.5l1.6,8.1C149.3,148.3,140.2,150,134.4,149Z"/><path class="f" d="M155.1,149.1c-.2-.4-1.6-34.8,2.5-33,4.8.1,24.1,1.6,24.2,1.6,2.5.4,2.7,3.9,2.6,6a1.5,1.5,0,0,1-1.5,1.4h-9.2a1.1,1.1,0,0,0-.9.6,18.6,18.6,0,0,0-.8,4.1.8.8,0,0,0,.8.9s6.7.5,8.5.9c.2.1.8-.1,1,1.1,3.9,8.8-5.9,3.3-10.7,5-.2,0-.4.3-.4.5a36.7,36.7,0,0,0-.5,4.3.9.9,0,0,0,.8,1c2.7.3,7.5-1.1,9.7.7a1,1,0,0,1,.4.7v4.4a1.4,1.4,0,0,1-1.5,1.4C174.5,150.5,155,149.6,155.1,149.1Z"/><path class="h" d="M155.1,149.1c-.2-.4-1.6-34.8,2.5-33,4.8.1,24.1,1.6,24.2,1.6,2.5.4,2.7,3.9,2.6,6a1.5,1.5,0,0,1-1.5,1.4h-9.2a1.1,1.1,0,0,0-.9.6,18.6,18.6,0,0,0-.8,4.1.8.8,0,0,0,.8.9s6.7.5,8.5.9c.2.1.8-.1,1,1.1,3.9,8.8-5.9,3.3-10.7,5-.2,0-.4.3-.4.5a36.7,36.7,0,0,0-.5,4.3.9.9,0,0,0,.8,1c2.7.3,7.5-1.1,9.7.7a1,1,0,0,1,.4.7v4.4a1.4,1.4,0,0,1-1.5,1.4C174.5,150.5,155,149.6,155.1,149.1Z"/><path class="d" d="M18.3,144.5c-.8-9-1.1-15.7-1.5-25.5.5-5.6-2.7-7.1,3.6-7.3,9.1.7,19.2-3.2,29.4,1,7.5,3.3,6.2,16.9,1.1,21-3.6,3.4-11.6,3-16.4,3.3v2.1c.1.2-.3.5,0,1.1,1.1,4.8-1.2,4.8-5.8,4.8S20.6,147,18.3,144.5ZM37,130.8c6.4-8.3-3.6-28.9-2.3,0H37Z"/><path class="d" d="M80.7,140.7c-.7-.8-3.5-4.7-5.3-7.2v-.2h-.5c.1,2.2.2,7.3.2,10.8-4.1,2.1-9.2,1.3-13,1.8h-.4l-1.8-.5-.2-.4c-1-5.9-1.5-11.2-2.1-17.3V126a9.8,9.8,0,0,0-.2-2.2c-.1-2.1,0-4.2-.2-6.9,0-.2-.1-1.4-.1-2.2-.8-3.3,13.5-1.8,15.7-2.3,11.2-1.3,28.7,4.1,15.5,16.7,1.1,2.2,3.9,5.3,6.5,8.3a2.9,2.9,0,0,0,.5,1c.9.6-.6,1.5-2.4,2.8a24.9,24.9,0,0,1-6.8,4.2c-.4.2-.6.3-.7.2A41.9,41.9,0,0,1,80.7,140.7Zm-4.9-15.4c4.8-1.1,5.4-8.2-2.1-6.8,0,2-.1,4,0,7.2Z"/><path class="d" d="M98.4,143.8a25.9,25.9,0,0,1,0-2.8c1.8-34-2.2-30.3,9.5-29.1l7.9.6a1.3,1.3,0,0,1,1.2,1.4c-1.1,9.8-1.2,32.3-4.5,32.3C112.5,146.2,98.6,147.4,98.4,143.8Z"/><path class="d" d="M130.6,146.3c-23.8-8.2-9.6-46.7,15.7-33.8v6.6c-17.1-5.8-12.4,27.8,1,13.5l1.7,8.1C145.4,145.5,136.4,147.3,130.6,146.3Z"/><path class="d" d="M151.3,146.3c-.3-.3-1.7-34.7,2.5-32.9,4.8.1,24.1,1.5,24.2,1.6,2.5.4,2.7,3.9,2.6,5.9a1.4,1.4,0,0,1-1.5,1.4h-9.2a1,1,0,0,0-.9.6,17.5,17.5,0,0,0-.8,4.1.8.8,0,0,0,.8.9s6.7.5,8.5.8c.2.2.8-.1,1,1.2,3.9,8.8-5.9,3.3-10.7,4.9a.7.7,0,0,0-.4.6c-.2.8-.4,2.8-.6,4.3a.9.9,0,0,0,.8.9c2.8.4,7.6-1,9.8.8a.8.8,0,0,1,.4.7v4.4a1.4,1.4,0,0,1-1.5,1.4C170.7,147.8,151.2,146.9,151.3,146.3Z"/><path class="i" d="M50,92.4h6.3a.6.6,0,0,0,.6-.5c0-.3.1-1.4-.2-1.4h-7c-.3,0-.2,1.1-.2,1.4A.5.5,0,0,0,50,92.4Z"/><path class="i" d="M53.4,100.3h.4L57,97a.8.8,0,0,0,.1-.8.8.8,0,0,1-.2-.5l-4.2,3c-.2.2.1,1.3.3,1.5Z"/><path class="d" d="M50,91.4h6.3a.5.5,0,1,0,0-1H50a.5.5,0,0,0,0,1Z"/><path class="d" d="M53.2,99.5l.4-.2,3.2-3.2a.5.5,0,0,0,0-.7.6.6,0,0,0-.8,0l-3.2,3.2a.5.5,0,0,0,0,.7Z"/><path class="i" d="M56.4,87.6h-.3l-3.2-3.3a.6.6,0,0,1-.1-.8.5.5,0,0,0,.1-.5L57.1,86c.2.2-.1,1.3-.3,1.5Z"/><path class="d" d="M56.7,86.7h-.4l-3.2-3.2a.6.6,0,0,1,0-.8.5.5,0,0,1,.7,0L57,85.9a.5.5,0,0,1,0,.7Z"/><path class="i" d="M148.7,92.4h-6.4a.5.5,0,0,1-.5-.5c0-.3-.1-1.4.2-1.4h7c.3,0,.2,1.1.2,1.4A.6.6,0,0,1,148.7,92.4Z"/><path class="i" d="M145.3,100.3h-.4L141.7,97a.6.6,0,0,1-.1-.8.5.5,0,0,0,.1-.5l4.2,3c.2.2-.1,1.3-.3,1.5Z"/><path class="d" d="M148.7,91.4h-6.4a.5.5,0,0,1,0-1h6.4a.5.5,0,0,1,0,1Z"/><path class="d" d="M145.5,99.5l-.4-.2-3.2-3.2a.5.5,0,0,1,.7-.7l3.2,3.2a.5.5,0,0,1,0,.7Z"/><path class="i" d="M142.2,87.6h.4l3.2-3.3a.6.6,0,0,0,.1-.8.5.5,0,0,1-.1-.5L141.6,86c-.2.2.1,1.3.3,1.5Z"/><path class="d" d="M142,86.7h.4l3.2-3.2a.6.6,0,0,0,0-.8.5.5,0,0,0-.7,0l-3.2,3.3a.5.5,0,0,0,0,.7Z"/><path class="d" d="M156.2,53.2a9.3,9.3,0,0,0-3.6-4,27.4,27.4,0,0,0-5.5-2.6L144,45.3a1.5,1.5,0,0,1-.6-.4,1.4,1.4,0,0,1-.2-.7,2.3,2.3,0,0,1,.5-1.5,5.3,5.3,0,0,1,3.2-1.6l2.9-.6,1.3-.3,1.8-.3c.8-.3,1.3-.5,1.2-.9a.4.4,0,0,0-.1-.3c-.3-3-.6-4.7-.7-5.4l-.4-1.1a1.6,1.6,0,0,0-1.4-.6l-1.3-.2a84.4,84.4,0,0,0-10.7,1.2,24.2,24.2,0,0,0-10.1,3.9,9.4,9.4,0,0,0-4.1,8.6,24.5,24.5,0,0,0,1.2,4.2c.9,2,1.8,2.9,2.7,2.9v.3a.9.9,0,0,0,.6.6l.9.6.7.3h.4l1,.5c.1.1.1.2.2.2h0l1.9.5,1.9.5a5,5,0,0,1,1.8,1,2.6,2.6,0,0,1,.7,1.5,1.4,1.4,0,0,1-.5,1,6.9,6.9,0,0,1-3.1.8h-1.8a21.6,21.6,0,0,1-7.5-1l-.4.3a.6.6,0,0,0,0,.6v.3l1.7,7.1c.1.2.3.3.7.4a3.4,3.4,0,0,0,1.2.4l3.2.4,1.4.2h.7l8.5-.8a15.3,15.3,0,0,0,4-.9,25.2,25.2,0,0,0,4-2.1,13.1,13.1,0,0,0,5.3-6.7,8.2,8.2,0,0,0,.2-2.8A6.7,6.7,0,0,0,156.2,53.2Z"/><path class="d" d="M188.4,59.7a7.2,7.2,0,0,0-.8-2.9,8.5,8.5,0,0,0-3.6-3.9,27.4,27.4,0,0,0-5.5-2.6l-3.1-1.2c-.4-.2-.6-.3-.7-.5a3.5,3.5,0,0,1-.1-.6,2.1,2.1,0,0,1,.4-1.5,6.4,6.4,0,0,1,3.2-1.7l2.9-.6,1.4-.3,1.7-.3c.9-.3,1.3-.6,1.3-.9s-.1-.3-.2-.3a35.1,35.1,0,0,0-.8-5.4,5.3,5.3,0,0,0-.3-1.1,1.8,1.8,0,0,0-1.5-.6l-1.3-.2a80.6,80.6,0,0,0-10.6,1.3,24.2,24.2,0,0,0-10.1,4,9.1,9.1,0,0,0-4,8.6,24.8,24.8,0,0,0,1.2,4.3c.9,1.9,1.8,2.9,2.8,2.8v.3a.7.7,0,0,0,.6.6l.8.6.7.3c.2,0,.2,0,.2.1h.3a2.9,2.9,0,0,0,1,.5h.2a7.7,7.7,0,0,0,1.9.5l1.9.6a4.4,4.4,0,0,1,1.8.9,2.6,2.6,0,0,1,.7,1.5,1.1,1.1,0,0,1-.5,1,6.5,6.5,0,0,1-3.1.8h-1.8a21.8,21.8,0,0,1-7.5-.8.5.5,0,0,0-.4.2v.9l1.8,7.1c.1.2.3.3.7.4a2.1,2.1,0,0,0,1.2.3,13.4,13.4,0,0,0,3.2.5h2.1l8.5-.8a12.4,12.4,0,0,0,4-1,30.5,30.5,0,0,0,4-2.1,13.3,13.3,0,0,0,5.2-6.7A12.3,12.3,0,0,0,188.4,59.7Z"/></svg>