<svg class="gtp-content__mountains" version="1.1" xmlns="http://www.w3.org/2000/svg" xmlns:xlink="http://www.w3.org/1999/xlink" x="0px" y="0px" viewBox="0 0 400.6 92.7" style="enable-background:new 0 0 400.6 92.7;" xml:space="preserve">
<style type="text/css">
	.st10{fill:#399f9f;}
	.st11{fill:#aedcdd;}
	.st12{fill:#FFFFFF;}
</style>
<polygon class="st10" points="128.7,19.3 58.7,50.7 39.7,58.6 72.7,86.4 123.7,44.3 "></polygon>
<polygon class="st10" points="0.5,50.6 0.5,73.5 21.7,38.6 "></polygon>
<polygon class="st10" points="250.7,0 167.7,48.6 191.7,60 269.7,29.3 "></polygon>
<polygon class="st10" points="376.7,47.1 349.7,60 368.7,75.7 "></polygon>
<polygon class="st11" points="400.6,60.5 376.7,47.1 366.7,66.4 307.7,20 288.7,34.3 250.7,0 229.3,12.5 230.7,30 207.7,36.4
	167.7,48.6 128.7,19.3 106.2,42.1 94.6,42.8 68.7,78.6 20.7,39.3 0,60.8 0,92.7 400.6,92.7 "></polygon>
<polygon class="st10" points="307.7,20 281.4,28.8 290.7,52.1 "></polygon>
<polygon class="st12" points="128.6,25.4 110,45.7 98,46.1 73.7,77.5 145.2,37.8 "></polygon>
<polygon class="st12" points="19.1,45.2 0.5,65.1 0.9,92 29.4,53.5 "></polygon>
<polygon class="st12" points="251.4,4.7 234.9,14.2 235.7,30.8 175.3,49.8 275.6,33.6 277,28.7 "></polygon>
<polygon class="st12" points="310.9,27.5 297.7,51.9 364.2,71.7 "></polygon>
<polygon class="st12" points="378.3,52.7 372.1,66.7 399.8,77.1 399.4,64.7 "></polygon>
</svg>
