<svg viewBox="0 0 1020.6 1063.8" xmlns="http://www.w3.org/2000/svg"><defs><style>.ears-cls-1{fill:var(--light-replacement);}.ears-cls-2{fill:var(--dark-replacement);}</style></defs><path class="ears-cls-2" d="m389.7 180.1c-18.8-18.8-63.1-39.2-79.5-22.8s-1.2 60.2 17.6 79 47.5-7.9 50.5-10.9c16.4-16.4 19.3-37.4 11.4-45.3z"/><path class="ears-cls-1" d="m371.7 166.3c2.9 3.2 3.8 9.3 2.2 16.3-1.8 8.6-6.8 17.2-14 24.4a71.5 71.5 0 0 1 -18.5 13.1c-10.5 5-19.2 4.8-25.9-.5 0 0 2.7 4.7 3.3 5.4 18.2 7.7 40.6-13.3 43.2-15.8 13.4-13.4 17.8-29.8 14.8-39.7z"/><path class="ears-cls-1" d="m345.7 154.4-39.5 43.1 39.5-43.1c-1.9 8.5-6.9 17.1-14.1 24.4a75.9 75.9 0 0 1 -18.4 13 38.8 38.8 0 0 1 -7.8 2.8l.8 2.9c13.5-3.4 25.7-14.8 27.5-16.6 8.2-8.1 13-17.4 14.8-25.6z"/><path class="ears-cls-2" d="m667.4 173.1c18.8-18.8 63.1-39.2 79.5-22.8s1.2 60.2-17.6 79-47.5-7.9-50.5-10.9c-16.4-16.4-19.3-37.4-11.4-45.3z"/><g class="ears-cls-1"><path d="m680.4 162.5c-3.1 9.9 1.4 26.3 14.7 39.7 2.6 2.5 25 23.5 43.2 15.8.6-.7 3.3-5.4 3.3-5.4-6.6 5.3-15.4 5.5-25.9.5a73.7 73.7 0 0 1 -18.5-13.1c-7.2-7.2-12.2-15.8-14-24.4-1.5-7-.7-13.1 2.3-16.3z"/><path d="m711.5 147.4 39.4 43.1-42.3-42.2c1.8 8.2 6.7 17.5 14.8 25.6 1.8 1.8 14 13.2 27.5 16.6l.8-2.9a38 38 0 0 1 -7.7-2.8 75.2 75.2 0 0 1 -18.5-13c-7.2-7.3-12.2-15.9-14-24.4z"/></g></svg>
