<svg id="ears-5" xmlns="http://www.w3.org/2000/svg" viewBox="0 0 1020.6 1063.8"><defs><style>.ears-cls-1{fill:var(--dark-replacement);}.ears-cls-2{fill:none;stroke:var(--light-replacement);stroke-linecap:round;stroke-linejoin:round;stroke-width:8px;}</style></defs><title>ears-1</title><path class="ears-cls-1" d="M819.9,273.1c-15.6,34-47,51.6-70.2,39.3s-32.9-50-21.8-84.4,69.5-66.7,84.1-60.4S835.5,239.1,819.9,273.1Z"/><path class="ears-cls-2" d="M751.9,280.2c9.6-4,8-23.9-5.6-22.3,0,0,8.1-61.2,51.9-69.3"/><path class="ears-cls-1" d="M235.1,273.1c15.6,34,47.1,51.6,70.2,39.3s33-50,21.8-84.4-69.4-66.7-84.1-60.4S219.5,239.1,235.1,273.1Z"/><path class="ears-cls-2" d="M303.1,280.2c-9.5-4-7.9-23.9,5.6-22.3,0,0-8-61.2-51.9-69.3"/></svg>
