<svg id="ears-3" xmlns="http://www.w3.org/2000/svg" viewBox="0 0 1020.6 1063.8"><defs><style>.ears-cls-1{fill:var(--dark-replacement);}</style></defs><title>ears-3-01</title><path class="ears-cls-1" d="M875.5,98.6c-41.4-47.5-53.7,3.1-43,44.5s-15.3,41.4-26,24.5-29.2-13.8-29.2,16.9-5.6,29.2-55.1,39.6h-.7c-4.3,1-5,14.1-1.5,29.3s9.6,26.1,13.9,25.7h.3l.5-.2.4-.2h.2c8.4-3.9,53.7-23.7,117.2-38.9C923,222.8,916.8,146.2,875.5,98.6Z"/><path class="ears-cls-1" d="M177.7,99.6c41.4-47.5,53.7,3.1,43,44.5s15.3,41.4,26,24.5,29.2-13.8,29.2,16.9,5.6,29.2,55.1,39.6h.7c4.3,1,5,14.1,1.4,29.3s-9.5,26.1-13.8,25.7H319l-.5-.2-.4-.2h-.2c-8.4-3.9-53.7-23.7-117.2-38.9C130.2,223.8,136.3,147.2,177.7,99.6Z"/></svg>
