<svg xmlns="http://www.w3.org/2000/svg" viewBox="0 0 1020.6 1063.8"><defs><style>.ears-a{fill:var(--dark-replacement);stroke:var(--dark-replacement);stroke-miterlimit:10;stroke-width:7px;}</style></defs><title>ears-4</title><path class="ears-a" d="M718.5,223.2l1.1.2h.3l8,3.3,73.1.7a5.9,5.9,0,0,0,5.9-5.5l2.9-43.8a5.1,5.1,0,0,1,9.6-2l6.4,11.7-5.9,13.5,14.6,2.6L873,275.4a13.1,13.1,0,0,1-10.2,18.8L734.1,309.4l-14.2,5.9-.7.2h-1c-7.7,0-13.9-20.7-13.8-46.2S710.8,223.2,718.5,223.2Z"/><path class="ears-a" d="M333,223.2l-1.1.2h-.3l-7.9,3.3-73.2.7a5.9,5.9,0,0,1-5.9-5.5l-2.9-43.8a5.1,5.1,0,0,0-9.6-2l-17.2,31.9L213.3,224l-9.4,5.4-7.1,12.1-18.3,33.9a13.1,13.1,0,0,0,10.2,18.8l128.8,15.2,14.2,5.9.7.2h.9c7.7,0,13.9-20.7,13.8-46.2S340.7,223.2,333,223.2Z"/></svg>
