<svg id="ears-4" xmlns="http://www.w3.org/2000/svg" viewBox="0 0 1020.6 1063.8"><defs><style>.ears-cls-1{fill:var(--light-replacement);}.ears-cls-1,.ears-cls-2{stroke:var(--dark-replacement);stroke-miterlimit:10;stroke-width:7px;}.ears-cls-2{fill:none;}</style></defs><title>ears-2</title><path class="ears-cls-1" d="M718.5,223.2l1.1.2h.3l8,3.3,73.1.7a5.9,5.9,0,0,0,5.9-5.5l2.9-43.8a5.1,5.1,0,0,1,9.6-2L873,275.4a13.1,13.1,0,0,1-10.2,18.8L734.1,309.4l-14.2,5.9-.7.2h-1c-7.7,0-13.9-20.7-13.8-46.2S710.8,223.2,718.5,223.2Z"/><line class="ears-cls-2" x1="810.2" y1="215" x2="841.4" y2="218.5"/><line class="ears-cls-2" x1="793.2" y1="227.8" x2="850.6" y2="296.5"/><line class="ears-cls-2" x1="760.6" y1="227.1" x2="770.5" y2="306.5"/><line class="ears-cls-2" x1="716.4" y1="227.1" x2="726.1" y2="313.2"/><path class="ears-cls-1" d="M333,223.2l-1.1.2h-.3l-7.9,3.3-73.2.7a5.9,5.9,0,0,1-5.9-5.5l-2.9-43.8a5.1,5.1,0,0,0-9.6-2l-53.6,99.2a13.1,13.1,0,0,0,10.2,18.8l128.8,15.2,14.2,5.9.7.2h.9c7.7,0,13.9-20.7,13.8-46.2S340.7,223.2,333,223.2Z"/><line class="ears-cls-2" x1="241.3" y1="215" x2="210.1" y2="218.5"/><line class="ears-cls-2" x1="258.3" y1="227.8" x2="200.9" y2="296.5"/><line class="ears-cls-2" x1="290.9" y1="227.1" x2="281" y2="306.5"/><line class="ears-cls-2" x1="335.1" y1="227.1" x2="325.5" y2="313.2"/></svg>
