<svg xmlns="http://www.w3.org/2000/svg" viewBox="0 0 1020.6 1063.8"><defs><style>.eyes-a{fill:var(--dark-replacement);}.eyes-b{fill:#fff;}.eyes-c{fill:var(--light-replacement);}</style></defs><title>eyes-2-null</title><path class="eyes-a" d="M440.7,271.2a4.9,4.9,0,0,1-3.6-1.8,4.6,4.6,0,0,1,.9-6.5,52.7,52.7,0,0,1,62-1.4,4.4,4.4,0,0,1,1.1,6.3,4.5,4.5,0,0,1-6.3,1.2,43.4,43.4,0,0,0-51.3,1.2A4.8,4.8,0,0,1,440.7,271.2Z"/><path class="eyes-a" d="M577.1,271.2a4.9,4.9,0,0,1-3.7-1.8,4.7,4.7,0,0,1,.9-6.5,52.7,52.7,0,0,1,62-1.4,4.5,4.5,0,0,1,1.2,6.3,4.6,4.6,0,0,1-6.4,1.2,43.4,43.4,0,0,0-51.3,1.2A4.7,4.7,0,0,1,577.1,271.2Z"/><path class="eyes-a" d="M505.9,387.5a4.4,4.4,0,0,1-3.6-1.8,4.5,4.5,0,0,1,.8-6.4,52.5,52.5,0,0,1,62-1.5,4.6,4.6,0,1,1-5.2,7.5,43.7,43.7,0,0,0-51.2,1.2A4.4,4.4,0,0,1,505.9,387.5Z"/><path class="eyes-b" d="M534.9,479.4a43.5,43.5,0,1,1,43.5-43.5A43.6,43.6,0,0,1,534.9,479.4Z"/><path class="eyes-a" d="M534.9,397A38.9,38.9,0,1,1,496,435.9,39,39,0,0,1,534.9,397m0-9.2A48.1,48.1,0,1,0,583,435.9a48,48,0,0,0-48.1-48.1Z"/><circle class="eyes-c" cx="534.9" cy="433.1" r="19.8"/><circle class="eyes-a" cx="534.9" cy="433.1" r="10.8"/><polygon class="eyes-b" points="547.5 411.9 533.8 433.6 555.6 419.9 547.5 411.9"/><path class="eyes-b" d="M469.8,363.9a43.5,43.5,0,1,1,43.5-43.5A43.5,43.5,0,0,1,469.8,363.9Z"/><path class="eyes-a" d="M469.8,281.5a39,39,0,1,1-38.9,38.9,38.9,38.9,0,0,1,38.9-38.9m0-9.1a48.1,48.1,0,1,0,48.1,48,48.1,48.1,0,0,0-48.1-48Z"/><circle class="eyes-c" cx="469.8" cy="317.7" r="19.8"/><circle class="eyes-a" cx="469.8" cy="317.7" r="10.8"/><polygon class="eyes-b" points="482.4 296.4 468.7 318.1 490.4 304.4 482.4 296.4"/><path class="eyes-b" d="M606.1,364a43.5,43.5,0,1,1,43.5-43.5A43.5,43.5,0,0,1,606.1,364Z"/><path class="eyes-a" d="M606.1,281.6a39,39,0,1,1-38.9,38.9,38.9,38.9,0,0,1,38.9-38.9m0-9.1a48.1,48.1,0,1,0,48.1,48,48.1,48.1,0,0,0-48.1-48Z"/><circle class="eyes-c" cx="606.1" cy="316.6" r="19.8"/><circle class="eyes-a" cx="606.1" cy="316.6" r="10.8"/><polygon class="eyes-b" points="618.7 295.4 605 317.1 626.7 303.4 618.7 295.4"/></svg>
