<svg xmlns="http://www.w3.org/2000/svg" viewBox="0 0 1020.6 1063.8"><defs><style>.a{fill:#fff;}.b{fill:var(--dark-replacement);}</style></defs><title>eyes-4-sad</title><path class="a" d="M394.9,452.7a51.2,51.2,0,0,1-18.5-99,16,16,0,0,1,4.1-.3c14.9,0,47,6.3,54.8,16.6a52,52,0,0,1,10.8,31.5A51.3,51.3,0,0,1,394.9,452.7Z"/><path class="b" d="M380.5,356c14.1,0,45.5,6.1,52.7,15.6a49.7,49.7,0,0,1,10.3,29.9,48.6,48.6,0,1,1-66.3-45.3,24,24,0,0,1,3.3-.2m0-5.2a15.5,15.5,0,0,0-5.1.5,53.8,53.8,0,1,0,73.3,50.2,55.3,55.3,0,0,0-11.3-33.1c-9-11.9-43.2-17.6-56.9-17.6Z"/><circle class="b" cx="394.9" cy="401.5" r="33.6"/><path class="b" d="M445.2,371.6h-.9c-.4-.1-35.9-10.4-78.7-21.7a3.4,3.4,0,0,1-2.3-4.1,3.2,3.2,0,0,1,4-2.3c42.8,11.4,78.5,21.7,78.8,21.8a3.3,3.3,0,0,1,2.3,4.1A3.3,3.3,0,0,1,445.2,371.6Z"/><path class="a" d="M658,452.7a51.2,51.2,0,0,1-51.2-51.2A52,52,0,0,1,617.6,370c7.7-10.3,39.9-16.6,54.8-16.6a18.1,18.1,0,0,1,4.1.3,51.2,51.2,0,0,1-18.5,99Z"/><path class="b" d="M672.4,350.8V356a19.9,19.9,0,0,1,3.2.2,48.2,48.2,0,0,1,30.9,45.3,48.6,48.6,0,1,1-97.1,0,49.7,49.7,0,0,1,10.3-29.9c7.1-9.5,38.6-15.6,52.7-15.6v-5.2m0,0c-13.7,0-48,5.7-56.9,17.6a54.8,54.8,0,0,0-11.4,33.1,53.9,53.9,0,1,0,73.4-50.2,15.5,15.5,0,0,0-5.1-.5Z"/><circle class="b" cx="658" cy="401.5" r="33.6"/><path class="b" d="M607.7,371.6a3.2,3.2,0,0,1-3.2-2.3,3.3,3.3,0,0,1,2.2-4.1c.4-.1,36-10.4,78.9-21.8a3.3,3.3,0,0,1,4,2.3,3.4,3.4,0,0,1-2.3,4.1c-42.8,11.3-78.4,21.6-78.7,21.7Z"/></svg>