<svg xmlns="http://www.w3.org/2000/svg" viewBox="0 0 1020.6 1063.8"><defs><style>.eyes-a{fill:#fff;}.eyes-b{fill:var(--dark-replacement);}.eyes-c{fill:var(--light-replacement);}</style></defs><title>eyes-3-null</title><path class="eyes-a" d="M443.5,340.8c0,45.6-37.2,116.5-83,116.5s-83-70.9-83-116.5C277.5,339.3,443.5,339.3,443.5,340.8Z"/><path class="eyes-b" d="M371.5,405c0-26.1-2.1-49.2-5.3-62.8-1.9-8.2-11.4-8.3-13.3-.4-3.3,13.6-5.4,36.8-5.4,63.2,0,41.9,5.4,75.8,12,75.8S371.5,446.9,371.5,405Z"/><polygon class="eyes-b" points="475 346.8 216.5 340.3 216.5 339.3 475 334.8 475 346.8"/><ellipse class="eyes-c" cx="351.3" cy="376.5" rx="8.4" ry="9.2" transform="translate(-112.6 600) rotate(-72.7)"/><path class="eyes-a" d="M595,340.8c0,45.6,37.2,116.5,83,116.5s83-70.9,83-116.5C761,339.3,595,339.3,595,340.8Z"/><path class="eyes-b" d="M667,405c0-26.1,2.1-49.2,5.3-62.8,1.9-8.2,11.4-8.3,13.3-.4,3.3,13.6,5.4,36.8,5.4,63.2,0,41.9-5.4,75.8-12,75.8S667,446.9,667,405Z"/><polygon class="eyes-b" points="563.5 346.8 822 340.3 822 339.3 563.5 334.8 563.5 346.8"/><ellipse class="eyes-c" cx="687.2" cy="376.5" rx="9.2" ry="8.4" transform="matrix(0.95, -0.3, 0.3, 0.95, -80.85, 221.29)"/></svg>
