<svg xmlns="http://www.w3.org/2000/svg" viewBox="0 0 1020.6 1063.8"><defs><style>.eyes-a{fill:#fff;}.eyes-b{fill:var(--dark-replacement);}.eyes-c{fill:var(--light-replacement);}</style></defs><title>eyes-3-happy</title><path class="eyes-a" d="M443.7,340.9c0,45.6-37.2,116.5-83,116.5s-83-70.9-83-116.5C277.7,339.4,443.7,339.4,443.7,340.9Z"/><path class="eyes-b" d="M371.7,405.1c0-26.1-2.1-49.2-5.3-62.8-2-8.2-11.5-8.3-13.4-.4-3.2,13.6-5.3,36.9-5.3,63.2,0,41.9,5.3,75.8,12,75.8S371.7,447,371.7,405.1Z"/><polygon class="eyes-b" points="472.7 315.1 220.5 372 220.2 371.1 469.8 303.5 472.7 315.1"/><ellipse class="eyes-c" cx="351.4" cy="376.6" rx="8.4" ry="9.2" transform="matrix(0.3, -0.95, 0.95, 0.3, -112.64, 600.2)"/><path class="eyes-a" d="M595.2,340.9c0,45.6,37.1,116.5,83,116.5s83-70.9,83-116.5C761.2,339.4,595.2,339.4,595.2,340.9Z"/><path class="eyes-b" d="M667.2,405.1c0-26.1,2-49.2,5.2-62.8,2-8.2,11.5-8.3,13.4-.4,3.2,13.6,5.4,36.9,5.4,63.2,0,41.9-5.4,75.8-12,75.8S667.2,447,667.2,405.1Z"/><polygon class="eyes-b" points="564.7 323.1 820.1 364.1 820.2 363.1 566.9 311.3 564.7 323.1"/><ellipse class="eyes-c" cx="687.4" cy="376.6" rx="9.2" ry="8.4" transform="translate(-80.9 221.3) rotate(-17.3)"/></svg>
