<svg xmlns="http://www.w3.org/2000/svg" viewBox="0 0 1020.6 1063.8"><defs><style>.a{fill:#fff;}.b{fill:var(--dark-replacement);}.c{fill:var(--light-replacement);}</style></defs><title>eyes-1-happy</title><circle class="a" cx="537.2" cy="398.9" r="99" transform="translate(-36.9 742.5) rotate(-67.5)"/><path class="b" d="M537.2,303.9a95,95,0,1,1-95,95,95.1,95.1,0,0,1,95-95m0-8a103,103,0,1,0,103,103,103,103,0,0,0-103-103Z"/><circle class="c" cx="537.2" cy="395" r="70.8"/><circle class="b" cx="537.2" cy="395" r="38.6"/><path class="b" d="M434.8,410.8a103,103,0,0,0,204.7-.1C639.7,408.8,589,395,538,395S434.6,408.9,434.8,410.8Z"/><path class="b" d="M624.6,234.6c-4.2-4.3-10.6-5.5-17.5-4.1,1.4-13.3-2-24.2-10-27.8s-20.9,2.3-30.5,14.6c-7.2-23.1-24.1-38.5-39.6-35-11.3,2.5-19,14.4-21,30-13.9-10.6-30-13.1-40.2-5.1-7.6,6-10.2,16.7-8.1,28.5-7.6-1.2-14.5.5-18.6,5.4-7.7,9.1-2.9,25.7,10.7,37.1s30.7,13.3,38.4,4.2a17.6,17.6,0,0,0,2.3-3.7c11.5,5.8,23.4,6.1,31.5-.3a20.9,20.9,0,0,0,5.4-6.4c6.6,5.3,14,7.6,21.1,6a19.2,19.2,0,0,0,6.6-2.7,16.1,16.1,0,0,0,6.6,6.1c5,2.2,10.9,1.2,16.9-2.2l.7.8c8.4,8.4,25.4,5,37.9-7.5S633.1,243,624.6,234.6Z"/></svg>