<svg xmlns="http://www.w3.org/2000/svg" viewBox="0 0 1020.6 1063.8"><defs><style>.a{fill:#fff;}.b{fill:var(--dark-replacement);}.c{fill:var(--light-replacement);}</style></defs><title>eyes-5-happy</title><circle class="a" cx="413" cy="400.5" r="60.8"/><path class="b" d="M413,342.9a57.6,57.6,0,1,1-57.6,57.6A57.7,57.7,0,0,1,413,342.9m0-6.4a64,64,0,1,0,64,64,64.1,64.1,0,0,0-64-64Z"/><circle class="c" cx="413" cy="398.1" r="26.4"/><circle class="b" cx="413" cy="398.1" r="14.4"/><polygon class="b" points="348.6 356.5 336.6 327.7 359.4 340.9 348.6 356.5"/><polygon class="b" points="377.5 334.6 371.4 309.2 392.7 326.7 377.5 334.6"/><polygon class="b" points="435 333.2 436.8 307.1 418.7 327.9 435 333.2"/><polygon class="b" points="461.6 344.2 492.6 341.1 473.4 359.1 461.6 344.2"/><path class="b" d="M349.4,407.9a64,64,0,0,0,127.2,0C476.9,405.5,349.2,405.5,349.4,407.9Z"/><circle class="a" cx="640.2" cy="400.5" r="60.8"/><path class="b" d="M640.2,342.9a57.6,57.6,0,1,1-57.6,57.6,57.7,57.7,0,0,1,57.6-57.6m0-6.4a64,64,0,1,0,64,64,64,64,0,0,0-64-64Z"/><circle class="c" cx="640.2" cy="398.1" r="26.4"/><circle class="b" cx="640.2" cy="398.1" r="14.4"/><polygon class="b" points="575.8 356.5 563.8 327.7 586.6 340.9 575.8 356.5"/><polygon class="b" points="604.6 334.6 598.6 309.2 619.8 326.7 604.6 334.6"/><polygon class="b" points="662.1 333.2 664 307.1 645.8 327.9 662.1 333.2"/><polygon class="b" points="688.7 344.2 719.8 341.1 700.5 359.1 688.7 344.2"/><path class="b" d="M576.6,407.9a64,64,0,0,0,127.1,0C704,405.5,576.3,405.5,576.6,407.9Z"/></svg>