<svg xmlns="http://www.w3.org/2000/svg" viewBox="0 0 1020.6 1063.8"><defs><style>.eyes-a{fill:#fff;}.eyes-b{fill:var(--dark-replacement);}.eyes-c{fill:none;stroke:var(--dark-replacement);stroke-linecap:round;stroke-miterlimit:10;stroke-width:5.24px;}</style></defs><title>eyes-4-happy</title><path class="eyes-a" d="M342.6,404.5a50.7,50.7,0,0,1-.3-5.5,52.4,52.4,0,1,1,104.8,0,14.1,14.1,0,0,1-.1,2c-8.9-1.1-21.6-1.6-36.1-1.6C387.6,399.4,358.2,401,342.6,404.5Z"/><path class="eyes-b" d="M394.7,349.2a49.9,49.9,0,0,1,49.8,48.9c-8.9-.9-20.5-1.4-33.6-1.4-22.1,0-49.5,1.5-66,4.6V399a49.8,49.8,0,0,1,49.8-49.8m0-5.3A55.1,55.1,0,0,0,339.6,399a52.4,52.4,0,0,0,.8,8.8c13.6-3.8,43.7-5.8,70.5-5.8,15.1,0,29.2.6,38.6,2,.1-1.7.2-3.4.2-5a55.1,55.1,0,0,0-55-55.1Z"/><path class="eyes-c" d="M342,404.8s41-11.4,118.4-2.1"/><path class="eyes-c" d="M460.7,402.7s4.2,5.8-6.1,21.4"/><path class="eyes-b" d="M324.7,341.8a3.2,3.2,0,0,1-1.4-.3,3.3,3.3,0,0,1-1.5-4.4c.3-.7,9.2-18.6,33.7-20a3.3,3.3,0,1,1,.4,6.5c-20.7,1.2-28.2,16.2-28.2,16.4A3.5,3.5,0,0,1,324.7,341.8Z"/><path class="eyes-a" d="M709.1,404.5c-15.6-3.5-45-5.1-68.3-5.1-14.5,0-27.2.5-36.1,1.6a14.1,14.1,0,0,1-.1-2,52.4,52.4,0,1,1,104.8,0A50.7,50.7,0,0,1,709.1,404.5Z"/><path class="eyes-b" d="M657,349.2A49.8,49.8,0,0,1,706.8,399a18.5,18.5,0,0,1-.1,2.3c-16.4-3.1-43.8-4.6-65.9-4.6-13.1,0-24.7.5-33.6,1.4A49.9,49.9,0,0,1,657,349.2m0-5.3A55.1,55.1,0,0,0,602,399c0,1.6.1,3.3.2,5,9.4-1.4,23.5-2,38.6-2,26.8,0,56.9,2,70.5,5.8a52.2,52.2,0,0,0,.7-8.8,55.1,55.1,0,0,0-55-55.1Z"/><path class="eyes-c" d="M709.7,404.8s-41-11.4-118.4-2.1"/><path class="eyes-c" d="M591,402.7s-4.2,5.8,6.1,21.4"/><path class="eyes-b" d="M724.2,341.8a3.4,3.4,0,0,1-3-1.8c-.3-.7-7.7-15.2-28.2-16.4a3.3,3.3,0,0,1,.3-6.5c24.5,1.4,33.4,19.3,33.8,20a3.3,3.3,0,0,1-1.5,4.4Z"/><path class="eyes-b" d="M428.4,400a33.6,33.6,0,0,0-67.1,1.5Z"/><path class="eyes-b" d="M624.5,399.4a33.6,33.6,0,0,1,67-.1Z"/></svg>
