<svg xmlns="http://www.w3.org/2000/svg" viewBox="0 0 1020.6 1063.8"><defs><style>.a{fill:#fff;}.b{fill:var(--dark-replacement);}.c{fill:var(--light-replacement);}</style></defs><title>eyes-3-sad</title><path class="a" d="M443.6,341.4c0,45.6-37.2,116.5-83,116.5s-83-70.9-83-116.5C277.6,339.9,443.6,339.9,443.6,341.4Z"/><path class="b" d="M371.6,414.7c0-26.2-2.1-49.3-5.3-62.9-1.9-8.1-11.4-8.3-13.3-.3-3.3,13.5-5.4,36.8-5.4,63.2,0,41.8,5.4,75.7,12,75.7S371.6,456.5,371.6,414.7Z"/><polygon class="b" points="471.2 373.4 219.4 314.9 219.6 313.9 473.7 361.6 471.2 373.4"/><ellipse class="c" cx="351.4" cy="386.1" rx="8.4" ry="9.2" transform="translate(-121.8 606.9) rotate(-72.7)"/><path class="a" d="M595.1,341.4c0,45.6,37.2,116.5,83,116.5s83-70.9,83-116.5C761.1,339.9,595.1,339.9,595.1,341.4Z"/><path class="b" d="M667.1,414.7c0-26.2,2.1-49.3,5.3-62.9,1.9-8.1,11.4-8.3,13.3-.3,3.3,13.5,5.4,36.8,5.4,63.2,0,41.8-5.4,75.7-12,75.7S667.1,456.5,667.1,414.7Z"/><polygon class="b" points="567.9 374.9 819 313.3 818.8 312.3 565.3 363.2 567.9 374.9"/><ellipse class="c" cx="687.3" cy="386.1" rx="9.2" ry="8.4" transform="translate(-83.7 221.8) rotate(-17.3)"/></svg>