<svg xmlns="http://www.w3.org/2000/svg" viewBox="0 0 1020.6 1063.8"><defs><style>.eyes-a{fill:#fff;}.eyes-b{fill:var(--dark-replacement);}</style></defs><title>eyes-4-null</title><path class="eyes-a" d="M394.3,453a51.5,51.5,0,1,1,51.5-51.5A51.6,51.6,0,0,1,394.3,453Z"/><path class="eyes-b" d="M394.3,352.6a48.9,48.9,0,1,1-48.9,48.9,49,49,0,0,1,48.9-48.9m0-5.3a54.2,54.2,0,1,0,54.1,54.2,54.2,54.2,0,0,0-54.1-54.2Z"/><circle class="eyes-b" cx="394.3" cy="401.5" r="33.8"/><path class="eyes-a" d="M658.6,453a51.5,51.5,0,1,1,51.6-51.5A51.6,51.6,0,0,1,658.6,453Z"/><path class="eyes-b" d="M658.6,352.6a48.9,48.9,0,1,1-48.8,48.9,49,49,0,0,1,48.8-48.9m0-5.3a54.2,54.2,0,1,0,54.2,54.2,54.2,54.2,0,0,0-54.2-54.2Z"/><circle class="eyes-b" cx="658.6" cy="401.5" r="33.8"/><path class="eyes-b" d="M424.3,330.2H364.6a3.4,3.4,0,0,1,0-6.7h59.7a3.4,3.4,0,0,1,0,6.7Z"/><path class="eyes-b" d="M686.8,330.2H627.1a3.4,3.4,0,0,1,0-6.7h59.7a3.4,3.4,0,0,1,0,6.7Z"/></svg>
