<svg xmlns="http://www.w3.org/2000/svg" viewBox="0 0 1020.6 1063.8"><defs><style>.monster-a{fill:var(--light-replacement);}</style></defs><title>monster-5</title><path class="monster-a" d="M786.8,761.5a131.3,131.3,0,0,1-19.9-69.1l5.9-448c1.4-118.1-121.7-86.7-177.3-84.2-46.9,2-161.7-.4-196.2-1.2a87.2,87.2,0,0,1-17.6-2.1c-54.6-12.2-107.2,8.5-107.2,61.5v474a131.3,131.3,0,0,1-19.9,69.1l-87,139.7S285.3,1093.4,534,1055.4c181.8-27.8,298.5-220.7,298.5-220.7ZM222.6,961.4l-9.9-9.5V929.6a5,5,0,0,1,5-5,4.9,4.9,0,0,1,4.9,5Zm20.9-36.6a4.9,4.9,0,0,1-4.9,4.9,5,5,0,0,1-5-4.9V880.4a5,5,0,0,1,5-4.9,4.9,4.9,0,0,1,4.9,4.9ZM760.7,806.4a7.6,7.6,0,0,1-15.2,0V737.6a7.6,7.6,0,0,1,15.2,0Z"/></svg>
