<svg xmlns="http://www.w3.org/2000/svg" viewBox="0 0 1020.6 1063.8"><defs><style>.monster-a{fill:var(--light-replacement);}</style></defs><title>monster-4</title><path class="monster-a" d="M768.6,577.6c.3-105.5.5-212.9.5-218.2C769.1,225,660.1,116,525.6,116S282.2,225,282.2,359.4c0,4.3.3,113,.6,218.7A349.5,349.5,0,0,1,142.6,859.2s32.6,69.3,99.4,123.1c214.8,166.7,494.8,51.9,607.9-179C800.5,780.3,768.3,661.3,768.6,577.6ZM308.5,894.5c-12.5,0-22.6-9.6-22.6-21.5s10.1-21.6,22.6-21.6,22.6,9.7,22.6,21.6S321,894.5,308.5,894.5Zm41,17.6a10.4,10.4,0,0,1-14.1,4.1,10.7,10.7,0,0,1,10.7-18.4A10.4,10.4,0,0,1,349.5,912.1Zm4.4-66.9a9,9,0,1,1-3.1-12.7A9.2,9.2,0,0,1,353.9,845.2Zm328-318.9a9.5,9.5,0,1,1,12.5-3.7A9.3,9.3,0,0,1,681.9,526.3ZM710,566.5c-12.5,0-22.7-9.6-22.7-21.5s10.2-21.6,22.7-21.6,22.6,9.7,22.6,21.6S722.5,566.5,710,566.5Z"/></svg>
