<svg xmlns="http://www.w3.org/2000/svg" viewBox="0 0 1020.6 1063.8"><defs><style>.monster-a{fill:var(--light-replacement);}</style></defs><title>monster-2</title><path class="monster-a" d="M844.3,598.9c.1.1.2.2.2.3S844.7,599.1,844.3,598.9Z"/><path class="monster-a" d="M765.7,764.1l2.2-39.3,42.2,32.9L798.5,644.2l43.4,18.3-28.2-73.3s27.3,8.3,30.6,9.7c-43.6-45.5-58.7-210.1-58.7-210.1l63.6-2-64.5-60,31.7-15.9-67.5-57.5,47.7-33.8-96-27.8L742,169.6l-62.8-17,22.5-8.1L497.3,103.4,325.5,142.2l39.5.9-72.9,50.1,42.4-1.4-92.5,95,47.6-.9-74.8,71.9,43.6,15.9-65.8,60.5s42.5,6,42,3.7c36.7,64.3-26.5,220.2-26.5,220.2l29.3-34.3L217.1,739.5l65-50.7-6,52.8a63.1,63.1,0,0,1-13.5,32.9c-22.6,27.9-65.7,44.3-147.8,12.2,75.3,301.9,504.8,410.7,730.1,27.8-1.1-.5-33.7-.7-62.6-18.6A35.2,35.2,0,0,1,765.7,764.1Z"/></svg>
