<svg xmlns="http://www.w3.org/2000/svg" viewBox="0 0 1020.6 1063.8"><defs><style>.monster-a{fill:var(--light-replacement);}</style></defs><title>monster-3</title><path class="monster-a" d="M402.1,1055.4c-1.2-3.3.2-151.9.2-151.9,0-80-32.1-156.5-89.1-211.2a319.1,319.1,0,0,1-38.4-414c5.7-8,2.1-16.6,18.2-23.2,9.5-3.9,13.9-15.4,21.4-22.5,57.3-54.5,134.7-87.1,219.4-84.2,41.2,1.5,84.9,2.4,120.5,18.8,53.7,24.9,98,67.4,128.7,119.7,4.4,7.5,4.1,20.4,12.3,23,13.7,4.3,7.7,16.6,11.1,25.2a352.4,352.4,0,0,1,24,127.6c0,88.1-35.4,167.6-92.3,224.7-54.1,54.3-84,129-84,206.6h0a46.2,46.2,0,0,0,3.8,18.3c2.2,5.2,4.6,12.5,4.6,19.6,0,8.6-3.4,18.8-5.9,25a33.8,33.8,0,0,0-2.5,13c0,2.9-.3,41.7,0,41.1C622.3,1030.8,522.8,1076.7,402.1,1055.4Z"/></svg>
