<svg id="mouth-2-null" xmlns="http://www.w3.org/2000/svg" viewBox="0 0 1020.6 1063.8"><defs><style>.mouth-cls-1{fill:#fff;}.mouth-cls-2{fill:var(--dark-replacement);}</style></defs><title>mouth-2-null</title><path class="mouth-cls-1" d="M473.6,747.1c0-33.5,12-60.6,26.8-60.6s26.9,27.1,26.9,60.6Z"/><path class="mouth-cls-1" d="M578.6,746.1c0-22.2-9.5-40.1-21.2-40.1s-21.2,17.9-21.2,40.1Z"/><path class="mouth-cls-1" d="M457.9,748.1c0-15.7-6.7-28.4-15-28.4s-15,12.7-15,28.4Z"/><path class="mouth-cls-1" d="M611.7,748.1c0-12.1-5.2-22-11.7-22s-11.6,9.9-11.6,22Z"/><path class="mouth-cls-2" d="M633.7,757.6H417a6,6,0,1,1,0-12H633.7a6,6,0,0,1,0,12Z"/></svg>
