<svg id="mouth-3-sad" xmlns="http://www.w3.org/2000/svg" viewBox="0 0 1020.6 1063.8"><defs><style>.cls-1{fill:#fff;}.cls-2{fill:var(--dark-replacement);}</style></defs><title>mouth-3-sad</title><polygon class="cls-1" points="476.3 798.7 456.1 757.6 499.6 748.2 476.3 798.7"/><polygon class="cls-1" points="596.8 799.7 596.8 799.7 572.4 749.2 617.7 758.6 596.8 799.7"/><path class="cls-2" d="M503.2,769.8a46.5,46.5,0,0,1,4.3-2.9l4.3-2.1a60.4,60.4,0,0,1,8.7-3.1,67,67,0,0,1,17.2-2.1,67.6,67.6,0,0,1,17.2,2.2,58.7,58.7,0,0,1,8.6,3,34.2,34.2,0,0,1,4.3,2.1,29.5,29.5,0,0,1,4.3,2.9l.3.2a.6.6,0,0,1-.3,1l-8.6.3h-8.6l-17.2.2-17.2-.2h-8.7l-8.6-.3a.6.6,0,0,1-.5-.6.5.5,0,0,1,.2-.4Z"/><path class="cls-2" d="M425.8,767.6c2.1-1.2,4.2-2.2,6.3-3.3l6.4-3.1c4.3-2,8.6-3.8,13-5.7,8.6-3.6,17.4-7,26.2-10.1l6.6-2.4,6.6-2.2,13.3-4.3,13.4-4,13.5-3.7,2.7-.8,2.8.8,13.6,3.7,13.5,4,13.4,4.3,6.7,2.2,6.6,2.4c8.9,3.1,17.7,6.5,26.5,10.1,4.3,1.9,8.7,3.7,13,5.7l6.5,3.1,6.4,3.3h.1a.5.5,0,0,1,.2.8.5.5,0,0,1-.6.2l-27.3-6.9L588,754.6l-54.5-14.2h.7l-54,14.2-27.1,7.2-27,6.9c-.3.1-.7-.1-.7-.4a.4.4,0,0,1,.3-.6Z"/></svg>