<svg id="mouth-1-happy" xmlns="http://www.w3.org/2000/svg" viewBox="0 0 1020.6 1063.8"><defs><style>.cls-1{fill:var(--light-replacement);stroke:var(--dark-replacement);stroke-linecap:round;stroke-miterlimit:10;stroke-width:12px;opacity:0.99;}.cls-2{fill:#fff;}.cls-3{fill:var(--dark-replacement);}</style></defs><title>mouth-1-happy</title><path class="cls-1" d="M427,697.2H639.3a9.7,9.7,0,0,1,9.7,9.7v16.7A115.2,115.2,0,0,1,533.8,838.9h-1.3A115.2,115.2,0,0,1,417.3,723.6V706.9a9.7,9.7,0,0,1,9.7-9.7Z"/><path class="cls-2" d="M446.6,703.5h47.6a0,0,0,0,1,0,0v27.2a23.2,23.2,0,0,1-23.2,23.2h0a24.3,24.3,0,0,1-24.3-24.3V703.5A0,0,0,0,1,446.6,703.5Z"/><path class="cls-2" d="M567.1,703.5h47.6a0,0,0,0,1,0,0v27.2a23.2,23.2,0,0,1-23.2,23.2h0a24.3,24.3,0,0,1-24.3-24.3V703.5A0,0,0,0,1,567.1,703.5Z"/><path class="cls-3" d="M534.6,790.6c-33.3,0-60.8,12.7-65.4,29.3a114.3,114.3,0,0,0,63.3,19h1.3a114.7,114.7,0,0,0,65.8-20.6C593.7,802.5,566.8,790.6,534.6,790.6Z"/></svg>