<svg id="mouth-3-null" xmlns="http://www.w3.org/2000/svg" viewBox="0 0 1020.6 1063.8"><defs><style>.mouth-cls-1{fill:#fff;}.mouth-cls-2{fill:var(--dark-replacement);}</style></defs><title>mouth-3-null</title><polygon class="mouth-cls-1" points="477.7 802.7 453.4 752.2 501 752.2 477.7 802.7"/><polygon class="mouth-cls-1" points="598.2 802.7 598.2 802.7 573.8 752.2 621.4 752.2 598.2 802.7"/><path class="mouth-cls-2" d="M427.5,755.6c18.1-4.3,36.1-6.5,54.2-8.1s36.1-2.1,54.2-2.1,36.1.7,54.1,2.2,36.1,3.7,54.2,8h.1a.8.8,0,0,1,.5.7.6.6,0,0,1-.6.5l-27.1.3H590l-54.1.2-54.2-.2H454.6l-27.1-.3a.6.6,0,0,1-.6-.6.6.6,0,0,1,.5-.6Z"/><path class="mouth-cls-2" d="M502.2,779.7a44.6,44.6,0,0,1,4.3-2.8l4.4-2.2a54.8,54.8,0,0,1,8.6-3,65.4,65.4,0,0,1,43,3l4.3,2.2a28.7,28.7,0,0,1,4.3,2.8l.4.3c.2.1.2.5.1.7s-.3.2-.5.2l-8.6.3-8.6.2H519.5l-8.6-.2-8.7-.3a.5.5,0,0,1-.5-.5.5.5,0,0,1,.2-.4Z"/></svg>
