<svg id="mouth-3-happy" xmlns="http://www.w3.org/2000/svg" viewBox="0 0 1020.6 1063.8"><defs><style>.cls-1{fill:#fff;}.cls-2{fill:var(--dark-replacement);}</style></defs><title>mouth-3-happy</title><polygon class="cls-1" points="478.6 793.7 450.7 735.7 501.9 743.2 478.6 793.7"/><polygon class="cls-1" points="599.1 794.7 599.1 794.7 574.8 744.2 630 731.9 599.1 794.7"/><path class="cls-2" d="M505.6,784.8a29.5,29.5,0,0,1,4.3-2.9,34.2,34.2,0,0,1,4.3-2.1,55.3,55.3,0,0,1,8.6-3.1,69.9,69.9,0,0,1,34.4.1,54.8,54.8,0,0,1,8.6,3,43.9,43.9,0,0,1,4.4,2.1,46.5,46.5,0,0,1,4.3,2.9l.3.2a.8.8,0,0,1,.1.8l-.4.2-8.7.3h-8.6l-17.2.2-17.2-.2h-8.6l-8.6-.3a.6.6,0,0,1-.6-.6.5.5,0,0,1,.2-.4Z"/><path class="cls-2" d="M645.1,725.8l-6.4,3.3-6.4,3c-4.2,2.1-8.6,3.9-12.9,5.7-8.7,3.7-17.4,7-26.2,10.2l-6.6,2.3-6.6,2.3c-4.4,1.5-8.9,2.8-13.3,4.2l-13.4,4-13.5,3.8-2.8.8-2.8-.8-13.5-3.8-13.5-4c-4.5-1.4-9-2.7-13.4-4.2l-6.7-2.3-6.7-2.3c-8.8-3.2-17.7-6.5-26.4-10.1-4.4-1.9-8.7-3.7-13-5.8l-6.5-3c-2.1-1.1-4.3-2.1-6.4-3.3H428a.7.7,0,0,1-.3-.8,1.1,1.1,0,0,1,.7-.3l27.3,7,27.2,7.1L537.3,753h-.6l54-14.3,27-7.1,27.1-7a.6.6,0,0,1,.7.4.6.6,0,0,1-.3.7Z"/></svg>