<svg id="mouth-1-null" xmlns="http://www.w3.org/2000/svg" viewBox="0 0 1020.6 1063.8"><defs><style>.mouth-cls-1{fill:#fff;}.mouth-cls-2{fill:var(--dark-replacement);}</style></defs><title>mouth-1-null-01</title><path class="mouth-cls-1" d="M447,703.4h47.6a0,0,0,0,1,0,0v27.2a23.2,23.2,0,0,1-23.2,23.2h0A24.3,24.3,0,0,1,447,729.5V703.4A0,0,0,0,1,447,703.4Z"/><path class="mouth-cls-1" d="M567.4,703.4H615a0,0,0,0,1,0,0v27.2a23.2,23.2,0,0,1-23.2,23.2h0a24.3,24.3,0,0,1-24.3-24.3V703.4a0,0,0,0,1,0,0Z"/><path class="mouth-cls-2" d="M640.6,703.5H424a6,6,0,0,1,0-12H640.6a6,6,0,0,1,0,12Z"/></svg>
