<svg xmlns="http://www.w3.org/2000/svg" xmlns:xlink="http://www.w3.org/1999/xlink" viewBox="0 0 1020.6 1063.8"><defs><style>.a{fill:none;}.b{fill:var(--dark-replacement);}.c{clip-path:url(#a);}.d{fill:#fff;}</style><clipPath id="a"><path class="a" d="M458.6,810.1a43.5,43.5,0,0,1-29.1-75.8,155.5,155.5,0,0,1,207.3-1,43.5,43.5,0,0,1-57.7,65.1,68.6,68.6,0,0,0-91.3.4A43.3,43.3,0,0,1,458.6,810.1Z"/></clipPath></defs><title>mouth-4-sad</title><path class="b" d="M458.6,810.1a43.5,43.5,0,0,1-29.1-75.8,155.5,155.5,0,0,1,207.3-1,43.5,43.5,0,0,1-57.7,65.1,68.6,68.6,0,0,0-91.3.4A43.3,43.3,0,0,1,458.6,810.1Z"/><g class="c"><path class="d" d="M513.1,786.5l-9.7-20.4a1.9,1.9,0,0,0-2.5-1l-18.3,7.3a1.7,1.7,0,0,0-1,2.1s6.6,24.5,6.7,24.6C495.8,796.6,509.7,788.5,513.1,786.5Z"/><path class="d" d="M560,792.8l-1.2-22.5a2.1,2.1,0,0,0-2-1.9H537.2a1.8,1.8,0,0,0-1.8,1.6s-3.1,25.2-3.1,25.3C540.2,795.8,556.2,793.5,560,792.8Z"/><path class="d" d="M484.9,701.8l6.2,18.8a10.3,10.3,0,0,0,9.7,6.9c13.9-.2,44.3-.7,64.7-2.9a11,11,0,0,0,9.9-11.3l-.3-14.6S536.4,687,484.9,701.8Z"/><path class="d" d="M450.8,718l9.6,20.4a2,2,0,0,0,2.6,1l18.2-7.3a1.7,1.7,0,0,0,1.1-2.1s-6.6-24.5-6.7-24.6C468.1,707.9,454.2,716,450.8,718Z"/></g></svg>