<svg id="mouth-5-sad" xmlns="http://www.w3.org/2000/svg" viewBox="0 0 1020.6 1063.8"><defs><style>.cls-1{fill:none;stroke:#5e5e5e;stroke-linecap:round;stroke-miterlimit:10;stroke-width:87px;}.cls-2{fill:var(--light-replacement);}</style></defs><title>mouth-5-sad-01</title><path class="cls-1" d="M470.8,768.7a112.2,112.2,0,0,1,149.3-.7"/><path class="cls-2" d="M470.8,774.7a5.9,5.9,0,0,1-4.4-2,5.9,5.9,0,0,1,.4-8.5,118.2,118.2,0,0,1,157.3-.7,6,6,0,0,1,.5,8.5,5.9,5.9,0,0,1-8.4.5,106.2,106.2,0,0,0-141.4.7A6,6,0,0,1,470.8,774.7Z"/></svg>