<svg xmlns="http://www.w3.org/2000/svg" viewBox="0 0 1020.6 1063.8"><defs><style>.a{fill:#fff;}.b{fill:var(--dark-replacement);}</style></defs><title>mouth-2-sad-01</title><path class="a" d="M473.4,746.4c-6.9-32.7-.7-61.8,13.8-64.9s31.9,21.1,38.8,53.9Z"/><path class="a" d="M586.8,751.9c6.9-21.1,3.5-41.1-7.6-44.8s-25.7,10.5-32.7,31.5Z"/><path class="a" d="M460.5,759.2c-9-12.8-21.8-19.4-28.6-14.6s-5,19,4.1,31.9Z"/><path class="a" d="M616.8,778.6c7.3-9.7,9.1-20.7,3.9-24.6s-15.2.9-22.5,10.6Z"/><path class="b" d="M418.7,826.3a5.7,5.7,0,0,1-1.8-.3,6,6,0,0,1-3.9-7.5,118.1,118.1,0,0,1,224.7-1.2,6.1,6.1,0,0,1-3.8,7.6,6,6,0,0,1-7.6-3.9,106.1,106.1,0,0,0-164-52,107.6,107.6,0,0,0-37.9,53.1A5.9,5.9,0,0,1,418.7,826.3Z"/></svg>