<svg xmlns="http://www.w3.org/2000/svg" xmlns:xlink="http://www.w3.org/1999/xlink" viewBox="0 0 1020.6 1063.8"><defs><style>.mouth-a{fill:none;}.mouth-b{fill:var(--dark-replacement);}.mouth-c{clip-path:url(#a);}.mouth-d{fill:#fff;}</style><clipPath id="a"><path class="mouth-a" d="M607.6,694.2A43.5,43.5,0,0,1,636.7,770a155.3,155.3,0,0,1-207.3.9,43.5,43.5,0,1,1,57.7-65.1,68.3,68.3,0,0,0,91.3-.4A43.7,43.7,0,0,1,607.6,694.2Z"/></clipPath></defs><title>mouth-4-happy</title><path class="mouth-b" d="M607.6,694.2A43.5,43.5,0,0,1,636.7,770a155.3,155.3,0,0,1-207.3.9,43.5,43.5,0,1,1,57.7-65.1,68.3,68.3,0,0,0,91.3-.4A43.7,43.7,0,0,1,607.6,694.2Z"/><g class="mouth-c"><path class="mouth-d" d="M502.3,817.5c0-.1,11.2-19.5,11.2-19.5a2,2,0,0,0-.6-2.7l-16.4-10.8a1.7,1.7,0,0,0-2.3.3l-16.4,19.5C484.1,809.1,498.7,815.9,502.3,817.5Z"/><path class="mouth-d" d="M559.7,812.8l-1.2-22.5a2.1,2.1,0,0,0-2-1.9H536.8a1.8,1.8,0,0,0-1.8,1.6s-3.1,25.2-3,25.3C539.9,815.8,555.8,813.5,559.7,812.8Z"/><path class="mouth-d" d="M487.5,699.8l6.3,28.8a10.2,10.2,0,0,0,9.6,6.9c13.9-.2,44.4-.7,64.8-2.9a11.1,11.1,0,0,0,9.9-11.3l-.4-24.6S539.1,685,487.5,699.8Z"/><path class="mouth-d" d="M452.9,692.3c0,.1-.9,22.5-.9,22.5a2,2,0,0,0,1.8,2.1l19.5,2a1.8,1.8,0,0,0,1.9-1.4s5.6-24.8,5.6-24.9C473,691.3,456.8,692,452.9,692.3Z"/></g></svg>
