<svg id="mouth-2-happy" xmlns="http://www.w3.org/2000/svg" viewBox="0 0 1020.6 1063.8"><defs><style>.mouth-cls-1{fill:#fff;}.mouth-cls-2{fill:var(--dark-replacement);}</style></defs><title>mouth-2-happy</title><path class="mouth-cls-1" d="M472.3,793.1c4.8-33.2,20.6-58.3,35.3-56.2s22.7,30.8,17.8,64Z"/><path class="mouth-cls-1" d="M586.5,780.5c-10.4-19.5-27.2-30.9-37.6-25.4s-10.2,25.8.2,45.4Z"/><path class="mouth-cls-1" d="M452.7,773c11.7-10.4,16.8-23.9,11.3-30.1s-19.5-2.8-31.2,7.6Z"/><path class="mouth-cls-1" d="M610.7,753.5c-10.7-5.9-21.8-6.1-24.9-.5s3,14.9,13.6,20.8Z"/><path class="mouth-cls-2" d="M525.2,808.8A117.8,117.8,0,0,1,413,727.6a6.1,6.1,0,0,1,3.9-7.6,6,6,0,0,1,7.5,3.9,106.1,106.1,0,0,0,164,52,107.1,107.1,0,0,0,37.9-53.1,6,6,0,0,1,11.4,3.6,118,118,0,0,1-112.5,82.4Z"/></svg>
