<svg id="nose-4" xmlns="http://www.w3.org/2000/svg" viewBox="0 0 1020.6 1063.8"><defs><style>.nose-cls-1{fill:var(--dark-replacement);}</style></defs><title>nose-2-01</title><path class="nose-cls-1" d="M553.4,514.5H517.5A15.1,15.1,0,0,0,502.6,528c-2.1,20.4-7.9,21.7-30.3,47.9-24.8,28.9-33.5,59.8-14.6,77.1a1.3,1.3,0,0,0,2.1-.9c.1-6,2.1-19,16.9-20a18.5,18.5,0,0,1,19.5,20.3,18.2,18.2,0,0,1-3.1,8.5,3.3,3.3,0,0,0,2.4,5.2h.1c3.8.2,11.3.3,20.3.3a3.4,3.4,0,0,0,3-4.9,18,18,0,0,1-2-10.1,18.4,18.4,0,0,1,36.7,1.7,17.3,17.3,0,0,1-2.1,8.5,3.3,3.3,0,0,0,2.9,4.7h16.9a3.6,3.6,0,0,0,3-5.6,18.2,18.2,0,0,1-2.9-12,18.4,18.4,0,0,1,36.7,1.9,24.5,24.5,0,0,1-.2,2.7,2.5,2.5,0,0,0,4.1,2.4c19.6-16.7,11.7-50.5-13.4-79.7-22.4-26.2-28.2-27.5-30.3-47.9A15,15,0,0,0,553.4,514.5Z"/></svg>
