<svg id="nose-5" xmlns="http://www.w3.org/2000/svg" viewBox="0 0 1020.6 1063.8"><defs><style>.nose-cls-1{fill:var(--dark-replacement);}</style></defs><title>nose-1</title><path class="nose-cls-1" d="M534.8,524.2c-58.1,0-105.3,30.6-105.3,68.3,0,17.4,10.1,33.3,26.6,45.4a9.4,9.4,0,0,0,14.1-3.4,30,30,0,0,1,57.1,12.1,25.5,25.5,0,0,1-.7,7.4,5.7,5.7,0,0,0,5.4,6.9h5.6A5.7,5.7,0,0,0,543,654a29.5,29.5,0,0,1-.7-7.4,30.1,30.1,0,0,1,57.2-12.1,9.3,9.3,0,0,0,14,3.4c16.5-12.1,26.6-28,26.6-45.4C640.1,554.8,592.9,524.2,534.8,524.2Z"/></svg>
