<svg id="nose-3" xmlns="http://www.w3.org/2000/svg" viewBox="0 0 1020.6 1063.8"><defs><style>.nose-cls-1{fill:var(--dark-replacement);}</style></defs><title>nose-3</title><path class="nose-cls-1" d="M598,580.5a3.4,3.4,0,0,1-2.7-2.3c-4.2-13.2-28-61.9-57.3-61.9-31.2,0-53.4,48.7-57.4,61.9a3.1,3.1,0,0,1-2.6,2.3c-9.9,1.9-17.6,17.5-17.6,36.4s8.8,36.5,19.6,36.5a12.2,12.2,0,0,0,6.8-2.2,7.2,7.2,0,0,1,9.5,1c8.6,9,21.7,14.3,41.7,14.3s32.4-5.5,41-14.9a7.2,7.2,0,0,1,9.6-.8,12.4,12.4,0,0,0,7.4,2.6c10.8,0,19.6-16.3,19.6-36.5S607.9,582.4,598,580.5Z"/></svg>
