{
    "asset" : {
        "generator" : "Khronos glTF Blender I/O v1.0.5",
        "version" : "2.0"
    },
    "scene" : 0,
    "scenes" : [
        {
            "name" : "Scene",
            "nodes" : [
                0
            ]
        }
    ],
    "nodes" : [
        {
            "mesh" : 0,
            "name" : "Text",
            "rotation" : [
                0.7071067690849304,
                0,
                0,
                0.7071067690849304
            ]
        }
    ],
    "meshes" : [
        {
            "name" : "Text",
            "primitives" : [
                {
                    "attributes" : {
                        "POSITION" : 0,
                        "NORMAL" : 1
                    },
                    "indices" : 2
                }
            ]
        }
    ],
    "accessors" : [
        {
            "bufferView" : 0,
            "componentType" : 5126,
            "count" : 633,
            "max" : [
                2.6660001277923584,
                0.10000000149011612,
                0
            ],
            "min" : [
                0.07500000298023224,
                -0.10000000149011612,
                -0.6860000491142273
            ],
            "type" : "VEC3"
        },
        {
            "bufferView" : 1,
            "componentType" : 5126,
            "count" : 633,
            "type" : "VEC3"
        },
        {
            "bufferView" : 2,
            "componentType" : 5123,
            "count" : 1644,
            "type" : "SCALAR"
        }
    ],
    "bufferViews" : [
        {
            "buffer" : 0,
            "byteLength" : 7596,
            "byteOffset" : 0
        },
        {
            "buffer" : 0,
            "byteLength" : 7596,
            "byteOffset" : 7596
        },
        {
            "buffer" : 0,
            "byteLength" : 3288,
            "byteOffset" : 15192
        }
    ],
    "buffers" : [
        {
            "byteLength" : 18480,
            "uri" : "data:application/octet-stream;base64,"
        }
    ]
}
