<?xml version="1.0" encoding="utf-8"?>
<!-- Generator: Adobe Illustrator 24.0.1, SVG Export Plug-In . SVG Version: 6.00 Build 0)  -->
<svg version="1.1" id="Layer_1" xmlns="http://www.w3.org/2000/svg" xmlns:xlink="http://www.w3.org/1999/xlink" x="0px" y="0px"
	 viewBox="0 0 1020 1063" style="enable-background:new 0 0 1020 1063;" xml:space="preserve">
<style type="text/css">
	.st0{fill:#B2B2B2;}
	.st1{display:none;}
	.st2{display:inline;}
	.st3{fill:#636363;}
	.st4{display:inline;fill:#B2B2B2;}
	.st5{display:inline;fill:#636363;}
	.st6{display:inline;fill:#444444;}
	.st7{fill:#FFFFFF;}
	.st8{fill:#262626;}
	.st9{fill:#3A3A3A;}
	.st10{fill:#4C4C4C;}
	.st11{display:inline;fill:#262626;}
	.st12{fill:none;stroke:#262626;stroke-width:12;stroke-linecap:round;stroke-miterlimit:10;}
	
		.st13{opacity:0.99;fill:#5E5E5E;stroke:#262626;stroke-width:12;stroke-linecap:round;stroke-miterlimit:10;enable-background:new    ;}
	
		.st14{display:inline;opacity:0.99;fill:none;stroke:#262626;stroke-width:12;stroke-linecap:round;stroke-miterlimit:10;enable-background:new    ;}
	.st15{fill:none;stroke:#000000;stroke-width:8;stroke-linecap:round;stroke-miterlimit:10;}
	.st16{display:inline;fill:#FFFFFF;}
	.st17{display:inline;fill:#FFFFFF;stroke:#000000;stroke-width:5;stroke-linecap:round;stroke-miterlimit:10;}
	.st18{fill:none;stroke:#E2E2E2;stroke-miterlimit:10;}
	.st19{opacity:0.4;fill:#F800FF;enable-background:new    ;}
	.st20{opacity:0.4;fill:#0013FF;enable-background:new    ;}
	.st21{opacity:0.4;fill:#20FF00;enable-background:new    ;}
	.st22{opacity:0.5;fill:#FF8B00;enable-background:new    ;}
	.st23{fill:none;stroke:#000000;stroke-width:6;stroke-miterlimit:10;}
	.st24{fill:none;stroke:#000000;stroke-width:7.6385;stroke-miterlimit:10;}
	.st25{fill:none;stroke:#000000;stroke-width:7.8783;stroke-miterlimit:10;}
	.st26{fill:none;stroke:#000000;stroke-width:9.0388;stroke-miterlimit:10;}
</style>
<g id="Layer_1_1_">
	<g id="Layer_6">
		<g>
			<path class="st0" d="M899.1,649.4c32.1-227.2-131.8-399.6-366.2-385.1S105.2,463,100.9,675.6s159.7,385.1,366.2,385.1
				S867,876.6,899.1,649.4z"/>
		</g>
	</g>
	<g id="monster_4" class="st1">
		<g class="st2">
			<path class="st3" d="M766.3,692c0-1.3,0.4-1.3,0.4-2.5c0-1.3-0.5-1.3-0.5-2.5c0-1.3,0.7-1.3,0.7-2.5s0.8-1.3,0.8-2.5
				s-1.6-1.3-1.6-2.5c0-1.3,0.6-1.3,0.6-2.5c0-1.3-0.5-1.3-0.5-2.5s-0.3-1.3-0.3-2.5c0-1.3,1.3-1.2,1.3-2.5s-0.2-1.3-0.2-2.5
				c0-1.3,0.2-1.3,0.2-2.5c0-1.3-1.3-1.3-1.2-2.5c0-1.3,0.7-1.3,0.7-2.5c0-1.3,0.6-1.3,0.6-2.5c0-1.3,0.1-1.3,0.2-2.5
				c0-1.3-1.3-1.3-1.3-2.5c0-1.3,0.3-1.3,0.4-2.5c0-1.3,1.5-1.2,1.5-2.5s-1.4-1.3-1.4-2.5c0-1.3,0-1.3,0.1-2.5
				c0-1.3,0.9-1.3,0.9-2.5c0-1.3-1-1.3-1-2.5c0-1.3,1-1.3,1.1-2.5c0-1.3-0.5-1.3-0.5-2.5c0-1.3-0.1-1.3-0.1-2.5c0-1.3,1-1.3,1-2.5
				c0-1.3-0.9-1.3-0.9-2.5c0-1.3-0.8-1.3-0.8-2.5c0-1.3,0.9-1.3,0.9-2.5c0-1.3,0.4-1.3,0.4-2.5c0-1.3-1-1.3-1-2.5
				c0-1.3,1.1-1.2,1.1-2.5s-1.1-1.3-1.1-2.5c0-1.3-0.3-1.3-0.3-2.5c0-1.3,1.9-1.2,1.9-2.5s-1.4-1.3-1.4-2.5c0-1.3,1-1.3,1-2.5
				c0-1.3-0.3-1.3-0.2-2.5c0-1.3,0.5-1.3,0.5-2.5c0-1.3-1.6-1.3-1.5-2.6c0-1.3,1.3-1.2,1.3-2.5s-1.1-1.3-1.1-2.5
				c0-1.3,1.4-1.2,1.5-2.5c0-1.3-0.1-1.3-0.1-2.5c0-1.3-1.5-1.3-1.5-2.6s0.6-1.3,0.7-2.5c0-1.3,1.3-1.2,1.3-2.5s-1.4-1.3-1.4-2.5
				c0-1.3,0.2-1.3,0.3-2.5c0-1.3,0.3-1.3,0.4-2.5c0-1.3,1-1.3,1-2.5c0-1.3-1.2-1.3-1.2-2.5c0-1.3-0.6-1.3-0.5-2.5
				c0-1.3,0.1-1.3,0.2-2.5s1.1-1.2,1.2-2.5c0-1.3-0.1-1.3-0.1-2.5c0-1.3-1-1.3-1-2.5c0-1.3,1.4-1.2,1.4-2.5s-0.5-1.3-0.5-2.5
				c0-1.3,0.7-1.3,0.7-2.5c0-1.3-1.2-1.3-1.2-2.5c0-1.3,0.7-1.3,0.8-2.5c0-1.3-0.1-1.3-0.1-2.5c0-1.3,0-1.3,0-2.5
				c0-1.3-0.6-1.3-0.6-2.5c0-1.3-0.4-1.3-0.3-2.5c0-1.3,0.2-1.3,0.3-2.5c0-1.3,1.3-1.2,1.3-2.5s-1.6-1.3-1.6-2.6s1.2-1.2,1.2-2.5
				s0.1-1.3,0.1-2.5c0-1.3-1-1.3-1-2.5c0-1.3,0.1-1.3,0.2-2.5c0-1.3,0.5-1.3,0.6-2.5c0-1.3-0.1-1.3-0.1-2.5c0-1.3,0.4-1.3,0.4-2.5
				c0-1.3-1-1.3-1-2.5c0-1.3,0.3-1.3,0.4-2.5c0-1.3,0.6-1.3,0.6-2.5c0-1.3,0-1.3,0-2.5c0-1.3-0.3-1.3-0.2-2.5c0-1.3,1.3-1.2,1.4-2.5
				c0-1.3-1.2-1.3-1.2-2.5c0-1.3,0.3-1.3,0.3-2.5c0-1.3,0.4-1.3,0.4-2.5c0-1.3,0.3-1.3,0.3-2.5c0-1.3-0.4-1.3-0.4-2.5
				c0-1.3-0.4-1.3-0.4-2.5c0-1.3,0.5-1.3,0.6-2.5c0-1.3-1.3-1.3-1.3-2.5c0-1.3,0.5-1.3,0.5-2.5c0-1.3-0.2-1.3-0.2-2.5
				c0-1.3,1.2-1.2,1.2-2.5s0.2-1.3,0.2-2.5c0-1.3,0.3-1.3,0.3-2.5c0-1.3-1.4-1.3-1.3-2.5c0-1.3-0.2-1.3-0.2-2.5
				c0-1.3,1.3-1.2,1.4-2.5c0-1.3-0.4-1.3-0.4-2.5c0-1.3,0.5-1.3,0.5-2.5c0-1.3-0.8-1.3-0.8-2.5c0-1.3,0.8-1.3,0.8-2.5
				c0-1.3-0.2-1.3-0.2-2.5c0-1.3-0.9-1.3-0.8-2.5c0-1.3-0.4-1.3-0.4-2.5c0-1.3,0.9-1.3,1-2.5c0-1.3-0.6-1.3-0.6-2.5
				c0-1.3,0.7-1.3,0.7-2.5c0-1.3-0.7-1.3-0.7-2.5c0-1.3,0.9-1.3,1-2.5c0-1.3-1.3-1.3-1.3-2.5c0-1.3,0.3-1.3,0.4-2.5
				c0-1.3,0-1.3,0.1-2.5s1-1.3,1-2.5c0-1.3,0.2-1.3,0.2-2.5c0-1.3-0.1-1.3-0.1-2.5c0-1.3-0.7-1.3-0.7-2.5c0-1.3,0.1-1.3,0.2-2.5
				c0-1.3,0-1.3,0.1-2.5c0-1.3,0-1.3,0-2.5c0-1.3-0.7-1.3-0.7-2.5c0-1.3,0-1.3,0.1-2.5c0-1.3,0.1-1.3,0.1-2.5c0-1.3,0.7-1.3,0.7-2.5
				c0-1.3,0.3-1.3,0.3-2.5c0-1.3,0.5-1.3,0.6-2.5c0-1.3-1.1-1.3-1.1-2.5c0-1.3,0.4-1.3,0.5-2.5c0-1.3,0.4-1.3,0.4-2.5
				c0-1.3,0-1.3,0-2.5c0-1.3-0.1-1.3-0.1-2.5c0-1.3-0.9-1.3-0.9-2.5c0-1.3,0.3-1.3,0.4-2.5c0-1.3-0.3-1.3-0.2-2.5
				c0-1.3,1.5-1.2,1.5-2.5s-0.1-1.3,0-2.5c0-1.3-0.6-1.3-0.6-2.5c0-1.3-0.3-1.3-0.3-2.5c0-1.3,0.1-1.3,0.1-2.5
				c0-1.3,0.5-1.3,0.5-2.5c0-1.3-1.2-1.3-1.1-2.5c0-1.3,0.9-1.3,0.9-2.5c0-1.3,0.6-1.3,0.6-2.5c0-1.3-1.4-1.3-1.4-2.6
				c0-1.3,0.6-1.3,0.6-2.5c0-1.3-0.7-1.3-0.7-2.5c0-1.3,1.1-1.3,1.1-2.5c0-1.3,0.1-1.3,0.1-2.5c0-1.3,0.3-1.3,0.4-2.5
				c0-1.3-0.6-1.3-0.6-2.5c0-1.3,0.5-1.3,0.5-2.5c0-1.3-0.3-1.3-0.2-2.5c0-1.3,0.2-1.3,0.3-2.5c0-1.3-0.5-1.3-0.5-2.5
				c0-1.3,0.5-1.3,0.5-2.5c0-1.3-1.3-1.3-1.3-2.6c0-1.3,0.7-1.3,0.7-2.5c0-1.3,1-1.3,1-2.5c0-1.3-1.3-1.3-1.2-2.6
				c0-1.3-0.2-1.3-0.2-2.5c0-1.3-0.2-1.3-0.2-2.5c0-1.3,0.2-1.3,0.2-2.5c0-1.3,1.6-1.2,1.6-2.5s-0.7-1.3-0.6-2.5
				c0-1.3,0.8-1.3,0.8-2.5c0-1.3-1.5-1.3-1.5-2.6c0-1.3,1.2-1.3,1.2-2.5c0-1.3-0.3-1.3-0.3-2.5c0-1.3-0.2-1.3-0.2-2.5
				c0-1.3-0.2-1.3-0.2-2.5c0-1.3,0.3-1.3,0.3-2.5c0-1.3,0.9-1.3,0.9-2.5c0-1.3-0.8-1.3-0.7-2.5c0-1.3,0-1.3,0-2.5
				c0-1.3-0.8-1.3-0.8-2.6s1-1.3,1-2.5c0-1.3-1-1.3-0.9-2.6c0-0.9,1.4-1.7,1.4-2.5c0-0.9,0-1.7-0.1-2.5c0-0.9-1.3-1.7-1.4-2.5
				c0-0.9,1.6-1.8,1.5-2.6c0-0.9-1-1.6-1-2.5c-0.1-0.9-1.2-1.6-1.3-2.4c-0.1-0.8,0.7-1.8,0.6-2.6c-0.1-0.8,0.4-1.8,0.3-2.6
				c-0.1-0.8-1.6-1.5-1.8-2.3c-0.1-0.8-0.2-1.7-0.3-2.5s0.2-1.8,0-2.6s0.7-1.9,0.5-2.7s-0.5-1.7-0.7-2.5s-1.4-1.4-1.6-2.2
				c-0.2-0.8,0-1.8-0.2-2.6c-0.3-0.8-1.7-1.2-2-2s1.1-2.2,0.8-3s-1.7-1.2-2-1.9c-0.3-0.8-0.1-1.8-0.5-2.6s-0.7-1.5-1.1-2.3
				c-0.4-0.8-1.8-0.9-2.2-1.7c-0.4-0.7,0.2-2-0.3-2.8c-0.4-0.7-0.9-1.5-1.3-2.2c-0.5-0.7-1.7-0.8-2.2-1.5s-0.1-2-0.6-2.7
				s-0.6-1.7-1.2-2.4c-0.5-0.6-1.1-1.3-1.7-1.9c-0.6-0.6-2.3-0.1-2.9-0.7c-0.6-0.6-0.4-2-1-2.6s-1.3-1.1-1.9-1.7
				c-0.6-0.6-2.1-0.2-2.7-0.7c-0.7-0.5-0.5-2.1-1.2-2.6s-1.6-0.7-2.3-1.1c-0.7-0.5-1.7-0.5-2.4-1c-0.7-0.4-1-1.6-1.8-2
				c-0.7-0.4-1.7-0.5-2.4-0.9s-1.6-0.5-2.4-0.9c-0.8-0.4-1.5-0.7-2.3-1.1c-0.8-0.3-1.3-1.2-2.1-1.6c-0.8-0.3-1.6-0.6-2.4-0.9
				c-0.8-0.3-1.6-0.6-2.4-0.9c-0.8-0.3-1.7-0.3-2.5-0.5c-0.8-0.3-1.7-0.4-2.5-0.6c-0.8-0.2-1.5-1-2.3-1.2s-1.9,0.6-2.7,0.4
				c-0.8-0.2-1.4-1.6-2.2-1.8s-1.7,0-2.6-0.1c-0.8-0.2-1.6-0.8-2.4-0.9c-0.8-0.2-1.7,0.1-2.6,0c-0.8-0.1-1.8,0.9-2.7,0.8
				c-0.8-0.1-1.5-1.8-2.3-1.9c-0.8-0.1-1.7,0.3-2.6,0.2c-0.8-0.1-1.7,0.3-2.6,0.2c-0.8-0.1-1.7-0.1-2.5-0.2
				c-0.8-0.1-1.7,0.2-2.5,0.1c-0.8-0.1-1.7,0-2.5,0s-1.6-1.2-2.5-1.3c-0.8,0-1.7,0.2-2.5,0.2s-1.7,0.6-2.5,0.6s-1.7-0.6-2.5-0.6
				s-1.7-0.7-2.5-0.7s-1.7,1.5-2.5,1.5s-1.7-0.7-2.5-0.7s-1.7,0.3-2.5,0.3s-1.7,0.4-2.5,0.4s-1.7-0.5-2.5-0.5s-1.7-0.5-2.6-0.5
				c-0.8,0-1.6,1-2.5,1.1c-0.8,0-1.7-0.6-2.6-0.5c-0.8,0.1-1.7-0.2-2.5-0.1c-0.8,0.1-1.6,0.8-2.5,0.9c-0.8,0.1-1.7,0.1-2.5,0.2
				c-0.8,0.1-1.7,0.3-2.5,0.4c-0.8,0.1-1.7-0.1-2.5,0s-1.7,0.2-2.5,0.3s-1.7-0.2-2.6-0.2c-0.8,0.1-1.8-0.7-2.6-0.7
				c-0.8,0.1-1.6,1.1-2.4,1.1c-0.8,0.1-1.6,0.9-2.4,1c-0.8,0.1-1.7,0-2.5,0.1s-1.7,0.1-2.5,0.2c-0.8,0.1-1.7-0.1-2.5-0.1
				c-0.8,0.1-1.7,0.1-2.5,0.2c-0.8,0.1-1.6,1-2.4,1.1c-0.8,0.1-1.8-0.7-2.6-0.6c-0.8,0.1-1.7-0.2-2.6-0.2c-0.8,0.1-1.6,1.3-2.4,1.4
				c-0.9,0.1-1.8-1-2.6-1c-0.9,0.1-1.7-0.3-2.5-0.2c-0.9,0.1-1.6,1.3-2.4,1.3c-0.9,0.1-1.7,0.4-2.5,0.5c-0.9,0-1.7,0.1-2.5,0.1
				s-1.7,0-2.5,0s-1.7-0.7-2.5-0.6c-0.8,0-1.7-0.6-2.5-0.5c-0.8,0-1.6,1.4-2.5,1.5c-0.8,0-1.7-0.4-2.5-0.4s-1.7-0.3-2.5-0.2
				c-0.8,0-1.7,0.4-2.5,0.4s-1.7-0.9-2.5-0.9s-1.6,1.3-2.5,1.3c-0.8,0-1.7-0.7-2.5-0.7s-1.7-0.7-2.5-0.7s-1.7,1.3-2.5,1.3
				s-1.7-1-2.5-1s-1.7,1.2-2.5,1.2s-1.7-1-2.5-1s-1.7-0.1-2.5-0.1s-1.7,0.1-2.5,0.1s-1.7,1.4-2.5,1.4s-1.7-1.1-2.5-1.1
				s-1.7,0.6-2.5,0.6s-1.7-0.7-2.5-0.7s-1.7-0.6-2.5-0.6s-1.7,0.6-2.5,0.6s-1.7,0.9-2.5,0.9s-1.7-0.2-2.5-0.3
				c-0.8,0-1.7,0.5-2.5,0.5s-1.7-0.8-2.5-0.8s-1.7,0-2.5,0s-1.7-0.8-2.5-0.8s-1.7,0.7-2.5,0.7s-1.7-1-2.5-1s-1.7,0.5-2.5,0.5
				s-1.7-0.1-2.5-0.1s-1.7,1.4-2.5,1.4s-1.7-1.6-2.5-1.6s-1.7,1.3-2.5,1.3s-1.7-0.1-2.5-0.1s-1.7-0.1-2.5-0.1s-1.7-0.9-2.5-0.9
				s-1.7-0.5-2.5-0.5s-1.7-0.1-2.5-0.1s-1.7,1.6-2.5,1.6s-1.7,0.2-2.5,0.2s-1.7-0.5-2.5-0.5s-1.7-0.3-2.5-0.3s-1.7-1-2.5-1
				s-1.7,1.2-2.5,1.2s-1.7,0.4-2.5,0.4s-1.7-1.4-2.5-1.4s-1.7-0.1-2.5-0.1s-1.7,0.1-2.5,0.1s-1.7,0-2.5,0s-1.7-0.2-2.5-0.2
				s-1.7,0.7-2.5,0.7s-1.7,0.1-2.5,0c-0.8,0-1.7,0.4-2.5,0.4s-1.7-0.4-2.5-0.4s-1.7-0.7-2.5-0.7s-1.7-0.1-2.5-0.1s-1.7,0.3-2.5,0.3
				s-1.7,0.7-2.5,0.7s-1.7-0.7-2.5-0.7s-1.7-0.5-2.5-0.5s-1.7,0.1-2.5,0.1s-1.7-0.7-2.5-0.7s-1.7,1.3-2.5,1.3s-1.7-0.1-2.5-0.1
				s-1.7-0.9-2.5-0.9c-0.9,0-1.7,0-2.5,0c-0.9,0-1.7,0.4-2.5,0.4c-0.9,0-1.7-0.1-2.5-0.2c-0.9,0-1.7,0.8-2.5,0.8
				c-0.9,0-1.7,0.1-2.5,0.1c-0.9,0-1.7-0.9-2.5-0.9c-0.9,0-1.7-0.7-2.5-0.7c-0.9,0-1.7,0.3-2.5,0.3c-0.9,0-1.7,0.8-2.5,0.8
				c-0.9,0-1.7-0.5-2.5-0.5c-0.9,0-1.7-0.1-2.5-0.1c-0.9,0-1.7-0.7-2.5-0.8c-1,0-1.8,0.1-2.5,0.1c-1.6,0-1.2,0.3-2.5,0.1
				c-0.8-0.2-1.7,0.1-2.5-0.2c-0.8-0.2-1.6-0.5-2.4-0.7s-1.5-1-2.3-1.2s-1.6-0.4-2.5-0.6c-0.8-0.2-1.8,0.4-2.6,0.2
				c-0.8-0.2-1.8,0.4-2.6,0.2c-0.8-0.1-1.5-1.4-2.3-1.5s-1.8,0.4-2.6,0.3c-0.8-0.1-1.6-0.7-2.4-0.8s-1.7-0.2-2.5-0.3
				s-1.7-0.5-2.5-0.5c-0.8-0.1-1.6-0.8-2.5-0.9c-0.8-0.1-1.8,1.4-2.6,1.4c-0.8,0-1.7-0.4-2.5-0.4s-1.7-1.1-2.5-1.1s-1.7,0.6-2.5,0.6
				s-1.7,0.4-2.5,0.4s-1.7-0.3-2.5-0.3c-0.8,0.1-1.6,1.3-2.4,1.4c-0.8,0.1-1.7-0.5-2.6-0.4c-0.8,0.1-1.8-0.6-2.6-0.5
				c-0.8,0.1-1.5,1.6-2.3,1.7c-0.8,0.1-1.8-0.6-2.6-0.4c-0.8,0.2-1.6,0.6-2.4,0.8s-1.8-0.5-2.7-0.3c-0.8,0.2-1.4,1.3-2.2,1.6
				c-0.8,0.2-1.8-0.3-2.6-0.1c-0.8,0.2-1.3,1.4-2.1,1.6c-0.8,0.3-1.9-0.3-2.7,0c-0.8,0.3-1.5,0.8-2.3,1.1s-1.3,1.3-2,1.7
				c-0.8,0.3-1.9-0.1-2.6,0.3c-0.8,0.4-1.2,1.4-1.9,1.8c-0.8,0.4-1.4,0.9-2.1,1.3c-0.7,0.4-2.1-0.3-2.9,0.1
				c-0.7,0.4-0.9,1.8-1.6,2.3s-1.6,0.6-2.3,1.1c-0.7,0.5-0.8,1.7-1.5,2.2s-2.4-0.3-3,0.3c-0.6,0.5-0.9,1.6-1.5,2.2
				c-0.6,0.6-0.6,1.8-1.2,2.4c-0.6,0.6-1.7,0.7-2.3,1.3c-0.6,0.6-0.7,1.6-1.2,2.3c-0.5,0.6-2.3,0.3-2.8,1s-0.2,2-0.7,2.7
				s-1.1,1.3-1.6,2c-0.4,0.7-0.7,1.6-1.1,2.3s-0.6,1.6-1,2.3s-1.9,0.9-2.3,1.7c-0.3,0.8,0.6,2.1,0.3,2.9c-0.3,0.8-1,1.4-1.3,2.2
				s0,1.8-0.2,2.6s-1.8,1.2-2,2.1c-0.2,0.8,0.6,1.9,0.4,2.7s-1,1.5-1.1,2.4c-0.1,0.8,0.9,1.8,0.7,2.7c-0.1,0.8-1.3,1.5-1.3,2.4
				c-0.1,0.8,0.2,1.7,0.2,2.5c-0.1,0.8,0.7,1.7,0.7,2.5s-1.3,1.6-1.3,2.5c0,1.3-0.7,1.3-0.7,2.5c0,1.3,0.5,1.3,0.5,2.5
				c0,1.3,1.3,1.3,1.3,2.5c0,1.3-1.8,1.3-1.8,2.5c0,1.3,0.2,1.3,0.2,2.5c0,1.3,0,1.3,0,2.5c0,1.3,1.3,1.3,1.3,2.5
				c0,1.3-0.2,1.3-0.2,2.5c0,1.3,0.6,1.3,0.6,2.5c0,1.3,0,1.3,0,2.5c0,1.3-0.5,1.3-0.5,2.5c0,1.3-0.8,1.3-0.8,2.5
				c0,1.3-0.3,1.3-0.3,2.5c0,1.3,0,1.3,0,2.5c0,1.3,0.5,1.3,0.5,2.5c0,1.3,0.5,1.3,0.5,2.5s-0.9,1.3-0.9,2.5c0,1.3,0.7,1.3,0.7,2.5
				c0,1.3-0.5,1.3-0.5,2.5c0,1.3,1.2,1.3,1.2,2.5c0,1.3-1.1,1.3-1.1,2.5c0,1.3,0.7,1.3,0.7,2.5c0,1.3,0,1.3,0,2.5
				c0,1.3-0.3,1.3-0.3,2.5c0,1.3,0.3,1.3,0.3,2.5c0,1.3-0.3,1.3-0.3,2.5c0,1.3-0.4,1.3-0.4,2.5c0,1.3-0.6,1.3-0.6,2.5
				c0,1.3,0.9,1.3,0.9,2.5c0,1.3-0.7,1.3-0.7,2.5c0,1.3,0.1,1.3,0.1,2.5c0,1.3,0.8,1.3,0.8,2.5c0,1.3-0.1,1.3-0.1,2.5
				c0,1.3-0.4,1.3-0.4,2.5c0,1.3,1.4,1.3,1.4,2.5c0,1.3-0.2,1.3-0.2,2.5c0,1.3-0.7,1.3-0.7,2.5c0,1.3,0.8,1.3,0.8,2.5
				c0,1.3-0.6,1.3-0.6,2.5c0,1.3-0.5,1.3-0.5,2.5c0,1.3,0.2,1.3,0.2,2.5c0,1.3,0.6,1.3,0.6,2.5s-1.3,1.3-1.3,2.5s0.2,1.3,0.2,2.5
				c0,1.3,0.4,1.3,0.4,2.5c0,1.3-0.2,1.3-0.2,2.5c0,1.3,1.4,1.3,1.4,2.5c0,1.3-1.3,1.3-1.3,2.5c0,1.3-0.3,1.3-0.3,2.5
				c0,1.3,0.6,1.3,0.6,2.5c0,1.3-0.4,1.3-0.4,2.5c0,1.3,0.1,1.3,0.1,2.5c0,1.3-0.3,1.3-0.3,2.5c0,1.3-0.4,1.3-0.4,2.5
				c0,1.3,0,1.3,0,2.5c0,1.3,0,1.3,0,2.5c0,1.3,1.2,1.3,1.2,2.5c0,1.3-1.1,1.3-1.1,2.5c0,1.3,1.6,1.3,1.6,2.5c0,1.3-1.2,1.3-1.2,2.5
				c0,1.3-0.4,1.3-0.4,2.5c0,1.3,0.3,1.3,0.3,2.5c0,1.3,0.3,1.3,0.3,2.5s0.2,1.3,0.2,2.5c0,1.3,1.1,1.3,1.1,2.5
				c0,1.3-1.8,1.3-1.8,2.5c0,1.3,1.5,1.3,1.5,2.5c0,1.3-1.4,1.3-1.4,2.5c0,1.3,1,1.3,1,2.5c0,1.3-0.7,1.3-0.7,2.5
				c0,1.3-0.1,1.3-0.1,2.5c0,1.3-0.3,1.3-0.3,2.5c0,1.3,1.8,1.3,1.8,2.5c0,1.3-0.8,1.3-0.8,2.5c0,1.3-1,1.3-1,2.5
				c0,1.3,0.9,1.3,0.9,2.5c0,1.3,0.1,1.3,0.1,2.5c0,1.3,0,1.3,0,2.5c0,1.3-0.1,1.3-0.1,2.5s0.6,1.3,0.6,2.5c0,1.3-0.8,1.3-0.8,2.5
				c0,1.3,1.3,1.3,1.3,2.5c0,1.3-1.6,1.3-1.6,2.5c0,1.3,1.4,1.3,1.4,2.5c0,1.3-1.8,1.3-1.8,2.5c0,1.3,0,1.3,0,2.5c0,1.3,0,1.3,0,2.5
				c0,1.3,0.6,1.3,0.6,2.5c0,1.3,1,1.3,1,2.5c0,1.3-0.2,1.3-0.2,2.5c0,1.3-0.3,1.3-0.3,2.5c0,1.3,0.6,1.3,0.6,2.5
				c0,1.3-1.3,1.3-1.3,2.5c0,1.3,1.5,1.3,1.5,2.5c0,1.3-0.6,1.3-0.6,2.5c0,1.3,0.1,1.3,0.1,2.5c0,1.3-0.3,1.3-0.3,2.5
				c0,1.3-0.7,1.3-0.7,2.5c0,1.3,0.7,1.3,0.7,2.5c0,1.3-1.1,1.3-1.1,2.5c0,1.3,1,1.3,1,2.5c0,1.3,0.4,1.3,0.4,2.5
				c0,1.3-1.4,1.3-1.4,2.5c0,1.3,1.1,1.3,1.1,2.5c0,1.3-0.6,1.3-0.6,2.5c0,1.3-0.2,1.3-0.2,2.5c0,1.3,0.3,1.3,0.3,2.5
				c0,1.3,0.5,1.3,0.5,2.5c0,1.3-1.2,1.3-1.2,2.5c0,1.3,1.8,1.3,1.8,2.5c0,1.3-0.6,1.3-0.6,2.5c0,1.3,0.7,1.3,0.7,2.5
				c0,1.3-1,1.3-1,2.5c0,1.3,0.3,1.3,0.3,2.5c0,1.3,0.5,1.3,0.5,2.5c0,1.3-0.8,1.3-0.8,2.5c0,1.3,0.7,1.3,0.7,2.5
				c0,1.3-0.7,1.3-0.7,2.5c0,1.3,1.1,1.3,1.1,2.5c0,1.3-1.6,1.3-1.6,2.5c0,1.3,0.2,1.3,0.2,2.5c0,1.3-0.4,1.3-0.4,2.5
				c0,1.3,1.3,1.3,1.3,2.5s-0.2,1.3-0.2,2.5c0,1.3,0.7,1.3,0.7,2.5c0,1.3-1,1.3-1,2.5c0,1.3,0.5,1.3,0.5,2.5c0,1.3-0.9,1.3-0.9,2.5
				c0,1.3-0.5,1.3-0.5,2.5c0,1.3,1.3,1.3,1.3,2.5c0,1.3-1.1,1.3-1.1,2.5c0,1.3,0.6,1.3,0.6,2.5c0,1.3-0.3,1.3-0.3,2.5
				c0,1.3,0.4,1.3,0.4,2.5c0,1.3,0,1.3,0,2.5c0,1.3,0.5,1.3,0.5,2.5c0,1.3,0,1.3,0,2.5c0,1.3,0.4,1.3,0.4,2.5c0,1.3-0.9,1.3-0.9,2.5
				c0,1.3,0,1.3,0,2.5c0,1.3-0.9,1.3-0.9,2.5c0,1.3,2,1.3,2,2.5c0,1.3-1.8,1.3-1.8,2.5c0,1.3-0.1,1.3-0.1,2.5c0,1.3,1,1.3,1,2.5
				c0,1.3-0.9,1.3-0.9,2.5c0,1.3,1,1.3,1,2.5c0,1.3-0.7,1.3-0.7,2.5c0,1.3,0,1.3,0,2.5c0,1.3,1,1.3,1,2.5c0,1.3-1,1.3-1,2.5
				c0,1.3,0.1,1.3,0.1,2.5c0,1.3,0,1.3,0,2.5c0,1.3,0.9,1.3,0.9,2.5c0,1.3,0.1,1.3,0.1,2.5c0,1.3-0.6,1.3-0.6,2.5
				c0,1.3,0.3,1.3,0.3,2.5c0,1.3,0.6,1.3,0.6,2.5c0,1.3-1.3,1.3-1.3,2.5c0,1.3,0.1,1.3,0.1,2.5c0,1.3,0.9,1.3,0.9,2.5
				c0,1.3,0.2,1.3,0.2,2.5c0,1.3-1.3,1.3-1.3,2.5c0,1.3,1.6,1.3,1.6,2.5c0,1.3-1.5,1.3-1.5,2.5c0,1.3,1.5,1.3,1.5,2.5
				c0,1.3-0.7,1.3-0.7,2.5c0,1.3,0.5,1.3,0.5,2.5c0,1.3-1,1.3-1,2.5c0,1.3,0.6,1.3,0.6,2.5c0,1.3,0.7,1.3,0.7,2.5
				c0,1.3-1.8,1.3-1.8,2.5c0,1.3,0.6,1.3,0.6,2.5c0,1.3,1.3,1.3,1.3,2.5c0,1.3-0.9,1.3-0.9,2.5c0,1.3,0.6,1.3,0.6,2.5
				c0,1.3-0.1,1.3-0.1,2.5c0,1.3-1.3,1.3-1.3,2.5c0,1.3-0.1,1.3-0.1,2.5c0,1.3,1.4,1.3,1.4,2.5c0,1.3-0.2,1.3-0.2,2.5
				c0,1.3,0,1.3,0,2.5c0,1.3,0.6,1.3,0.6,2.5c0,1.3-0.1,1.3-0.1,2.5c0,1.3-1.7,1.3-1.7,2.5c0,1.3,0.4,1.3,0.4,2.5s1,1.3,1,2.5
				c0,0.8-0.2,1.7-0.2,2.5s-0.5,1.7-0.5,2.5s-0.4,1.7-0.5,2.5c0,0.8,0.6,1.7,0.5,2.6c-0.1,0.8-1.1,1.6-1.2,2.4
				c-0.1,0.8,0.7,1.7,0.6,2.6c-0.1,0.8,0,1.7-0.2,2.5c-0.1,0.8-0.8,1.6-0.9,2.4c-0.1,0.8-1,1.5-1.2,2.3s1,1.9,0.8,2.7
				s-0.8,1.6-0.9,2.4c-0.2,0.8,0.1,1.7-0.1,2.6c-0.2,0.8-1.2,1.4-1.4,2.2c-0.2,0.8,0.4,1.8,0.2,2.7c-0.2,0.8-0.6,1.6-0.8,2.4
				c-0.2,0.8-1.3,1.4-1.5,2.2c-0.3,0.8,0.9,2.1,0.6,2.9c-0.3,0.8-1.3,1.3-1.6,2.1c-0.3,0.8-0.6,1.6-0.9,2.3
				c-0.3,0.8-0.8,1.5-1.1,2.3c-0.3,0.8,0.2,1.9-0.1,2.7c-0.3,0.8-1.3,1.3-1.6,2c-0.3,0.8-0.7,1.5-1.1,2.3s-0.7,1.5-1,2.3
				c-0.4,0.7-1.7,1-2.1,1.7s-0.5,1.6-0.9,2.3s0.2,2-0.2,2.8c-0.4,0.7-1.7,0.9-2.1,1.7c-0.4,0.7-0.9,1.4-1.3,2.1
				c-0.7,1.1-0.7,1.1-1.4,2.1c-0.7,1.1-0.5,1.2-1.1,2.3c-0.7,1.1-1.3,0.7-2,1.8s0.6,1.9-0.1,2.9c-0.7,1.1-1.6,0.5-2.3,1.6
				s-1.1,0.8-1.7,1.9c-0.7,1.1,0.4,1.7-0.3,2.8s-0.5,1.2-1.2,2.2c-0.7,1.1-1.2,0.7-1.9,1.8s0.1,1.6-0.6,2.6
				c-0.7,1.1-1.2,0.7-1.9,1.8s0.1,1.6-0.6,2.6c-0.7,1.1-1.7,0.5-2.3,1.5c-0.7,1.1-0.3,1.3-1,2.4c-0.7,1.1-0.5,1.2-1.2,2.2
				c-0.7,1.1-1.9,0.3-2.6,1.4c-0.7,1.1-0.1,1.4-0.8,2.5s0.5,1.8-0.2,2.9c-0.7,1.1-1.2,0.8-1.8,1.8c-0.7,1.1-0.7,1.1-1.3,2.2
				c-0.7,1.1-0.6,1.1-1.2,2.2c-0.7,1.1-0.5,1.2-1.2,2.3s-1.8,0.4-2.5,1.4c-0.7,1.1,0,1.5-0.7,2.6s-1,0.9-1.7,2s-1.1,0.8-1.7,1.9
				c-0.7,1.1,0.2,1.6-0.5,2.7c-0.7,1.1-1.6,0.5-2.2,1.6c-0.7,1.1,0,1.5-0.7,2.6s-1.5,0.6-2.1,1.6c-0.7,1.1-0.3,1.3-1,2.4
				c-0.7,1.1-0.5,1.2-1.2,2.3s-0.4,1.3-1,2.3c-0.7,1.1-0.2,1.4-0.9,2.4c-0.7,1.1-1.3,0.7-2,1.8s-0.3,1.3-1,2.4
				c-0.7,1.1-0.9,0.9-1.6,2c-0.7,1.1-1.4,0.6-2.1,1.7c-0.7,1.1-0.5,1.2-1.1,2.3c-0.7,1.1,0.4,1.7-0.3,2.8s-1.4,0.6-2.1,1.7
				c-0.7,1.1-0.8,1-1.5,2c-0.7,1.1,0.5,1.8-0.2,2.9c-0.7,1.1-1.1,0.8-1.7,1.9c-0.7,1.1-0.1,1.4-0.8,2.5s-1.1,0.8-1.8,1.9
				c-0.7,1.1-0.7,1-1.4,2.1s-0.3,1.3-0.9,2.4c-0.7,1.1-0.5,1.1-1.2,2.2c-0.7,1.1-0.8,1-1.4,2.1c-0.7,1.1-1.6,0.5-2.3,1.6
				s-0.9,1-1.5,2c-0.7,1.1,0.1,1.5-0.6,2.6c-0.7,1.1-0.8,1-1.4,2.1c-0.7,1.1-1.6,0.5-2.3,1.6s-0.8,1-1.5,2.1s0.8,2,0.1,3.1
				s-1,0.9-1.6,2c-0.7,1.1-1.7,0.4-2.3,1.5c-0.7,1.1-0.3,1.3-1,2.4c-0.7,1.1,0.2,1.6-0.5,2.7c-0.7,1.1-0.6,1.1-1.3,2.2
				c-0.7,1.1-1,0.9-1.7,2s-0.5,1.2-1.2,2.2c-0.7,1.1-1.3,0.7-1.6,1.9c-0.4,1.2-0.4,1.2,0.5,2.5c0.4,0.6,0.7,1.4,1.3,2.2
				c0.4,0.6,1.2,1.1,1.8,1.9c0.4,0.6,0.9,1.3,1.4,2.1c0.5,0.6,2,0.6,2.6,1.3c0.5,0.7,1.1,1.2,1.6,1.9s0.8,1.5,1.3,2.2
				s0.6,1.6,1.1,2.3c0.5,0.6,1.1,1.2,1.7,1.9c0.5,0.6,0.1,2,0.7,2.7c0.5,0.6,1,1.3,1.6,2c0.5,0.6,1.8,0.7,2.3,1.3s1,1.4,1.5,2
				s1.1,1.3,1.6,1.9c0.5,0.6,1.3,1.1,1.9,1.7c0.5,0.6,1.1,1.3,1.6,1.9c0.5,0.6,1.2,1.1,1.8,1.8c0.6,0.6,1.1,1.2,1.7,1.9
				c0.6,0.6,1.5,0.9,2,1.6c0.6,0.6,1,1.3,1.6,1.9c0.6,0.6,0.1,2.2,0.7,2.8c0.6,0.6,1.5,0.9,2.1,1.5s0.9,1.5,1.5,2.1s2.2,0.2,2.8,0.8
				s0.1,2.3,0.7,2.9c0.6,0.6,1.7,0.7,2.3,1.3s1.2,1.2,1.8,1.8s0.9,1.5,1.5,2.1s1.3,1.1,1.9,1.7c0.6,0.6,1.4,0.9,2,1.5
				s0.6,1.8,1.3,2.3c0.6,0.6,1.8,0.5,2.4,1.1c0.6,0.6,0.7,1.7,1.3,2.3s1.7,0.6,2.4,1.2c0.6,0.6,2,0.3,2.6,0.9
				c0.6,0.6,0.3,2.2,0.9,2.8c0.6,0.6,1.6,0.8,2.2,1.3c0.6,0.5,1.5,0.8,2.2,1.3c0.6,0.5,0.6,1.9,1.3,2.4c0.6,0.5,1.7,0.6,2.3,1.2
				c0.6,0.5,1.9,0.4,2.5,0.9s0.3,2.3,1,2.8s1.8,0.5,2.4,1c0.7,0.5,1.8,0.5,2.4,1c0.7,0.5,0.4,2.2,1.1,2.7c0.7,0.5,2.2-0.1,2.8,0.5
				c0.7,0.5,0.9,1.6,1.6,2.1c0.7,0.5,1,1.5,1.7,2s1.7,0.5,2.4,1s1.2,1.2,1.9,1.7c0.7,0.5,1.1,1.4,1.8,1.9c0.7,0.5,1.6,0.7,2.3,1.2
				c0.7,0.5,1.2,1.2,1.9,1.6c0.7,0.5,1.3,1,2,1.5s2.1,0,2.8,0.4c0.7,0.5,0.9,1.6,1.6,2.1s1.3,1.1,2,1.5c0.7,0.5,1.6,0.7,2.3,1.2
				c0.7,0.5,1.4,0.9,2.1,1.4s1.4,0.9,2.1,1.4c0.7,0.4,2,0,2.7,0.4s0.8,2,1.5,2.4s1.7,0.5,2.4,1c0.7,0.4,1.3,1.2,2,1.6
				c0.7,0.4,1.7,0.4,2.4,0.9c0.7,0.4,1.6,0.6,2.4,1c0.7,0.4,1.4,1,2.1,1.4s1,1.7,1.7,2.2c0.7,0.4,1.9,0,2.7,0.4
				c0.7,0.4,1.9,0,2.7,0.4c0.7,0.4,0.6,2.5,1.3,2.9c0.7,0.4,2.1-0.4,2.9,0c0.7,0.4,0.9,1.9,1.7,2.3c0.7,0.4,2-0.3,2.8,0.1
				c0.8,0.4,1.5,0.8,2.3,1.1c0.8,0.4,1.4,1,2.1,1.4c0.8,0.4,1.6,0.5,2.4,0.9s1.4,1,2.1,1.4c0.8,0.4,1.7,0.3,2.5,0.6
				c0.8,0.3,1.8,0.1,2.6,0.4c0.8,0.3,1.3,1.2,2.1,1.6c0.8,0.3,1.5,0.7,2.3,1s1.6,0.5,2.4,0.9c0.8,0.3,1.7,0.4,2.4,0.7
				c0.8,0.3,1,2.1,1.8,2.4s1.8,0,2.6,0.3c0.8,0.3,1.4,1.1,2.2,1.4c0.8,0.3,1.7,0.3,2.5,0.6c0.8,0.3,1.3,1.3,2.1,1.6
				c0.8,0.3,1.6,0.5,2.4,0.8s1.8,0.1,2.6,0.3c0.8,0.3,1.7,0.4,2.5,0.6c0.8,0.3,1.8,0.1,2.6,0.3c0.8,0.3,1.6,0.5,2.4,0.8
				s1.2,1.8,2,2.1c0.8,0.3,1.8,0,2.6,0.3c0.8,0.3,1.5,0.8,2.3,1s1.6,0.6,2.4,0.9c0.8,0.2,2.1-1.1,2.9-0.8c0.8,0.2,1.5,0.9,2.3,1.2
				c0.8,0.2,1.8-0.1,2.6,0.1c0.8,0.2,1.2,1.9,2,2.1s1.6,0.6,2.4,0.8c0.8,0.2,2-1,2.8-0.7c0.8,0.2,1.7,0.2,2.5,0.5
				c0.8,0.2,1.4,1.5,2.2,1.7c0.8,0.2,1.6,0.6,2.4,0.8c0.8,0.2,1.7,0,2.6,0.1c0.8,0.2,1.5,1.1,2.3,1.3c0.8,0.2,1.9-1.1,2.8-0.9
				c0.8,0.2,1.3,1.8,2.2,2c0.8,0.2,1.8-0.2,2.6,0c0.8,0.2,1.7-0.1,2.6,0.1c0.8,0.2,1.5,1,2.4,1.2c0.8,0.2,1.9-1,2.7-0.8
				c0.8,0.1,1.7,0,2.5,0.2c0.8,0.1,1.6,0.7,2.4,0.8c0.8,0.1,1.5,1.3,2.3,1.4s1.8-1,2.7-0.9c0.8,0.1,1.5,1.4,2.3,1.5s1.7,0,2.5,0.1
				s1.6,0.8,2.4,0.9s1.9-1.4,2.7-1.3c0.8,0.1,1.6,1,2.4,1.1s1.6,0.4,2.5,0.5c0.8,0.1,1.7,0.1,2.5,0.2s1.7-0.5,2.6-0.4
				c0.8,0.1,1.6,1.5,2.4,1.6s1.8-1.7,2.7-1.7c0.8,0.1,1.6,0.9,2.5,0.9c0.8,0.1,1.6,0.8,2.5,0.9c0.8,0.1,1.8-1.2,2.6-1.1
				c0.8,0,1.6,0.8,2.5,0.9c0.8,0,1.7-0.7,2.6-0.6c0.8,0,1.6,1.4,2.5,1.5c0.8,0,1.7-1.1,2.6-1.1c0.8,0,1.7,0.7,2.5,0.7
				s1.7-0.3,2.5-0.3s1.7,0,2.5,0s1.7-0.1,2.5-0.1s1.7,0.1,2.5,0.1s1.7,0.1,2.5,0.1s1.7,0,2.5,0s1.7-0.5,2.5-0.5s1.7,0.7,2.5,0.7
				s1.7-1,2.5-1.1c0.8,0,1.7,0.3,2.5,0.3s1.7,0.2,2.5,0.2s1.7,0.2,2.5,0.1c0.8,0,1.7,0.2,2.5,0.2s1.6-0.9,2.5-0.9
				c0.8-0.1,1.7,0.3,2.5,0.2c0.8-0.1,1.7,0.2,2.5,0.1s1.7-0.4,2.5-0.5s1.6-0.9,2.5-1c0.8-0.1,1.8,1.3,2.7,1.3c0.8-0.1,1.7,0,2.5-0.1
				s1.5-1.6,2.4-1.7c0.8-0.1,1.8,1.2,2.7,1.1c0.8-0.1,1.7-0.2,2.5-0.3c0.8-0.1,1.5-1.5,2.4-1.6c0.8-0.1,1.8,0.6,2.6,0.5
				s1.8,0.3,2.6,0.2c0.8-0.1,1.7-0.2,2.5-0.4c0.8-0.1,1.6-0.7,2.4-0.9c0.8-0.1,1.7-0.1,2.5-0.2s1.5-1.2,2.3-1.4
				c0.8-0.1,1.7,0,2.5-0.1s1.6-0.6,2.4-0.8c0.8-0.1,1.9,0.9,2.7,0.8c0.8-0.2,1.7-0.3,2.5-0.5s1.5-1,2.3-1.2s1.6-0.5,2.4-0.7
				c0.8-0.2,1.9,0.7,2.7,0.5s1.4-1.4,2.2-1.6s1.9,0.7,2.7,0.5s1.3-1.7,2.1-2c0.8-0.2,1.9,0.5,2.7,0.3s1.7-0.2,2.5-0.4
				c0.8-0.2,1.4-1.3,2.2-1.5s1.8,0.2,2.6,0s1.5-0.9,2.3-1.2c0.8-0.2,1.5-0.8,2.3-1s1.6-0.5,2.4-0.8c0.8-0.3,1.4-1.1,2.2-1.3
				c0.8-0.3,1.8,0.1,2.6-0.2c0.8-0.3,1.8,0,2.6-0.2c0.8-0.3,1.4-1.1,2.2-1.4s1.7-0.1,2.5-0.4s1.8,0,2.6-0.3s1.3-1.3,2.1-1.6
				c0.8-0.3,1.8,0.1,2.6-0.2c0.8-0.3,1.4-1,2.2-1.3s1.1-1.7,1.9-2c0.8-0.3,2.2,0.8,2.9,0.5c0.8-0.3,1.4-0.9,2.2-1.3
				c0.8-0.3,1.8-0.1,2.6-0.5c0.8-0.3,1.2-1.5,2-1.9c0.8-0.3,1.2-1.4,2-1.7c0.8-0.3,1.9,0.2,2.7-0.2c0.8-0.3,1.2-1.4,2-1.8
				s1.3-1.1,2.1-1.4c0.8-0.4,1.9,0.1,2.7-0.2c0.8-0.4,2,0.2,2.7-0.1c0.8-0.4,0.8-2.2,1.6-2.5c0.8-0.4,1.8-0.2,2.5-0.6
				c0.8-0.4,1.7-0.4,2.4-0.8c0.8-0.4,1.1-1.6,1.8-2s1.5-0.7,2.3-1.1c0.7-0.4,2.2,0.6,3,0.2c0.7-0.4,0.7-2.3,1.4-2.7s2.1,0.4,2.9,0
				c0.7-0.4,1.3-1.2,2-1.6c0.7-0.4,1.6-0.6,2.3-1s1.6-0.7,2.3-1.1c0.7-0.4,1.2-1.2,2-1.6c0.7-0.4,1.7-0.4,2.5-0.8
				c0.7-0.4,1.3-1.1,2-1.5s1.1-1.5,1.8-1.9s1.2-1.3,1.9-1.7s1.7-0.5,2.4-0.9s1.3-1.1,2-1.6s2.1,0.1,2.8-0.3c0.7-0.5,1.4-0.9,2.1-1.4
				c0.7-0.5,0.8-1.9,1.5-2.3c0.7-0.5,1.8-0.4,2.5-0.8c0.7-0.5,1.2-1.2,1.9-1.7s1.7-0.5,2.4-1s0.7-1.9,1.4-2.4s1.6-0.7,2.2-1.2
				c0.7-0.5,1.5-0.8,2.2-1.3s1.5-0.8,2.2-1.3s1.3-1.1,2-1.6s1.3-1.1,2-1.6s1.2-1.3,1.8-1.8c0.7-0.5,2.3,0.3,3-0.2s0.3-2.3,1-2.9
				c0.7-0.5,2.1,0,2.8-0.6c0.7-0.5,1.6-0.7,2.3-1.2s1.1-1.3,1.8-1.9c0.7-0.5,1.5-0.9,2.1-1.4c0.7-0.5,0.9-1.6,1.6-2.1
				c0.7-0.5,1.7-0.6,2.3-1.1c0.7-0.5,0.9-1.6,1.5-2.1c0.7-0.5,0.7-1.8,1.3-2.4c0.7-0.5,2.1,0,2.8-0.6c0.7-0.5,0.7-1.8,1.4-2.3
				c0.6-0.5,1.4-0.9,2.1-1.5c0.6-0.5,2.2,0,2.8-0.6c0.6-0.5,0.5-2,1.2-2.5c0.6-0.6,1.6-0.8,2.2-1.3c0.6-0.6,1.2-1.2,1.9-1.7
				c0.6-0.6,1.3-1.1,1.9-1.7c0.6-0.6,0.8-1.7,1.4-2.2c0.6-0.6,0.9-1.5,1.6-2.1c0.6-0.6,2.4,0.1,3-0.5s0.3-2.1,1-2.7
				c0.6-0.6,2.2-0.1,2.8-0.7c0.6-0.6,0.6-1.8,1.2-2.4c0.6-0.6,1.6-0.8,2.2-1.4c0.6-0.6,0.9-1.5,1.5-2c0.6-0.6,0.7-1.7,1.3-2.3
				s1.4-1,2-1.6s1.7-0.6,2.3-1.2c0.6-0.6,1.4-1,2-1.6s1.6-0.8,2.2-1.4c0.6-0.6,0.9-1.5,1.5-2.1s0.2-2.1,0.8-2.7
				c0.6-0.6,1.5-0.9,2.1-1.5s1.7-0.7,2.3-1.3s0.9-1.4,1.5-2s1.3-1.1,1.9-1.7c0.6-0.6,1.4-1,2-1.6s1.2-1.2,1.7-1.8
				c0.6-0.6,0.6-1.8,1.2-2.4c0.6-0.6,1.5-0.9,2.1-1.5s0.8-1.6,1.3-2.2c0.6-0.6,1.7-0.7,2.3-1.3s0.4-1.9,1-2.5s1.2-1.2,1.7-1.8
				c0.6-0.6,0.9-1.4,1.5-2.1c0.6-0.6,1.8-0.6,2.4-1.3c0.6-0.6,0.7-1.6,1.2-2.3c0.6-0.6,1.1-1.2,1.7-1.9c0.6-0.6,1.8-0.7,2.4-1.3
				c0.6-0.6,0.8-1.5,1.4-2.2c0.5-0.6,0.2-2,0.8-2.7c0.5-0.6,1.7-0.8,2.2-1.4c0.5-0.6,0.7-1.6,1.3-2.2c0.5-0.7,2-0.5,2.5-1.2
				s-0.4-2.5,0.2-3.1c0.5-0.7,1.6-0.9,2.1-1.5c0.5-0.7,1.4-1.1,1.9-1.7c0.5-0.7,1.5-0.9,2.1-1.6c0.5-0.7-0.4-2.4,0.2-3.1
				c0.5-0.7,1.3-1.1,1.8-1.8s2.4-0.3,2.9-1s0.3-1.9,0.8-2.6c0.5-0.7,1.1-1.3,1.6-2s0.6-1.7,1.1-2.4s0.8-1.5,1.3-2.2s1.3-1.2,1.8-1.8
				c0.5-0.7,1.7-0.8,2.2-1.5s0.5-1.7,1-2.4s1.1-1.3,1.6-2s1.4-1.1,1.8-1.8c0.5-0.7,0.1-2,0.6-2.7s0.9-1.5,1.4-2.1
				c0.5-0.7,2.2-0.5,2.7-1.2s1-1.4,1.5-2c0.5-0.7,0-2.1,0.4-2.8c0.5-0.7,1.5-1,2-1.7s0.8-1.5,1.3-2.2s1.1-1.3,1.6-2
				c0.5-0.8,0.9-1.5,1.3-2.2c0.5-0.8,1.4-1.3,1.8-1.9c0.9-1.4,1.3-1.4,0.9-2.6c-0.4-1.2-0.3-1.3-1-2.4c-0.7-1.1-0.5-1.2-1.2-2.3
				s-1-0.9-1.7-1.9c-0.7-1.1-0.5-1.2-1.2-2.2c-0.7-1.1-0.9-0.9-1.5-2c-0.7-1.1-0.9-0.9-1.6-2c-0.7-1.1-1-0.9-1.6-2
				c-0.7-1.1,0.1-1.6-0.6-2.6c-0.7-1.1-0.3-1.3-1-2.4c-0.7-1.1-1.5-0.6-2.2-1.6c-0.7-1.1-0.6-1.1-1.3-2.2c-0.7-1.1-1.4-0.6-2.1-1.7
				c-0.7-1.1-0.3-1.3-0.9-2.4c-0.7-1.1,0.1-1.6-0.6-2.6c-0.7-1.1-0.7-1.1-1.3-2.2c-0.7-1.1-1-0.9-1.7-2s-0.6-1.1-1.3-2.2
				c-0.7-1.1-1.5-0.6-2.1-1.7c-0.7-1.1,0.4-1.7-0.3-2.8s-1.3-0.7-2-1.8s0-1.5-0.6-2.6c-0.7-1.1-2-0.3-2.7-1.3
				c-0.7-1.1,0.5-1.8-0.1-2.9c-0.7-1.1-0.6-1.1-1.3-2.2c-0.7-1.1-0.9-0.9-1.6-2c-0.7-1.1-1.1-0.8-1.8-1.9c-0.7-1.1-0.1-1.5-0.7-2.5
				c-0.7-1.1-0.6-1.1-1.3-2.2c-0.7-1.1-0.5-1.2-1.2-2.3s-1-0.9-1.7-1.9c-0.7-1.1-1.4-0.6-2.1-1.7c-0.7-1.1-0.6-1.1-1.3-2.2
				c-0.7-1.1-0.2-1.4-0.9-2.4c-0.7-1.1-0.2-1.4-0.8-2.5c-0.4-0.7-1.1-1.3-1.6-2c-0.4-0.7-1.3-1.2-1.7-1.9s-1-1.4-1.4-2.1
				c-0.4-0.7-0.4-1.7-0.8-2.4c-0.4-0.7-1.6-1.1-2-1.8s0.3-2,0-2.8c-0.4-0.8-0.9-1.4-1.2-2.2s-0.8-1.5-1.1-2.2
				c-0.3-0.8-0.3-1.7-0.6-2.5s-0.3-1.7-0.6-2.4c-0.3-0.8-1.8-1.1-2-1.9c-0.3-0.8-0.5-1.6-0.8-2.4c-0.3-0.8-0.6-1.6-0.8-2.4
				c-0.3-0.8-0.9-1.5-1.2-2.3c-0.2-0.8,1-2,0.8-2.8s-0.9-1.5-1.1-2.3c-0.2-0.8,0.4-1.8,0.2-2.6s-0.3-1.6-0.5-2.4
				c-0.2-0.8-1.7-1.3-1.9-2.2c-0.2-0.8,0.5-1.8,0.4-2.6s0.1-1.7,0-2.5s-2.1-1.4-2.2-2.2c-0.1-0.8,1.3-1.9,1.2-2.7s0.1-1.7,0.1-2.5
				c-0.1-0.8-2-1.5-2.1-2.3s1.1-1.8,1-2.6c0-0.8-0.4-1.7-0.5-2.5c0-0.8,0.7-1.7,0.7-2.5C767.2,693.7,766.3,692.8,766.3,692z"/>
		</g>
		<path class="st4" d="M222.3,961v-31.9c0-2.7-2.2-4.9-4.9-4.9l0,0c-2.7,0-4.9,2.2-4.9,4.9v22.3"/>
		<path class="st4" d="M238.3,875.1L238.3,875.1c-2.7,0-4.9,2.2-4.9,4.9v44.3c0,2.7,2.2,4.9,4.9,4.9l0,0c2.7,0,4.9-2.2,4.9-4.9V880
			C243.2,877.3,241,875.1,238.3,875.1z"/>
	</g>
	<g id="monster_1" class="st1">
		<path class="st5" d="M241.7,981.9c-66.8-53.8-99.4-123-99.4-123c88-65.8,140.5-169.8,140.2-281.1c-0.3-105.6-0.6-214.4-0.6-218.6
			c0-134.4,109-243.4,243.4-243.4s243.4,109,243.4,243.4c0,5.2-0.2,112.7-0.5,218.2c-0.3,83.7,31.9,202.7,81.4,225.7
			C736.5,1033.8,456.5,1148.6,241.7,981.9z"/>
		<g class="st2">
			<path class="st0" d="M327.7,872.6c1.7-11.9-6.9-20.9-19.2-20.2c-12.3,0.8-22.4,10.4-22.6,21.5s8.4,20.2,19.2,20.2
				S326.1,884.5,327.7,872.6z"/>
		</g>
		<g class="st2">
			<path class="st0" d="M729.2,544.6c1.7-11.9-6.9-20.9-19.2-20.2c-12.3,0.8-20.3,8.6-18,17.6s10.9,18,19.2,20.2
				S727.5,556.5,729.2,544.6z"/>
		</g>
		<g class="st2">
			<path class="st0" d="M340.5,848.5c3.6,2.4,8.5,0.8,11.4-3.7c3-4.6,2.4-10.2-1.4-12.4c-4-2.1-9.6-0.2-12.3,4.2
				C335.7,841,336.8,846.2,340.5,848.5z"/>
		</g>
		<g class="st2">
			<path class="st0" d="M681,526c3.9,2.1,8.6,0.8,10.1-2.6c1.2-3.1-0.8-7.4-4.2-10.1c-3.1-2.9-6.7-2.7-8.4,0.9
				C676.4,518.2,677.4,523.6,681,526z"/>
		</g>
		<g class="st2">
			<path class="st0" d="M334.5,915.9c4,2.7,9.6,0.9,12.8-4.2c3.3-5.2,2.8-11.5-1.6-14c-4.5-2.4-10.9-0.2-13.9,4.8
				C329,907.4,330.3,913.3,334.5,915.9z"/>
		</g>
	</g>
	<g id="monster_2" class="st1">
		<path class="st5" d="M412.7,1056.8c0-0.8,0-153.7,0-153.7c0-79.9-29.6-156.5-82.2-211.2c-51.7-53.7-85.2-128.7-89.3-212.4
			c-3.7-75.2,16.9-145.4,53.8-201.7c5.3-8,2-16.7,16.8-23.2c8.8-3.9,12.8-15.4,19.8-22.5C384.4,177.6,455.9,145,534,148
			c38,1.4,78.3,2.4,111.1,18.8c49.5,24.9,90.4,67.3,118.7,119.7c4,7.5,3.8,20.4,11.4,23c12.6,4.3,7.1,16.6,10.2,25.2
			c14.3,39.7,22.1,83.1,22.1,127.6c0,88-32.6,167.6-85.1,224.7c-49.9,54.3-77.5,129-77.5,206.6l0,0c0,6.3,1.2,12.5,3.5,18.2
			c2.1,5.2,4.3,12.5,4.3,19.6c0,8.6-3.2,18.8-5.5,25c-1.5,4.1-2.3,8.5-2.3,13c0,2.9-0.3,41.7,0,41.2
			C615.6,1030.4,524.3,1076.3,412.7,1056.8z"/>
	</g>
	<g id="monster_3" class="st1">
		<path class="st5" d="M111.2,783.8c0.7-0.3,3.1-0.8,3.8-0.6c0.2,0,0.7,0.2,1.4,0.5c1.2,0.5,1.5,3.9,3.1,4.6
			c1.3,0.6,4.1-1.8,5.6-1.2c1.4,0.6,0.6,6.6,2.2,7.2c1.4,0.6,5.5-5.4,7-4.8c1.4,0.5,3.5-0.8,5.1-0.2c1.4,0.5,2.5,2,4,2.5
			s2.8,1.3,4.3,1.8s0.9,7.4,2.4,7.9s4.7-4.6,6.3-4.2c1.5,0.5,2.5,2.4,4.1,2.9c1.5,0.4,3.8-2.1,5.3-1.7c1.5,0.4,2.4,3,4,3.4
			c1.5,0.4,3.2,0.1,4.7,0.5s2.6,2.8,4.1,3.2c1.5,0.3,2.5,3.5,4.1,3.8c1.5,0.3,3.5-1.4,5-1.1c1.6,0.3,3.9-4.8,5.4-4.6
			c1.6,0.2,2.1,8.7,3.7,8.9c1.6,0.2,3.4-1.5,5-1.3c1.6,0.1,3.6-7,5.2-6.9c1.6,0.1,2.9,8.4,4.4,8.4c1.6,0,3.1-7.7,4.7-7.7
			c1.6,0,3,0.1,4.6,0s2.9-0.6,4.5-0.8s4.2,7.8,5.8,7.5s1.9-7,3.4-7.3s4.9,6.2,6.4,5.8s0.9-7.8,2.4-8.3s4.9,3.9,6.4,3.3
			c1.5-0.6-0.2-7.7,1.2-8.4s7,6.1,8.4,5.2c1.4-0.8-0.4-6.6,0.8-7.5c1.3-0.9,3.3-0.8,4.5-1.8s0.9-3.6,2.1-4.7
			c1.2-1.1,7.4,2.9,8.5,1.7s-3-6.9-2-8.2c1-1.2,2.1-2.2,3-3.5s4.1-1,5-2.3c0.8-1.3,1-3.1,1.7-4.5s4.6-1.4,5.2-2.8
			c0.6-1.4-0.3-3.7,0.2-5.2s-2.4-4.1-2-5.6s3.2-2.4,3.5-3.9s0.8-3.1,1-4.7c0.2-1.6-4.5-3.6-4.3-5.1c0.1-1.6,4.4-2.8,4.5-4.4
			c0-1.6,2.1-3.3,2-4.9c-0.1-1.6-0.8-3.2-1-4.8s-0.3-3.3-0.6-4.8c-0.3-1.5-7.1-1.4-7.5-3c-0.4-1.5,7.5-5.6,7-7.1s-3.1-2.4-3.7-3.8
			c-0.3-0.8,0.8-2.3,0.5-3.1c-0.7-1.4-7.4-0.1-8.1-1.7c-0.6-1.4,2.3-4.4,1.7-5.9c-0.6-1.5,2.3-4.2,1.8-5.7s-6.7-1-7.2-2.6
			c-0.5-1.5-3.1-2.4-3.6-3.9s1.4-3.8,1-5.4c-0.5-1.5,0.5-3.5,0.1-5s-5.3-1.9-5.7-3.4c-0.4-1.5,4.7-4.6,4.3-6.1
			c-0.4-1.5-6.2-1.8-6.6-3.3s6.9-4.9,6.5-6.5s-4.8-2.2-5.2-3.7c-0.3-1.6,2.1-3.7,1.8-5.3c-0.3-1.6-2.6-2.7-3-4.3
			c-0.3-1.6-1.1-3-1.4-4.6s-1.5-3-1.8-4.6s2.6-3.8,2.3-5.3c-0.3-1.6-0.9-3.1-1.2-4.7c-0.3-1.6-3.8-2.6-4.1-4.2
			c-0.3-1.6,1.7-3.5,1.4-5.1c-0.3-1.6,0-3.2-0.3-4.8s-4.5-2.5-4.8-4.1c-0.2-1.6-2.2-2.9-2.4-4.5s8-4.4,7.8-6s-5-2.5-5.2-4.1
			s2.4-3.6,2.2-5.2c-0.2-1.6-7.2-2.3-7.4-3.9c-0.2-1.6,4.7-3.9,4.5-5.5s-1.4-3.1-1.6-4.6c-0.2-1.6,3.3-3.6,3.1-5.2
			c-0.2-1.6-7.3-2.4-7.5-4s-0.6-3.2-0.8-4.8s2.2-3.5,2.1-5.1c-0.2-1.6,5.2-3.8,5-5.4c-0.2-1.6-5.3-2.7-5.5-4.3s0.8-3.3,0.6-4.9
			c-0.2-1.6-1.6-3.1-1.8-4.7c-0.1-1.6,2.3-3.4,2.2-5s1.9-3.4,1.8-5c-0.1-1.6-2.2-3-2.3-4.6s-4.9-2.9-5.1-4.4
			c-0.1-1.6-2.3-3.1-2.4-4.7c-0.1-1.6,0.4-3.3,0.3-4.9c-0.1-1.6,5-3.5,4.9-5.1s0.7-3.3,0.6-4.8c-0.1-1.6-3-3.1-3.1-4.6
			c-0.1-1.6,0.3-3.2,0.2-4.8c-0.1-1.6-1.3-3.2-1.4-4.8c-0.1-1.6,1.5-3.3,1.4-4.9s0.2-3.2,0.2-4.8c0-1.6,3-3.3,3-4.9
			s-6.3-3.2-6.3-4.7c0-1.6,1.9-3.3,1.9-4.8c0-1.6,1.6-3.2,1.6-4.8c0-1.6,1.1-3.2,1.1-4.8c0-1.6-1.2-3.2-1.1-4.8
			c0-1.6-1.8-3.3-1.7-4.9s4.4-3,4.5-4.6s-2.4-3.3-2.3-4.9c0.1-1.6-4.7-3.5-4.6-5.1c0.1-1.6,2.7-3,2.8-4.6s2.8-3,2.9-4.6
			c0.2-1.6-1.3-3.3-1.1-4.9s3-2.9,3.2-4.5s-1.2-3.4-1-4.9c0.2-1.6-4.2-3.8-4-5.4s3.3-2.8,3.6-4.4c0.2-1.6,3.6-2.7,3.8-4.3
			c0.3-1.6,2.1-2.9,2.3-4.4c0.3-1.6-5.7-4.3-5.4-5.8c0.3-1.6,2.9-2.7,3.2-4.3c0.3-1.6-2.3-3.7-2-5.3c0.3-1.6,2-2.9,2.3-4.4
			c0.3-1.6,0.4-3.2,0.7-4.8c0.4-1.6,3.8-2.4,4.2-4c0.4-1.6,1.9-2.8,2.3-4.4c0.4-1.5-2.9-4.1-2.5-5.6s6.3-1.6,6.7-3.1
			c0.4-1.5,0.8-3.1,1.2-4.6c0.4-1.5-3.4-4.3-3-5.9c0.5-1.5,3.7-2.2,4.2-3.7s1.9-2.7,2.4-4.2s-1.6-3.9-1.1-5.4s1.1-3,1.7-4.5
			c0.5-1.5,5.1-1.5,5.7-3s-2.1-4.2-1.6-5.7c0.6-1.5,0.6-3.2,1.2-4.7s3.7-1.9,4.3-3.4c0.6-1.5-5.7-5.8-5-7.3c0.6-1.5,7.3-0.4,7.9-1.8
			c0.6-1.5-0.6-3.8,0-5.2c0.7-1.5,5.7-0.9,6.3-2.3c0.7-1.4-1.4-4.1-0.7-5.6c0.7-1.4-1.1-4.1-0.4-5.5s2.9-2.1,3.6-3.5s3.3-1.9,4-3.3
			s-4.1-5.8-3.3-7.2c0.8-1.4,3.7-1.7,4.5-3c0.8-1.4,6-0.3,6.8-1.6c0.8-1.4-3.1-5.5-2.3-6.9c0.8-1.4,0.4-3.5,1.3-4.9
			c0.8-1.4,3.1-1.9,3.9-3.2c0.9-1.3,6.2,0.2,7.1-1.1s-1.3-4.7-0.4-6s3.7-1.3,4.6-2.6s2.2-2.3,3.1-3.6s-2.4-5.7-1.5-7s5.7,0.3,6.7-1
			s1.3-3,2.3-4.2c1-1.3-0.5-4.5,0.5-5.7s0.6-3.7,1.6-4.9s6.2,1,7.2-0.2s1.5-2.9,2.5-4.1c1.1-1.2,4.3-0.4,5.3-1.6
			c1.1-1.2,1-3.4,2.1-4.5c1.1-1.2,3.5-1,4.6-2.2s0.7-3.8,1.8-4.9c1.1-1.1,0.7-3.8,1.8-4.9c1.1-1.1,2.3-2.2,3.4-3.3
			c1.2-1.1,3.1-1.4,4.2-2.5c1.2-1.1,4.7,0.5,5.9-0.6c1.2-1.1-3-8.2-1.7-9.3c1.2-1,6.1,2.2,7.3,1.2c1.2-1,4.3,0.3,5.6-0.7
			c1.2-1-3-8.9-1.7-9.9s2.7-1.9,3.9-2.8c1.3-1,6.2,3,7.5,2.1s2.8-1.5,4.1-2.4c1.3-0.9,1.4-3.6,2.7-4.5c1.3-0.9,2.5-2,3.9-2.8
			c1.3-0.9,4.9,2,6.3,1.1c1.4-0.8,2.4-2,3.8-2.8s1.4-3.8,2.8-4.6s0.8-5.2,2.2-6c1.4-0.8,3.7,0.1,5.1-0.6c1.4-0.7,3.4-0.4,4.8-1.1
			s3.7,0.5,5.2-0.2c1.4-0.7,3.8,0.7,5.2,0.1c1.5-0.6,2.4-2.4,3.8-3c1.5-0.6,2.8-1.5,4.3-2.1s2.1-3.2,3.6-3.8
			c1.5-0.6,3.9,1.6,5.4,1.1s0.4-8.7,1.9-9.2s5.4,6.4,6.9,5.9s2.5-2.6,4-3s2.7-2.1,4.3-2.5c1.5-0.4,3.7,2,5.3,1.6
			c1.6-0.4,3-1,4.5-1.3c1.6-0.3,2.7-2.4,4.3-2.7c1.6-0.3,2.2-6,3.7-6.3c1.6-0.3,4.1,5.2,5.7,5s2.5-5.6,4.1-5.8
			c1.6-0.2,3.7,3.6,5.3,3.4c1.6-0.2,3.3,1,4.9,0.8c1.6-0.1,3.1-1.1,4.7-1.2s3.1-2,4.7-2.1h0.2c1.6,0.1,3.1,2,4.7,2.1
			c1.6,0.1,3.1,1.1,4.7,1.2c1.6,0.1,3.3-1,4.9-0.8c1.6,0.2,3.7-3.6,5.3-3.4s2.5,5.5,4.1,5.8c1.6,0.2,4.1-5.3,5.7-5
			c1.6,0.3,2.2,6,3.7,6.3c1.6,0.3,2.7,2.4,4.3,2.7c1.6,0.3,3,0.9,4.5,1.3c1.6,0.4,3.8-2,5.3-1.6s2.7,2,4.3,2.5c1.5,0.4,2.5,2.6,4,3
			c1.5,0.5,5.4-6.4,6.9-5.9s0.4,8.7,1.9,9.2s3.9-1.7,5.4-1.1s2.2,3.2,3.6,3.8c1.5,0.6,2.8,1.4,4.3,2.1c1.5,0.6,2.4,2.3,3.8,3
			c1.5,0.6,3.8-0.7,5.2-0.1c1.4,0.7,3.8-0.5,5.2,0.2s3.4,0.4,4.8,1.1c1.4,0.7,3.7-0.1,5.1,0.6c1.4,0.8,0.8,5.2,2.2,6
			s1.4,3.8,2.8,4.6c1.4,0.8,2.4,2,3.8,2.8c1.4,0.8,5-2,6.3-1.1s2.5,2,3.9,2.8c1.3,0.9,1.4,3.6,2.7,4.5s2.8,1.4,4.1,2.4
			c1.3,0.9,6.2-3,7.5-2.1c1.3,1,2.7,1.9,3.9,2.8c1.3,1-3,8.9-1.7,9.9c1.2,1,4.3-0.4,5.6,0.7c1.2,1,6.1-2.2,7.3-1.2s-2.9,8.2-1.7,9.3
			s4.7-0.5,5.9,0.6s3.1,1.4,4.2,2.5c1.2,1.1,2.3,2.2,3.4,3.3c1.1,1.1,0.7,3.8,1.8,4.9c1.1,1.1,0.7,3.7,1.8,4.9
			c1.1,1.1,3.5,1,4.6,2.2s1,3.3,2.1,4.5s4.3,0.4,5.3,1.6c1.1,1.2,1.5,2.9,2.5,4.1c1,1.2,6.2-1,7.2,0.2s0.6,3.7,1.6,4.9
			s-0.5,4.5,0.5,5.7c1,1.3,1.4,2.9,2.3,4.2c1,1.3,5.7-0.3,6.7,1c0.9,1.3-2.4,5.7-1.5,7s2.2,2.3,3.1,3.6c0.9,1.3,3.8,1.3,4.6,2.6
			c0.9,1.3-1.3,4.7-0.4,6c0.9,1.3,6.2-0.2,7.1,1.1c0.9,1.3,3.1,1.9,3.9,3.2c0.8,1.4,0.4,3.5,1.3,4.9c0.8,1.4-3.1,5.5-2.3,6.9
			s6,0.3,6.8,1.6c0.8,1.4,3.7,1.6,4.5,3s-4.1,5.8-3.3,7.2c0.7,1.4,3.3,1.9,4,3.3s2.9,2.1,3.6,3.5c0.7,1.4-1.1,4.1-0.4,5.5
			c0.7,1.4-1.4,4.1-0.7,5.6c0.7,1.4,5.7,0.9,6.3,2.3c0.7,1.5-0.6,3.7,0,5.2s7.3,0.4,7.9,1.8c0.6,1.5-5.6,5.8-5,7.3s3.7,1.9,4.3,3.4
			s0.6,3.2,1.2,4.7c0.6,1.5-2.1,4.2-1.6,5.7s5.1,1.5,5.7,3c0.5,1.5,1.2,3,1.7,4.5s-1.5,3.9-1.1,5.4c0.5,1.5,1.9,2.7,2.4,4.2
			s3.7,2.2,4.2,3.7s-3.4,4.3-3,5.9c0.4,1.5,0.8,3.1,1.2,4.6s6.3,1.6,6.7,3.1s-2.9,4.1-2.5,5.6s1.9,2.8,2.3,4.4
			c0.4,1.5,3.8,2.4,4.2,4s0.4,3.2,0.7,4.8c0.3,1.6,2,2.9,2.3,4.4c0.3,1.6-2.3,3.7-2,5.3c0.3,1.6,2.9,2.7,3.2,4.3
			c0.3,1.6-5.7,4.3-5.4,5.8c0.3,1.6,2.1,2.9,2.3,4.4c0.3,1.6,3.6,2.7,3.8,4.3c0.2,1.6,3.3,2.8,3.6,4.4c0.2,1.6-4.2,3.8-4,5.4
			s-1.2,3.4-1,4.9c0.2,1.6,3,2.9,3.2,4.5s-1.3,3.3-1.1,4.9s2.8,3,2.9,4.6c0.1,1.6,2.7,3,2.8,4.6s-4.7,3.5-4.6,5.1
			c0.1,1.6-2.4,3.3-2.3,4.9c0.1,1.6,4.4,3,4.5,4.6s-1.8,3.3-1.7,4.9c0,1.6-1.2,3.2-1.1,4.8c0,1.6,1.1,3.2,1.1,4.8
			c0,1.6,1.6,3.2,1.6,4.8c0,1.6,1.9,3.2,1.9,4.8c0,1.6-6.3,3.1-6.3,4.7s3,3.2,3,4.9c0,1.6,0.2,3.2,0.2,4.8c-0.1,1.6,1.5,3.2,1.4,4.9
			c-0.1,1.6-1.3,3.1-1.4,4.8c-0.1,1.6,0.3,3.2,0.2,4.8c-0.1,1.6-3,3-3.1,4.6s0.7,3.2,0.6,4.8c-0.1,1.6,5,3.5,4.9,5.1
			s0.4,3.3,0.3,4.9c-0.1,1.6-2.3,3.1-2.4,4.7c-0.1,1.6-4.9,2.8-5.1,4.4c-0.1,1.6-2.2,3-2.3,4.6s1.9,3.4,1.8,5
			c-0.1,1.6,2.3,3.4,2.2,5s-1.6,3.1-1.8,4.7c-0.2,1.6,0.8,3.3,0.6,4.9c-0.2,1.6-5.3,2.7-5.5,4.3s5.2,3.8,5,5.4
			c-0.2,1.6,2.2,3.5,2.1,5.1c-0.2,1.6-0.6,3.2-0.8,4.8s-7.3,2.4-7.5,4s3.3,3.6,3.1,5.2c-0.2,1.6-1.4,3.1-1.6,4.6
			c-0.2,1.6,4.7,3.9,4.5,5.5s-7.2,2.3-7.4,3.9c-0.2,1.6,2.4,3.6,2.2,5.2c-0.2,1.6-5,2.5-5.2,4.1s8,4.5,7.8,6
			c-0.2,1.6-2.2,2.9-2.4,4.5c-0.3,1.6-4.5,2.5-4.8,4.1s0,3.2-0.3,4.8s1.7,3.6,1.4,5.1c-0.3,1.6-3.8,2.6-4.1,4.2
			c-0.3,1.6-0.9,3.1-1.2,4.7c-0.3,1.6,2.6,3.8,2.3,5.3c-0.3,1.6-1.5,3-1.8,4.6s-1.1,3.1-1.4,4.6c-0.3,1.6-2.6,2.7-3,4.3
			c-0.3,1.6,2.1,3.8,1.8,5.3c-0.4,1.6-4.8,2.2-5.2,3.7c-0.4,1.6,6.9,5,6.5,6.5c-0.4,1.6-6.2,1.8-6.6,3.3c-0.4,1.6,4.7,4.6,4.3,6.1
			c-0.4,1.6-5.3,1.9-5.7,3.4c-0.4,1.6,0.5,3.5,0.1,5c-0.5,1.6,1.4,3.9,1,5.4c-0.5,1.6-3.1,2.4-3.6,3.9c-0.5,1.6-6.6,1.1-7.2,2.6
			c-0.6,1.5,2.3,4.3,1.8,5.7c-0.6,1.5,2.3,4.5,1.7,5.9c-0.6,1.5-7.4,0.2-8.1,1.7c-0.4,0.8,0.8,2.3,0.5,3.1c-0.6,1.5-3.2,2.4-3.7,3.8
			c-0.5,1.5,7.4,5.6,7,7.1s-7.2,1.4-7.5,3s-0.4,3.3-0.6,4.8c-0.2,1.6-0.9,3.2-1,4.8s2,3.3,2,4.9c0,1.6,4.3,2.8,4.5,4.4
			c0.1,1.6-4.6,3.6-4.3,5.1c0.2,1.6,0.7,3.1,1,4.7c0.3,1.5,3.1,2.4,3.5,3.9s-2.5,4.2-2,5.6c0.5,1.5-0.4,3.8,0.2,5.2
			c0.6,1.4,4.5,1.5,5.2,2.8c0.7,1.4,0.9,3.2,1.7,4.5s4,1,5,2.3c0.9,1.3,2,2.3,3,3.5s-3.1,7-2,8.2c1.1,1.1,7.3-2.8,8.5-1.7
			s0.8,3.7,2.1,4.7c1.2,1,3.2,0.9,4.5,1.8c1.3,0.9-0.5,6.7,0.8,7.5s6.9-6,8.4-5.2c1.4,0.7-0.3,7.8,1.2,8.4c1.4,0.6,4.9-3.8,6.4-3.3
			s0.8,7.9,2.4,8.3c1.5,0.4,4.8-6.1,6.4-5.8c1.5,0.3,1.9,7.1,3.4,7.3s4.2-7.7,5.8-7.5s2.9,0.7,4.5,0.8s3-0.1,4.6,0
			c1.6,0,3.1,7.8,4.7,7.7c1.6,0,2.8-8.3,4.4-8.4c1.6-0.1,3.6,7,5.2,6.9c1.6-0.1,3.4,1.5,5,1.3c0,0-101.1,241.4-353.4,243.8
			C173.5,1055.3,111.2,783.8,111.2,783.8z"/>
	</g>
	<g id="Monster_5" class="st1">
		<path class="st5" d="M555.2,1102.5"/>
		<path class="st5" d="M981.6,555.5L865,550.1c-39.9-1.8-73.2,30-73.2,69.9v228.1c0,1.5-0.1,2.9-0.2,4.3
			c-0.8,11.7-18.4,11.1-18.5-0.6c0-0.2,0-0.3,0-0.5c0-74.1-10-200.1-10-307.5c0-106.8,10-195.1,10-195.7
			c0-115.7-191.2-268.8-253.6-271.6c-62.4-2.8-256.1,155.9-256.1,271.6c0,0.1,9.5,94.9,8.9,198c-0.6,99-11.2,205.8-11.4,244
			c-0.1,18.6-27.8,19.2-28.7,0.6c-3.7-76.7,1-167.1,1.2-170.8c0-0.1,0-0.2,0-0.2c-0.1-39.9-33.4-71.6-73.2-69.8l-116.5,5.6
			c-14.9,0.7-26.7,13-26.7,28v1.1c0,14.2,11,25.9,25.1,26.9l90.5,6.3c15.7,1.1,27.9,14.2,27.9,29.9l0.8,243.5
			c0,0,104.8,201.5,342.5,168.2c265.8-37.2,361-287.2,361-287.2V647.6c0-15.8,12.2-28.8,27.9-29.9l90.5-6.3
			c14.1-1,25.1-12.8,25.1-26.9v-1.1C1008.3,568.5,996.5,556.2,981.6,555.5z"/>
		<ellipse class="st6" cx="75.5" cy="612.1" rx="20.9" ry="6.7"/>
		
			<ellipse transform="matrix(0.1304 -0.9915 0.9915 0.1304 -502.8656 662.135)" class="st6" cx="126" cy="617.7" rx="6.7" ry="20.9"/>
		
			<ellipse transform="matrix(0.9972 -7.475945e-02 7.475945e-02 0.9972 -48.5952 13.7748)" class="st6" cx="159.7" cy="656" rx="6.7" ry="20.9"/>
		<ellipse class="st6" cx="162" cy="711.9" rx="6.7" ry="20.9"/>
		<ellipse class="st6" cx="164" cy="766" rx="6.7" ry="20.9"/>
		<ellipse class="st6" cx="163.3" cy="825.8" rx="6.7" ry="20.9"/>
		<ellipse class="st6" cx="952.1" cy="612.1" rx="20.9" ry="6.7"/>
		
			<ellipse transform="matrix(0.9915 -0.1304 0.1304 0.9915 -72.851 122.8298)" class="st6" cx="901.5" cy="617.7" rx="20.9" ry="6.7"/>
		
			<ellipse transform="matrix(7.475945e-02 -0.9972 0.9972 7.475945e-02 148.7282 1472.4327)" class="st6" cx="867.8" cy="656.1" rx="20.9" ry="6.7"/>
		<ellipse class="st6" cx="865.5" cy="711.9" rx="6.7" ry="20.9"/>
		<path class="st6" d="M860.1,783.9c-1.9-3.7-3.2-10.3-3.2-17.9c0-11.5,3-20.9,6.7-20.9c3,0,5.5,6.1,6.4,14.4L860.1,783.9z"/>
	</g>
	<g id="featureset-2" class="st1">
		<g class="st2">
			<circle class="st7" cx="520.9" cy="398.5" r="99"/>
			<path class="st8" d="M520.9,303.5c52.4,0,95,42.6,95,95s-42.6,95-95,95s-95-42.6-95-95S468.5,303.5,520.9,303.5 M520.9,295.5
				c-56.9,0-103,46.1-103,103s46.1,103,103,103s103-46.1,103-103S577.8,295.5,520.9,295.5L520.9,295.5z"/>
		</g>
		<g class="st2">
			<circle class="st9" cx="520.9" cy="394.6" r="70.8"/>
		</g>
		<g class="st2">
			<ellipse transform="matrix(0.3162 -0.9487 0.9487 0.3162 -18.1699 763.9911)" cx="520.9" cy="394.6" rx="38.6" ry="38.6"/>
		</g>
		<g class="st2">
			<path class="st10" d="M520.9,497.5c-49.4,0-91.1-36.3-98-84.8c10-3.6,53.8-14.1,98.9-14.1c44.2,0,87.3,10.4,97.2,14
				C612,461.2,570.3,497.5,520.9,497.5z"/>
			<path class="st8" d="M521.8,402.6c39.3,0,79,8.6,92.6,12.7c-8,45-47.2,78.2-93.5,78.2s-85.5-33.2-93.5-78.1
				C441.2,411.3,481.5,402.6,521.8,402.6L521.8,402.6 M521.8,394.6C521.8,394.6,521.7,394.6,521.8,394.6
				c-51.6,0-103.5,13.9-103.3,15.9c5.9,51.3,49.5,91.1,102.3,91.1c52.9,0,96.5-39.9,102.3-91.2C623.4,408.4,572.8,394.6,521.8,394.6
				L521.8,394.6z"/>
		</g>
		<path class="st11" d="M608.3,234.2c-4.2-4.2-10.6-5.5-17.5-4.1c1.4-13.3-2-24.2-10-27.7c-8.9-4-20.9,2.3-30.5,14.6
			c-7.2-23.2-24.1-38.5-39.6-35.1c-11.3,2.5-19,14.4-21,30c-13.9-10.5-30-13.1-40.2-5.1c-7.7,6-10.3,16.8-8.1,28.5
			c-7.6-1.2-14.5,0.5-18.6,5.4c-7.7,9.1-2.9,25.7,10.7,37.2c13.6,11.4,30.8,13.3,38.4,4.2c0.9-1.1,1.7-2.4,2.3-3.7
			c11.5,5.7,23.4,6.1,31.5-0.3c2.2-1.8,4-3.9,5.4-6.4c6.6,5.3,14,7.6,21.1,6c2.4-0.5,4.6-1.5,6.6-2.8c1.7,2.8,3.9,4.9,6.6,6.1
			c5,2.2,10.9,1.3,16.9-2.2c0.2,0.3,0.4,0.5,0.7,0.8c8.4,8.4,25.4,5.1,37.9-7.4C613.4,259.6,616.8,242.6,608.3,234.2z"/>
		<path class="st11" d="M402.2,181.1c-0.1-0.1-0.2-0.1-0.3-0.2l-95.4-45.2c-5-2.3-10.3,2.3-8.7,7.6L328.6,244
			c0.2,0.3,0.2,0.6,0.3,0.6c0.1,0.3,0.3,0.6,0.5,0.8c5,5.8,25.6-3.7,45.9-21.2c20.3-17.6,32.8-36.6,27.8-42.4
			C402.8,181.5,402.5,181.3,402.2,181.1z"/>
		<path class="st11" d="M655.3,176.8c0.1-0.1,0.2-0.1,0.3-0.2l95.4-45.2c5-2.3,10.3,2.3,8.7,7.6l-30.8,100.7
			c-0.2,0.3-0.2,0.6-0.3,0.6c-0.1,0.3-0.3,0.6-0.5,0.8c-5,5.8-25.6-3.7-45.9-21.2s-32.8-36.6-27.8-42.4
			C654.7,177.2,655,177,655.3,176.8z"/>
		<path class="st11" d="M472.9,618.1c-8.4,0-14.6-8-12.3-16c7.4-25.7,32.2-44.6,61.7-44.6c29.5,0,54.3,18.9,61.7,44.6
			c2.3,8-4,16-12.3,16H472.9z"/>
		<g class="st2">
			<circle class="st3" cx="501.5" cy="593.2" r="7.7"/>
			<circle class="st3" cx="543.2" cy="593.2" r="7.7"/>
		</g>
		<g class="st2">
			<path class="st7" d="M472,792.7c4.8-33.2,20.7-58.3,35.3-56.1c14.7,2.1,22.7,30.8,17.8,63.9L472,792.7z"/>
			<path class="st7" d="M586.2,780.1c-10.4-19.6-27.3-31-37.6-25.5s-10.3,25.8,0.2,45.4L586.2,780.1z"/>
			<path class="st7" d="M452.4,772.6c11.8-10.4,16.8-23.9,11.3-30.1c-5.5-6.2-19.5-2.8-31.2,7.6L452.4,772.6z"/>
			<path class="st7" d="M610.4,753.1c-10.6-5.9-21.8-6.1-24.9-0.5c-3.1,5.6,3,15,13.6,20.9L610.4,753.1z"/>
			<path class="st12" d="M631.7,724.2c-14.3,45.3-56.7,78.2-106.8,78.2c-49.7,0-91.8-32.3-106.5-77.1"/>
		</g>
	</g>
	<g id="featureset-3" class="st1">
		<g class="st2">
			<path class="st3" d="M843,438.6c-15.6,34-47,51.6-70.2,39.3c-23.2-12.2-32.9-50.1-21.8-84.5c11.1-34.4,42.6-52,70.2-39.3
				C848.9,366.8,858.6,404.6,843,438.6z"/>
		</g>
		<g class="st2">
			<path class="st3" d="M203.9,438.6c15.6,34,47,51.6,70.2,39.3c23.2-12.2,32.9-50.1,21.8-84.5s-42.6-52-70.2-39.3
				S188.3,404.6,203.9,438.6z"/>
		</g>
		<g class="st2">
			<circle class="st3" cx="458.3" cy="558.1" r="7.7"/>
			<circle class="st3" cx="500" cy="558.1" r="7.7"/>
		</g>
		<g class="st2">
			<path class="st8" d="M483.5,621c-8.4,0-14.6-8-12.3-16c7.4-25.7,32.2-44.6,61.7-44.6s54.3,18.9,61.7,44.6c2.3,8-4,16-12.3,16
				H483.5z"/>
			<g>
				<circle class="st3" cx="512" cy="596.1" r="7.7"/>
				<circle class="st3" cx="553.7" cy="596.1" r="7.7"/>
			</g>
		</g>
		<g class="st2">
			<path class="st13" d="M524.2,838.5h1.3c63.6,0,115.2-51.6,115.2-115.2v-16.7c0-5.4-4.4-9.7-9.7-9.7H418.7c-5.4,0-9.7,4.4-9.7,9.7
				v16.7C409,786.9,460.5,838.5,524.2,838.5z"/>
			<path class="st7" d="M462.6,753.5L462.6,753.5c-13.4,0-24.3-10.9-24.3-24.3v-26.1h47.6v27.2C485.9,743.1,475.5,753.5,462.6,753.5
				z"/>
			<path class="st7" d="M583.1,753.5L583.1,753.5c-13.4,0-24.3-10.9-24.3-24.3v-26.1h47.6v27.2C606.3,743.1,595.9,753.5,583.1,753.5
				z"/>
			<path class="st8" d="M526.3,790.2c-33.3,0-60.8,12.7-65.5,29.3c18.2,12,39.9,18.9,63.3,18.9h1.3c24.4,0,47.1-7.6,65.7-20.6
				C585.4,802.1,558.5,790.2,526.3,790.2z"/>
		</g>
		<path class="st14" d="M258.3,381.9c0,0-37.7-28.3-42,24"/>
		<path class="st14" d="M786.3,381.9c0,0,37.7-28.3,42,24"/>
		<g class="st2">
			<path class="st15" d="M437.9,316.9c-6.8-4.7-15-7.5-23.9-7.5c-9.6,0-18.5,3.2-25.5,8.7"/>
			<path class="st15" d="M557,316.9c-6.8-4.7-15-7.5-23.9-7.5c-9.6,0-18.5,3.2-25.5,8.7"/>
			<path class="st15" d="M482.8,418.6c-6.8-4.7-15-7.5-23.9-7.5c-9.6,0-18.5,3.2-25.5,8.7"/>
			<path class="st15" d="M601.8,418.6c-6.8-4.7-15-7.5-23.9-7.5c-9.6,0-18.5,3.2-25.5,8.7"/>
			<path class="st15" d="M676,316.9c-6.8-4.7-15-7.5-23.9-7.5c-9.6,0-18.5,3.2-25.5,8.7"/>
			<g>
				<circle class="st7" cx="458.7" cy="466" r="38"/>
				<path d="M458.7,432c18.7,0,34,15.3,34,34s-15.3,34-34,34s-34-15.3-34-34S440,432,458.7,432 M458.7,424c-23.2,0-42,18.8-42,42
					s18.8,42,42,42s42-18.8,42-42S481.9,424,458.7,424L458.7,424z"/>
			</g>
			<g>
				<circle class="st9" cx="458.7" cy="463.6" r="17.3"/>
			</g>
			<g>
				<circle cx="458.7" cy="463.6" r="9.4"/>
			</g>
			<g>
				<circle class="st7" cx="577.7" cy="466" r="38"/>
				<path d="M577.7,432c18.7,0,34,15.3,34,34s-15.3,34-34,34s-34-15.3-34-34S559,432,577.7,432 M577.7,424c-23.2,0-42,18.8-42,42
					s18.8,42,42,42s42-18.8,42-42S600.9,424,577.7,424L577.7,424z"/>
			</g>
			<g>
				<circle class="st9" cx="577.7" cy="461.6" r="17.3"/>
			</g>
			<g>
				<circle cx="577.7" cy="461.6" r="9.4"/>
			</g>
			<polygon class="st7" points="469.7,445 457.7,464 476.7,452 			"/>
			<polygon class="st7" points="589.7,444 577.7,463 596.7,451 			"/>
			<g>
				<circle class="st7" cx="413.8" cy="364.2" r="38"/>
				<path d="M413.8,330.2c18.7,0,34,15.3,34,34s-15.3,34-34,34s-34-15.3-34-34S395.1,330.2,413.8,330.2 M413.8,322.2
					c-23.2,0-42,18.8-42,42s18.8,42,42,42s42-18.8,42-42S437,322.2,413.8,322.2L413.8,322.2z"/>
			</g>
			<g>
				<circle class="st9" cx="413.8" cy="361.7" r="17.3"/>
			</g>
			<g>
				<circle cx="413.8" cy="361.7" r="9.4"/>
			</g>
			<polygon class="st7" points="424.8,343.2 412.8,362.2 431.8,350.2 			"/>
			<g>
				<circle class="st7" cx="532.9" cy="365.3" r="38"/>
				<path d="M532.9,331.3c18.7,0,34,15.3,34,34s-15.3,34-34,34s-34-15.3-34-34S514.2,331.3,532.9,331.3 M532.9,323.3
					c-23.2,0-42,18.8-42,42s18.8,42,42,42s42-18.8,42-42S556.1,323.3,532.9,323.3L532.9,323.3z"/>
			</g>
			<g>
				<circle class="st9" cx="532.9" cy="361.8" r="17.3"/>
			</g>
			<g>
				<circle cx="532.9" cy="361.8" r="9.4"/>
			</g>
			<g>
				<circle class="st7" cx="651.9" cy="365.3" r="38"/>
				<path d="M651.9,331.3c18.7,0,34,15.3,34,34s-15.3,34-34,34s-34-15.3-34-34S633.2,331.3,651.9,331.3 M651.9,323.3
					c-23.2,0-42,18.8-42,42s18.8,42,42,42s42-18.8,42-42S675.1,323.3,651.9,323.3L651.9,323.3z"/>
			</g>
			<g>
				<circle class="st9" cx="651.9" cy="360.8" r="17.3"/>
			</g>
			<g>
				<circle cx="651.9" cy="360.8" r="9.4"/>
			</g>
			<polygon class="st7" points="543.9,343.3 531.9,362.3 550.9,350.3 			"/>
			<polygon class="st7" points="663.9,342.3 651.9,361.3 670.9,349.3 			"/>
			<g>
				<path class="st10" d="M577.4,505.3c-19.8,0-36.5-14.5-39.5-33.9c4.6-1.5,21.9-5.6,39.8-5.6c17.6,0,34.6,4,39.1,5.6
					C613.9,490.8,597.2,505.3,577.4,505.3z"/>
				<path d="M577.7,468c15.3,0,30.6,3.2,36.7,4.9c-3.5,17.5-18.9,30.3-37.1,30.3c-18.2,0-33.6-12.8-37.1-30.3
					C546.4,471.2,562.1,468,577.7,468L577.7,468 M577.7,463.7L577.7,463.7c-21.1,0-42.2,5.7-42.2,6.5c2.4,20.9,20.2,37.2,41.8,37.2
					s39.4-16.3,41.8-37.2C619.2,469.4,598.5,463.7,577.7,463.7L577.7,463.7z"/>
			</g>
			<g>
				<path class="st10" d="M458.8,505.3c-19.8,0-36.5-14.5-39.5-33.9c4.6-1.5,21.9-5.6,39.8-5.6c17.6,0,34.6,4,39.1,5.6
					C495.4,490.8,478.6,505.3,458.8,505.3z"/>
				<path d="M459.2,468c15.3,0,30.6,3.2,36.7,4.9c-3.5,17.5-18.9,30.3-37.1,30.3s-33.6-12.8-37.1-30.3
					C427.9,471.2,443.5,468,459.2,468L459.2,468 M459.2,463.7L459.2,463.7c-21.1,0-42.2,5.7-42.2,6.5c2.4,20.9,20.2,37.2,41.8,37.2
					c21.6,0,39.4-16.3,41.8-37.2C500.7,469.4,480,463.7,459.2,463.7L459.2,463.7z"/>
			</g>
			<g>
				<path class="st10" d="M413.8,403.7c-19.8,0-36.5-14.5-39.5-33.9c4.6-1.5,21.9-5.6,39.8-5.6c17.6,0,34.6,4,39.1,5.6
					C450.3,389.3,433.6,403.7,413.8,403.7z"/>
				<path d="M414.1,366.4c15.3,0,30.6,3.2,36.7,4.9c-3.5,17.5-18.9,30.3-37.1,30.3s-33.6-12.8-37.1-30.3
					C382.9,369.6,398.5,366.4,414.1,366.4L414.1,366.4 M414.1,362.2L414.1,362.2c-21.1,0-42.2,5.7-42.2,6.5
					c2.4,20.9,20.2,37.2,41.8,37.2c21.6,0,39.4-16.3,41.8-37.2C455.6,367.8,435,362.2,414.1,362.2L414.1,362.2z"/>
			</g>
			<g>
				<path class="st10" d="M533.3,403.7c-19.8,0-36.5-14.5-39.5-33.9c4.6-1.5,21.9-5.6,39.8-5.6c17.6,0,34.6,4,39.1,5.6
					C569.9,389.3,553.2,403.7,533.3,403.7z"/>
				<path d="M533.7,366.4c15.3,0,30.6,3.2,36.7,4.9c-3.5,17.5-18.9,30.3-37.1,30.3c-18.2,0-33.6-12.8-37.1-30.3
					C502.4,369.6,518.1,366.4,533.7,366.4L533.7,366.4 M533.7,362.2L533.7,362.2c-21.1,0-42.2,5.7-42.2,6.5
					c2.4,20.9,20.2,37.2,41.8,37.2s39.4-16.3,41.8-37.2C575.2,367.8,554.5,362.2,533.7,362.2L533.7,362.2z"/>
			</g>
			<g>
				<path class="st10" d="M651.9,403.7c-19.8,0-36.5-14.5-39.5-33.9c4.6-1.5,21.9-5.6,39.8-5.6c17.6,0,34.6,4,39.1,5.6
					C688.5,389.3,671.7,403.7,651.9,403.7z"/>
				<path d="M652.3,366.4c15.3,0,30.6,3.2,36.7,4.9c-3.5,17.5-18.9,30.3-37.1,30.3c-18.2,0-33.6-12.8-37.1-30.3
					C621,369.6,636.6,366.4,652.3,366.4L652.3,366.4 M652.3,362.2L652.3,362.2c-21.1,0-42.2,5.7-42.2,6.5
					c2.4,20.9,20.2,37.2,41.8,37.2s39.4-16.3,41.8-37.2C693.8,367.8,673.1,362.2,652.3,362.2L652.3,362.2z"/>
			</g>
		</g>
	</g>
	<g id="featureset-1" class="st1">
		<polygon class="st16" points="453.7,809.1 424.4,748.2 481.8,748.2 		"/>
		<polygon class="st16" points="599,809.1 599,809.1 569.6,748.2 627,748.2 		"/>
		<g class="st2">
			<path d="M393.2,752.3c21.8-5.1,43.5-7.8,65.3-9.7c21.8-1.8,43.5-2.6,65.3-2.6s43.5,0.9,65.3,2.7c21.8,1.9,43.5,4.5,65.3,9.6h0.2
				c0.4,0.1,0.6,0.5,0.5,0.9c-0.1,0.3-0.4,0.5-0.7,0.6l-32.7,0.4l-32.7,0.1l-65.3,0.2l-65.3-0.2l-32.7-0.1l-32.7-0.4
				c-0.4,0-0.7-0.3-0.7-0.7c0-0.3,0.2-0.6,0.6-0.7L393.2,752.3z"/>
		</g>
		<g class="st2">
			<path d="M483.3,781.4c1.7-1.3,3.5-2.5,5.2-3.4c1.7-1,3.5-1.8,5.2-2.6c3.5-1.5,6.9-2.7,10.4-3.6c6.9-1.8,13.8-2.7,20.8-2.6
				c6.9,0,13.8,0.9,20.8,2.7c3.5,0.9,6.9,2.1,10.4,3.6c1.7,0.8,3.5,1.6,5.2,2.6s3.5,2.1,5.2,3.4l0.4,0.3c0.3,0.2,0.3,0.6,0.1,0.9
				c-0.1,0.2-0.3,0.2-0.5,0.3l-10.4,0.4l-10.4,0.2c-6.9,0.1-13.8,0.1-20.8,0.2c-6.9-0.1-13.8-0.1-20.8-0.2l-10.4-0.2l-10.4-0.4
				c-0.4,0-0.6-0.3-0.6-0.7c0-0.2,0.1-0.4,0.2-0.5L483.3,781.4z"/>
		</g>
		<g class="st2">
			<circle class="st7" cx="410.1" cy="413" r="38.9"/>
			<path d="M410.1,376.1c20.3,0,36.9,16.5,36.9,36.9s-16.5,36.9-36.9,36.9s-36.9-16.5-36.9-36.9S389.8,376.1,410.1,376.1
				 M410.1,372.1c-22.6,0-40.9,18.3-40.9,40.9s18.3,40.9,40.9,40.9S451,435.6,451,413S432.7,372.1,410.1,372.1L410.1,372.1z"/>
		</g>
		<g class="st2">
			<circle cx="410.1" cy="413" r="31.9"/>
		</g>
		<g class="st2">
			<circle class="st7" cx="609.6" cy="413" r="38.9"/>
			<path d="M609.6,376.1c20.3,0,36.9,16.5,36.9,36.9s-16.5,36.9-36.9,36.9s-36.9-16.6-36.9-36.9S589.3,376.1,609.6,376.1
				 M609.6,372.1c-22.6,0-40.9,18.3-40.9,40.9s18.3,40.9,40.9,40.9c22.6,0,40.9-18.3,40.9-40.9S632.2,372.1,609.6,372.1L609.6,372.1
				z"/>
		</g>
		<g class="st2">
			<circle cx="609.6" cy="413" r="31.9"/>
		</g>
		<path class="st17" d="M387.8,356.7c34,0,45,0,45,0"/>
		<path class="st17" d="M585.8,356.7c34,0,45,0,45,0"/>
	</g>
	<g id="moster_grid" class="st1">
		<g class="st2">
			<rect x="31.3" y="29.3" class="st18" width="961" height="1095.6"/>
			<line class="st18" x1="992.9" y1="667.5" x2="28.7" y2="667.5"/>
			<line class="st18" x1="992.9" y1="513.3" x2="28.7" y2="513.3"/>
			<line class="st18" x1="992.9" y1="174.3" x2="28.7" y2="174.3"/>
			<line class="st18" x1="992.9" y1="870.5" x2="28.7" y2="870.5"/>
			<rect x="28.7" y="172.2" class="st19" width="966.3" height="339"/>
			<rect x="28.7" y="514.7" class="st20" width="966.3" height="151.2"/>
			<rect x="28.7" y="669.3" class="st21" width="966.3" height="199.9"/>
			<rect x="31.5" y="27.4" class="st22" width="963.4" height="217.7"/>
			<polyline class="st23" points="1010.6,39.5 1053.5,39.5 1053.5,238.1 1010.6,238.1 			"/>
			<polyline class="st24" points="1010.6,179.8 1053.5,179.8 1053.5,501.7 1010.6,501.7 			"/>
			<polyline class="st25" points="1010.6,521.1 1053.5,521.1 1053.5,660 1010.6,660 			"/>
			<polyline class="st26" points="1010.6,678.4 1053.5,678.4 1053.5,861.1 1010.6,861.1 			"/>
			<text transform="matrix(1 0 0 1 1196.6794 757.7693)" style="font-family:'OpenSans-Bold'; font-size:44px;">MOUTH</text>
			<text transform="matrix(1 0 0 1 1221.3005 608.0388)" style="font-family:'OpenSans-Bold'; font-size:44px;">NOSE</text>
			<text transform="matrix(1 0 0 1 1230.6462 395.4216)" style="font-family:'OpenSans-Bold'; font-size:44px;">EYES</text>
			<text transform="matrix(1 0 0 1 1091.1912 146.8689)" style="font-family:'OpenSans-Bold'; font-size:44px;">HAIR/HORNS/ETC</text>
		</g>
	</g>
</g>
</svg>
