<svg id="monster_1" data-name="monster 1" xmlns="http://www.w3.org/2000/svg" viewBox="0 0 1020.61 1063.78"><defs><style>.cls-1{fill:#636363;}</style></defs><title>monster-2</title><path class="cls-1" d="M768.6,577.59c.32-105.48.49-212.91.49-218.15C769.09,225,660.1,116,525.65,116S282.21,225,282.21,359.44c0,4.22.32,113,.63,218.64a349.89,349.89,0,0,1-140.2,281.15s32.6,69.27,99.4,123C456.78,1149,736.78,1034.2,850,803.33,800.54,780.33,768.34,661.32,768.6,577.59ZM308.47,894.5c-12.49,0-22.62-9.64-22.62-21.54s10.13-21.54,22.62-21.54,22.62,9.65,22.62,21.54S321,894.5,308.47,894.5Zm41,17.59a10.16,10.16,0,1,1-3.46-14.3A10.41,10.41,0,0,1,349.52,912.09Zm4.38-66.89a9,9,0,1,1-3.07-12.68A9.24,9.24,0,0,1,353.9,845.2Zm328-319a9.45,9.45,0,1,1,12.5-3.68A9.22,9.22,0,0,1,681.94,526.25Zm28,40.25c-12.49,0-22.62-9.65-22.62-21.54s10.13-21.54,22.62-21.54,22.62,9.64,22.62,21.54S722.45,566.5,710,566.5Z"/></svg>