<?xml version="1.0" encoding="UTF-8" standalone="no"?>
<svg
   xmlns:dc="http://purl.org/dc/elements/1.1/"
   xmlns:cc="http://creativecommons.org/ns#"
   xmlns:rdf="http://www.w3.org/1999/02/22-rdf-syntax-ns#"
   xmlns:svg="http://www.w3.org/2000/svg"
   xmlns="http://www.w3.org/2000/svg"
   xmlns:sodipodi="http://sodipodi.sourceforge.net/DTD/sodipodi-0.dtd"
   xmlns:inkscape="http://www.inkscape.org/namespaces/inkscape"
   id="mouth-1-null"
   viewBox="0 0 1020.6 1063.8"
   version="1.1"
   sodipodi:docname="monster-parts-mouth-1-null-01.svg"
   inkscape:version="0.92.3 (2405546, 2018-03-11)">
  <metadata
     id="metadata17">
    <rdf:RDF>
      <cc:Work
         rdf:about="">
        <dc:format>image/svg+xml</dc:format>
        <dc:type
           rdf:resource="http://purl.org/dc/dcmitype/StillImage" />
        <dc:title>monster-parts-mouth-1-null</dc:title>
      </cc:Work>
    </rdf:RDF>
  </metadata>
  <sodipodi:namedview
     pagecolor="#838383"
     bordercolor="#666666"
     borderopacity="1"
     objecttolerance="10"
     gridtolerance="10"
     guidetolerance="10"
     inkscape:pageopacity="0"
     inkscape:pageshadow="2"
     inkscape:window-width="787"
     inkscape:window-height="480"
     id="namedview15"
     showgrid="false"
     inkscape:zoom="0.2218462"
     inkscape:cx="510.29999"
     inkscape:cy="531.90002"
     inkscape:window-x="927"
     inkscape:window-y="51"
     inkscape:window-maximized="0"
     inkscape:current-layer="mouth-1-null" />
  <defs
     id="defs4">
    <style
       id="style2">.cls-1{fill:#fff;}</style>
  </defs>
  <title
     id="title6">monster-parts-mouth-1-null</title>
  <path
     class="cls-1"
     d="M441.4,707.9H489a0,0,0,0,1,0,0v27.2a23.2,23.2,0,0,1-23.2,23.2h0A24.3,24.3,0,0,1,441.4,734V707.9A0,0,0,0,1,441.4,707.9Z"
     id="path8" />
  <path
     class="cls-1"
     d="M561.9,707.9h47.6a0,0,0,0,1,0,0v27.2a23.2,23.2,0,0,1-23.2,23.2h0A24.3,24.3,0,0,1,561.9,734V707.9a0,0,0,0,1,0,0Z"
     id="path10" />
  <path
     d="M632.3,707.8H415.6a6,6,0,0,1,0-12H632.3a6,6,0,0,1,0,12Z"
     id="path12" />
</svg>
