<svg id="monster_4" data-name="monster 4" xmlns="http://www.w3.org/2000/svg" viewBox="0 0 1020.61 1063.78"><defs><style>.cls-1{fill:#636363;}</style></defs><title>monster-1</title><path class="cls-1" d="M786.07,761.92c-.44-.71-1-1.4-1.38-2.12s-.87-1.45-1.28-2.18-.74-1.53-1.14-2.26-.21-1.8-.6-2.54-.43-1.66-.8-2.41-1.29-1.23-1.65-2-.66-1.55-1-2.31-.8-1.48-1.13-2.25-.13-1.77-.44-2.54-.8-1.49-1.11-2.27.05-1.8-.23-2.59-2-1.07-2.27-1.86-.51-1.61-.77-2.41.07-1.78-.17-2.59-1.14-1.42-1.36-2.23.33-1.83.12-2.64-1.19-1.44-1.38-2.26,1.19-2,1-2.81-.35-1.62-.51-2.44-.76-1.56-.91-2.38-.51-1.61-.64-2.44-1.18-1.52-1.29-2.35.62-1.78.52-2.61.78-1.76.7-2.59-1.8-1.52-1.87-2.36,1.2-1.76,1.16-2.6-.47-1.64-.5-2.48-1-1.65-1-2.49,0-1.69,0-2.53c0-1.27.76-1.26.77-2.52s-.31-1.27-.29-2.53,1.34-1.25,1.36-2.51-.53-1.27-.51-2.54.53-1.25.55-2.52-2-1.29-2-2.55.13-1.26.15-2.52.38-1.26.4-2.52.23-1.27.25-2.53.69-1.25.71-2.52.08-1.26.09-2.52-.67-1.28-.65-2.54.18-1.26.2-2.52.46-1.26.47-2.53-.28-1.26-.27-2.53.3-1.26.32-2.52-.47-1.27-.45-2.54.6-1.25.62-2.52-.67-1.27-.65-2.54-.22-1.27-.21-2.53-.4-1.27-.38-2.54,1.55-1.24,1.56-2.51,0-1.26,0-2.53-.53-1.27-.51-2.54-.69-1.27-.68-2.54,1.52-1.24,1.53-2.5-1.21-1.28-1.19-2.55.09-1.26.11-2.53.4-1.26.42-2.52-.77-1.27-.76-2.54.32-1.26.34-2.52.77-1.26.79-2.52-.71-1.27-.69-2.54,1-1.25,1-2.51.35-1.26.37-2.52-1.43-1.29-1.42-2.55,1.31-1.25,1.32-2.51-.33-1.27-.31-2.54.5-1.25.52-2.52.1-1.26.11-2.53-.29-1.27-.27-2.53-.55-1.27-.53-2.54-.28-1.27-.26-2.53,1.18-1.25,1.2-2.52-2-1.29-2-2.56.71-1.25.73-2.52.94-1.25.95-2.52-.36-1.27-.34-2.53-.34-1.27-.32-2.53.52-1.26.54-2.53-.78-1.27-.77-2.54.8-1.25.81-2.51.56-1.26.58-2.53-1.2-1.28-1.19-2.54-.3-1.27-.29-2.53-.18-1.27-.17-2.54.61-1.25.63-2.52.05-1.26.07-2.53-.68-1.27-.67-2.53l0-2.54c0-1.26.37-1.26.38-2.52s1-1.25,1-2.52-1.19-1.28-1.17-2.55.26-1.26.28-2.53.62-1.25.64-2.52.71-1.25.73-2.52-.68-1.27-.66-2.54.61-1.25.63-2.52,0-1.26,0-2.53-.74-1.27-.72-2.54-.66-1.27-.65-2.54-.08-1.26-.07-2.53,0-1.26,0-2.53,1-1.25,1-2.52-.94-1.27-.92-2.54-.05-1.27,0-2.53.52-1.26.54-2.53.8-1.25.82-2.52-.5-1.27-.48-2.54.05-1.26.07-2.53-.61-1.27-.59-2.53,1.78-1.25,1.8-2.51-.52-1.27-.5-2.54-1.32-1.28-1.3-2.55.73-1.25.75-2.52.36-1.26.37-2.52-.09-1.27-.08-2.53.3-1.27.31-2.53-.36-1.27-.34-2.54-.75-1.28-.73-2.54.38-1.26.4-2.53,1.23-1.25,1.24-2.51-1.17-1.28-1.16-2.55.34-1.26.36-2.53-.36-1.27-.35-2.53-.38-1.27-.36-2.54,1.72-1.24,1.74-2.51-.35-1.27-.33-2.53-1.07-1.28-1.05-2.55,1.13-1.25,1.15-2.52-.48-1.27-.46-2.53-.62-1.28-.6-2.54,1.55-1.25,1.57-2.51-1.56-1.29-1.54-2.55.31-1.26.33-2.53.12-1.26.14-2.53-.42-1.27-.4-2.53-.13-1.27-.11-2.54,1.78-1.24,1.8-2.5-1.7-1.29-1.69-2.56.13-1.26.15-2.52,1.73-1.24,1.75-2.51-1.63-1.28-1.61-2.55,1.21-1.24,1.23-2.51.44-1.26.46-2.52S770,400.23,770,399s1.73-1.24,1.75-2.51-1.25-1.28-1.23-2.54,1.07-1.25,1.09-2.52-1.38-1.28-1.36-2.55.44-1.26.46-2.53.07-1.26.09-2.53,1.07-1.25,1.09-2.51-1.07-1.28-1.06-2.55.72-1.25.74-2.52-1-1.27-1-2.54,1-1.25,1.06-2.52.17-1.26.19-2.52-1.21-1.29-1.19-2.55.89-1.26.9-2.52-.9-1.28-.89-2.55,0-1.27,0-2.53.14-1.27.15-2.53.87-1.25.89-2.52-.94-1.28-.93-2.54.65-1.26.67-2.53-.67-1.27-.66-2.54-.09-1.27-.07-2.53,0-1.27,0-2.54,1.35-1.25,1.37-2.51-.74-1.28-.73-2.54,1.22-1.25,1.24-2.52-1.38-1.28-1.36-2.55,1-1.26,1.07-2.52-.46-1.27-.45-2.54,0-1.27,0-2.53-.42-1.28-.4-2.54.45-1.27.47-2.53.29-1.27.3-2.53-1-1.28-1-2.55.85-1.25.87-2.52-1.11-1.28-1.1-2.55.17-1.27.19-2.53S773,304,773,302.77s-.3-1.27-.28-2.53-1.25-1.29-1.23-2.56.07-1.26.09-2.52,1.11-1.25,1.12-2.52.49-1.26.51-2.53-.55-1.27-.54-2.54-.49-1.27-.47-2.54-.41-1.27-.39-2.54,1-1.25,1-2.52-.74-1.28-.72-2.54,1.23-1.26,1.25-2.52-1.34-1.29-1.32-2.56,1.35-1.25,1.37-2.52-.46-1.27-.45-2.54-1.12-1.28-1.1-2.55,1.72-1.25,1.74-2.52-1.72-1.29-1.7-2.55,1-1.26,1-2.52-.18-1.28-.16-2.55-.52-1.27-.5-2.54.22-1.27.24-2.54.75-1.26.76-2.53-1-1.29-1-2.56c0-.85,1.55-1.69,1.54-2.53s-.27-1.71-.29-2.54-1.63-1.65-1.66-2.49.45-1.7.41-2.54.16-1.7.1-2.53.07-1.71,0-2.54-.88-1.61-1-2.44,1.12-1.85,1-2.68-.72-1.62-.85-2.44-.32-1.67-.47-2.5.14-1.76,0-2.58-.06-1.74-.25-2.55-1.68-1.35-1.89-2.16.3-1.84.07-2.64-1.18-1.41-1.43-2.21,0-1.79-.27-2.58-1.21-1.35-1.51-2.13.26-1.93-.07-2.7-1.28-1.29-1.64-2.05-1.24-1.26-1.62-2-.6-1.57-1-2.3-.09-1.9-.52-2.62-.43-1.75-.89-2.45-.92-1.46-1.41-2.14-1.79-.79-2.3-1.46-1.27-1.13-1.81-1.77-1.32-1.06-1.89-1.68-.12-2.21-.72-2.8-1.52-.88-2.13-1.46-1.79-.53-2.42-1.08-1.45-.85-2.11-1.38-1.22-1.13-1.89-1.63-.53-2.17-1.23-2.65-2-.05-2.7-.5-1.55-.66-2.28-1.08-1.58-.58-2.32-1-1.5-.7-2.26-1.07-.92-2-1.69-2.33-1.42-1-2.19-1.33-1.74-.25-2.53-.55-1.8,0-2.6-.25-1.38-1.17-2.18-1.43-1.6-.55-2.41-.79-1.62-.49-2.44-.72-1.54-.82-2.36-1-1.68-.26-2.51-.45-1.7-.12-2.53-.29-1.66-.31-2.5-.46-1.68-.19-2.51-.33-1.57-1-2.4-1.1-1.84.95-2.68.84-1.58-1-2.42-1.06-1.79.9-2.63.82-1.55-1.66-2.39-1.73-1.74.56-2.58.5-1.73.74-2.58.69-1.68.11-2.53.07-1.65-.79-2.49-.82-1.67-.77-2.51-.79-1.71.76-2.55.75-1.69-.07-2.53-.07-1.68.76-2.52.77-1.7-1.25-2.55-1.23-1.68.39-2.52.41-1.68.43-2.52.46-1.71-.47-2.55-.43-1.69,0-2.54,0-1.71-.39-2.55-.34-1.68.42-2.52.47-1.67.37-2.51.43-1.75-.68-2.59-.62-1.68.19-2.52.25-1.62,1.07-2.46,1.14-1.67.26-2.51.34-1.67.33-2.51.4-1.78-1-2.62-.89-1.58,1.28-2.42,1.36-1.78-.94-2.62-.86-1.6,1-2.44,1.08-1.78-.89-2.62-.81-1.61.9-2.44,1-1.61,1-2.44,1.08-1.74-.37-2.57-.28-1.72-.19-2.56-.11-1.75-.54-2.58-.46-1.52,1.89-2.35,2-1.85-1.56-2.68-1.49-1.67.32-2.5.39-1.69.08-2.52.14-1.62,1.11-2.45,1.17-1.66.74-2.48.79-1.7.26-2.53.3-1.73-1.77-2.58-1.73-1.63.8-2.48.83-1.68-.65-2.54-.62-1.64.65-2.49.67-1.67-.21-2.51-.18-1.64,1.11-2.49,1.13-1.7-1.44-2.54-1.42-1.64,1.53-2.49,1.54-1.69-1.46-2.53-1.44-1.67,0-2.52,0-1.66.4-2.5.41-1.66,1.44-2.5,1.45-1.68-.93-2.52-.92-1.66,1-2.51,1-1.67-.29-2.51-.29-1.67-.67-2.52-.67-1.66.85-2.5.85-1.68-.93-2.52-.92-1.67-.08-2.51-.08-1.67-.3-2.51-.3-1.68.27-2.52.27-1.67-.53-2.51-.53-1.67.45-2.51.45-1.68,1.37-2.52,1.36-1.67-1.56-2.51-1.56-1.67.41-2.51.41-1.68.18-2.52.18-1.67-.89-2.5-.9-1.67-.13-2.51-.14-1.68.36-2.51.36-1.68.62-2.52.62-1.67-1-2.51-1-1.67.06-2.51.05-1.68.64-2.52.64-1.67.22-2.51.21-1.67-.61-2.51-.62-1.68.31-2.52.3-1.68-.07-2.52-.08l-2.52,0c-.84,0-1.69,1-2.53,1s-1.66-1.48-2.5-1.49-1.68-.26-2.51-.27-1.71,1.89-2.55,1.88-1.66-1.07-2.5-1.08-1.69.63-2.53.62-1.67-.69-2.51-.7-1.68-.32-2.52-.33-1.69.91-2.53.9-1.68-.52-2.51-.53-1.7.87-2.54.86-1.66-1.36-2.5-1.38-1.69.49-2.53.48-1.68.18-2.52.17-1.68-.19-2.52-.2-1.69.73-2.53.71-1.66-1.39-2.49-1.41-1.69.24-2.53.23-1.7,1-2.53,1-1.69-.09-2.52-.11-1.68-.4-2.51-.42-1.67-.63-2.51-.64-1.66-.82-2.5-.84-1.71,1.39-2.54,1.37-1.69.42-2.52.4-1.65-1.86-2.48-1.88-1.7,1.07-2.53,1.06-1.68-.46-2.51-.48-1.69.41-2.52.39-1.68-.61-2.51-.63-1.71,1.11-2.54,1.1-1.68-.28-2.51-.3-1.69-.17-2.51-.19l-2.51-.08c-.86,0-1.71.49-2.52.47s-1.66-1.85-2.48-1.87-1.7,0-2.51,0-1.73.91-2.53.89-1.7-.7-2.5-.72-1.75,1.17-2.53,1.16-1.76,0-2.51,0c-1,0-1.81-.36-2.5-.38a3.74,3.74,0,0,1-2.4-.76c-.82-.22-1.66-.37-2.47-.58s-1.72-.1-2.54-.3-1.58-.62-2.4-.8-1.5-1.1-2.33-1.27-1.81.43-2.64.27-1.77.35-2.6.21-1.67-.15-2.51-.27-1.49-1.48-2.32-1.59-1.79.73-2.63.63-1.7.15-2.54.07-1.64-.45-2.48-.51-1.68,0-2.52-.08-1.63-1.35-2.47-1.38-1.7,0-2.54,0-1.7,1-2.54,1-1.7-.58-2.54-.56-1.64,1.24-2.48,1.27l-2.51.13c-.84,0-1.82-1.72-2.65-1.65s-1.67.46-2.51.55-1.54,1.31-2.37,1.42-1.59.69-2.42.82-2-1.64-2.82-1.49-1.32,2-2.14,2.22-1.71,0-2.53.2-2-.87-2.77-.66-1.37,1.41-2.18,1.65-1.64.38-2.44.64-1.31,1.35-2.1,1.64-1.62.4-2.4.71-1.7.26-2.47.59-1.49.76-2.25,1.11-2.08-.4-2.83,0-1.07,1.6-1.81,2-1.49.79-2.21,1.22-1.54.72-2.24,1.18-1,1.52-1.68,2-1.88.3-2.54.81-1.81.49-2.45,1-.23,2.3-.85,2.87-1,1.36-1.58,2-2.18.23-2.75.85-1.36,1.09-1.9,1.73-.9,1.47-1.41,2.14-.74,1.57-1.22,2.26-.54,1.66-1,2.38-.37,1.71-.78,2.44-1,1.33-1.39,2.08-2.05.88-2.4,1.65.44,2,.13,2.81-1.12,1.37-1.4,2.17-.61,1.57-.86,2.38.59,1.9.37,2.72-.39,1.59-.57,2.42-.33,1.61-.47,2.45-.54,1.58-.65,2.42,0,1.66-.11,2.51-.44,1.62-.5,2.47-.5,1.64-.52,2.49.59,1.68.59,2.53c0,1.26-.84,1.26-.84,2.53s.17,1.27.17,2.54-.7,1.26-.7,2.53-.28,1.27-.28,2.53,1.22,1.27,1.22,2.54-1.32,1.26-1.32,2.53,1.49,1.27,1.49,2.53.33,1.27.33,2.53-1.63,1.27-1.63,2.54.74,1.26.74,2.53.66,1.26.66,2.53.06,1.26.06,2.53-1.08,1.27-1.08,2.53.73,1.27.73,2.53.08,1.27.08,2.53-.35,1.27-.35,2.53-.56,1.27-.56,2.53.92,1.27.92,2.53-1.2,1.27-1.2,2.53,1,1.27,1,2.53-.93,1.27-.93,2.54-.1,1.26-.1,2.53-.15,1.26-.15,2.53,1.25,1.26,1.25,2.53.45,1.27.45,2.53-1.6,1.27-1.6,2.53.54,1.27.54,2.54-.42,1.26-.42,2.53,1.59,1.27,1.59,2.53-1.43,1.27-1.43,2.54,1.35,1.27,1.35,2.53-.07,1.27-.07,2.54-1.66,1.27-1.66,2.53,1.7,1.27,1.7,2.54-1.49,1.26-1.49,2.53,1.48,1.27,1.48,2.53-.46,1.27-.46,2.54-1.07,1.26-1.07,2.53.83,1.26.83,2.53.4,1.27.4,2.53-.45,1.27-.45,2.53.69,1.27.69,2.54-1.06,1.26-1.06,2.53-.31,1.26-.31,2.53,1.46,1.26,1.46,2.53-.53,1.27-.53,2.53-.79,1.27-.79,2.53,1.17,1.27,1.17,2.54-.81,1.26-.81,2.53-.67,1.27-.67,2.53,1.43,1.27,1.43,2.54-1.3,1.26-1.3,2.53-.24,1.27-.24,2.54.7,1.26.7,2.53-.28,1.27-.28,2.54.14,1.26.14,2.53-.26,1.27-.26,2.54.44,1.26.44,2.53.24,1.27.24,2.53-.95,1.27-.95,2.54,1.3,1.26,1.3,2.53-.36,1.26-.36,2.53.45,1.27.45,2.53-1,1.27-1,2.54.39,1.26.39,2.53-.28,1.27-.28,2.53.83,1.27.83,2.53-.75,1.27-.75,2.54-.24,1.27-.24,2.53-.38,1.27-.38,2.54.22,1.26.22,2.53.34,1.27.34,2.54-.44,1.27-.44,2.53,1.11,1.27,1.11,2.54.67,1.27.67,2.53-1.37,1.27-1.37,2.54.17,1.26.17,2.53.6,1.27.6,2.53-.68,1.27-.68,2.54.22,1.26.22,2.53.44,1.27.44,2.53.57,1.27.57,2.54-.32,1.26-.32,2.53-.71,1.27-.71,2.54-.58,1.26-.58,2.53.94,1.27.94,2.54-.85,1.26-.85,2.53,1.41,1.27,1.41,2.54-.76,1.26-.76,2.53-.55,1.27-.55,2.54,1.49,1.26,1.49,2.53-1.28,1.27-1.28,2.54.58,1.26.58,2.53-.09,1.27-.09,2.53-1,1.27-1,2.54,1.68,1.26,1.68,2.53-1.06,1.27-1.06,2.54.49,1.26.49,2.53-.62,1.27-.62,2.54-.11,1.27-.11,2.53-.48,1.27-.48,2.54,1.47,1.27,1.47,2.53-.34,1.27-.34,2.54-.77,1.27-.77,2.53,1.62,1.27,1.62,2.54-1.25,1.27-1.25,2.53-.07,1.27-.07,2.54-.13,1.27-.13,2.53,1.29,1.27,1.29,2.54-1.57,1.27-1.57,2.54.31,1.26.31,2.53,1.16,1.27,1.16,2.54-.28,1.26-.28,2.53.06,1.27.06,2.53-1.21,1.27-1.21,2.54-.14,1.26-.14,2.53.66,1.27.66,2.54.71,1.26.71,2.53.05,1.27.05,2.54-1.61,1.26-1.61,2.53,1,1.27,1,2.53-.31,1.27-.31,2.53.29,1.27.29,2.53-.09,1.27-.09,2.53.45,1.27.45,2.54-.83,1.26-.83,2.53.81,1.26.81,2.53.61,1.27.61,2.53-.45,1.27-.45,2.54-1.22,1.27-1.22,2.54,1.31,1.26,1.31,2.53-1.18,1.27-1.18,2.54.27,1.26.27,2.53-.12,1.27-.12,2.53.9,1.27.9,2.54-1.05,1.26-1.05,2.53.51,1.27.51,2.53-.7,1.27-.7,2.54.76,1.27.76,2.53,1,1.27,1,2.54-1.42,1.27-1.42,2.54.25,1.27.25,2.53-.19,1.27-.19,2.54,1,1.27,1,2.53-.59,1.27-.59,2.54.11,1.27.11,2.53-.33,1.27-.33,2.54.25,1.27.25,2.54-.28,1.27-.28,2.54.87,1.26.87,2.53,0,1.27,0,2.54-.55,1.27-.55,2.53.78,1.27.78,2.54.1,1.27.1,2.54-1.51,1.27-1.51,2.54.64,1.27.64,2.53-.36,1.27-.36,2.54,0,1.27,0,2.54-.62,1.27-.62,2.54,1.23,1.27,1.23,2.53-.63,1.27-.63,2.54.33,1.27.33,2.54-.74,1.27-.74,2.54.34,1.27.34,2.54,1.21,1.27,1.21,2.54-.86,1.27-.86,2.54-.64,1.26-.64,2.53.06,1.27.06,2.53,1,1.27,1,2.54-1,1.27-1,2.54.81,1.27.81,2.53.51,1.27.51,2.54-.19,1.27-.19,2.54-.14,1.27-.14,2.54-.72,1.27-.72,2.54-.6,1.27-.6,2.54,1.65,1.27,1.65,2.54-.31,1.27-.31,2.54-1.11,1.27-1.11,2.54,1.12,1.27,1.12,2.54-1.32,1.27-1.32,2.54,1,1.27,1,2.54.32,1.27.32,2.54-.55,1.27-.55,2.55.07,1.27.07,2.54.36,1.27.36,2.55-.26,1.27-.26,2.55c0,.83-.32,1.67-.34,2.5s.66,1.7.63,2.53-.49,1.66-.54,2.5-.06,1.67-.12,2.5-.51,1.64-.59,2.47-.77,1.59-.86,2.42,1.23,1.84,1.11,2.67-.38,1.65-.51,2.47-.9,1.55-1,2.38.89,1.87.73,2.7-2.06,1.28-2.24,2.1,0,1.69-.22,2.51-.51,1.59-.72,2.4,1,2,.77,2.81-1.51,1.31-1.75,2.11-.95,1.45-1.21,2.25,1,2.08.69,2.87-2.23,1-2.52,1.78-.59,1.54-.89,2.32-.7,1.51-1,2.28.33,1.95,0,2.72-.52,1.6-.87,2.36-.15,1.79-.51,2.54-1.74,1-2.11,1.77-1,1.38-1.35,2.12.49,2.17.08,2.9-1.26,1.23-1.67,2-.7,1.54-1.13,2.26-.76,1.51-1.21,2.22c-.66,1.08-.49,1.19-1.15,2.26s-1.62.48-2.29,1.56-1.28.68-1.95,1.76-.09,1.43-.76,2.5-.83,1-1.5,2-.62,1.11-1.29,2.18-.81,1-1.48,2.06,0,1.5-.66,2.57-.35,1.27-1,2.35-1.34.66-2,1.74-1.27.69-1.94,1.77.79,2,.13,3.06-1.54.53-2.21,1.61.13,1.56-.54,2.64-1.73.41-2.39,1.48-.23,1.35-.9,2.43-.65,1.09-1.32,2.16.11,1.56-.56,2.64-2.27.08-2.94,1.15-.64,1.09-1.31,2.16.23,1.64-.44,2.71l-1.33,2.15c-.67,1.07-.18,1.38-.85,2.46s-1.44.59-2.11,1.66-.12,1.42-.79,2.5-1.28.69-1.95,1.77-.84,1-1.51,2-.35,1.27-1,2.35-1.17.76-1.84,1.83.56,1.85-.1,2.92-2.08.2-2.75,1.28-.74,1-1.41,2.11-.5,1.18-1.17,2.25.15,1.58-.52,2.66-.47,1.2-1.14,2.27-.81,1-1.48,2.07-1.53.54-2.2,1.61-.52,1.17-1.19,2.24.67,1.91,0,3-2.16.15-2.83,1.22-.06,1.46-.73,2.53-1,.88-1.66,2-1,.88-1.66,2-.85,1-1.52,2,.22,1.62-.45,2.7-1,.85-1.69,1.93-1.18.76-1.85,1.83,0,1.5-.67,2.57-.12,1.41-.79,2.49-1.11.8-1.78,1.87-1,.87-1.68,2-.1,1.42-.77,2.5-1.48.58-2.15,1.65-.59,1.13-1.26,2.2-.71,1.06-1.38,2.14.74,1.95.07,3-2.06.21-2.73,1.28.24,1.65-.43,2.72-1.11.8-1.78,1.88-.87.95-1.54,2l-1.33,2.16c-.67,1.08-.11,1.43-.78,2.51s-1,.84-1.72,1.92-.63,1.11-1.3,2.19-.18,1.21-.56,2.43-1,1-.07,2.39c.39.58,2,.5,2.59,1.3.43.63,1.13,1.16,1.66,1.92s.94,1.31,1.46,2,.52,1.65,1,2.36.74,1.5,1.27,2.2,1.42,1,2,1.69-.09,2.17.44,2.85,2,.53,2.57,1.21-.1,2.2.44,2.87,1.76.73,2.3,1.4.62,1.64,1.17,2.31,2.25.3,2.8,1,.09,2.1.64,2.75,1.29,1.11,1.84,1.75,1.79.66,2.36,1.3,1.1,1.25,1.67,1.89.06,2.18.63,2.82,1.76.67,2.33,1.3.35,2,.92,2.58,2,.43,2.59,1,1.51.88,2.09,1.49.71,1.64,1.3,2.25,1.53.85,2.13,1.46,1.08,1.28,1.68,1.88.89,1.48,1.49,2.08.89,1.48,1.49,2.08,1.39,1,2,1.57,1,1.35,1.65,1.94,1.27,1.09,1.89,1.68,1.55.8,2.17,1.38.26,2.19.88,2.76l1.88,1.71c.62.56,2.17.11,2.8.68s1.09,1.29,1.72,1.86,1.5.84,2.13,1.4,1.42.93,2.06,1.48.38,2.14,1,2.69,1.73.56,2.38,1.1,1.38,1,2,1.51,1,1.47,1.62,2,1.11,1.3,1.76,1.83,2,.25,2.62.78,1.46.86,2.13,1.38.47,2.12,1.14,2.64,1.94.23,2.61.75.9,1.59,1.58,2.1,1.51.79,2.19,1.29,1.67.57,2.35,1.07,1.13,1.3,1.81,1.8,1.83.34,2.51.83.82,1.76,1.51,2.25,1.88.23,2.58.72.41,2.35,1.11,2.83,2.49-.67,3.19-.19,1.3,1.07,2,1.54.58,2.17,1.29,2.63,2.26-.38,3,.08.41,2.47,1.12,2.92,2,.05,2.69.49,1.48.8,2.2,1.25,1.46.83,2.18,1.27,1.38,1,2.11,1.4,1.36,1,2.09,1.43,1,1.58,1.76,2,1.69.45,2.42.87,1.9.06,2.64.47,1.1,1.48,1.84,1.89,1.23,1.27,2,1.67,1.67.46,2.42.86,1.79.21,2.54.61,1,1.73,1.75,2.12,1.71.36,2.46.75,1.61.55,2.37.93,1.9-.05,2.66.32,1.08,1.62,1.84,2,1.41,1,2.17,1.34,1.59.6,2.35,1,1.94-.19,2.71.16,1.48.81,2.25,1.15,1.5.79,2.27,1.13,1.06,1.78,1.84,2.12,2.1-.63,2.88-.3,1.36,1.1,2.14,1.43,1.42,1,2.2,1.29,1.34,1.2,2.13,1.51,2.11-.77,2.9-.46,1.19,1.59,2,1.89,1.77.09,2.56.39,1.73.19,2.52.48,1.13,1.84,1.92,2.13,1.85-.16,2.65.12,1.52.75,2.32,1,1.38,1.2,2.18,1.47,2.17-1.2,3-.94,1.15,1.92,1.95,2.18,1.64.41,2.45.66,1.82-.21,2.63,0,1.3,1.55,2.1,1.79,2.11-1.23,2.92-1,1.36,1.38,2.17,1.61,1.82-.26,2.63,0,1.37,1.38,2.19,1.6,1.75-.06,2.57.15,1.4,1.37,2.22,1.57,1.92-.77,2.74-.57,1.63.42,2.45.61,1.49,1,2.31,1.24,1.69.14,2.52.32,1.63.44,2.46.61,1.87-.78,2.7-.61,1.38,1.7,2.21,1.86,1.58.7,2.41.85,1.69.16,2.52.31,1.73,0,2.56.1,1.69.09,2.53.23,1.76-.35,2.6-.22,1.56.88,2.4,1,1.82-.82,2.66-.7,1.41,2,2.25,2.14,1.69.11,2.53.22,1.82-.93,2.65-.82,1.55,1.29,2.39,1.38,1.66.36,2.5.45,1.85-1.5,2.7-1.41,1.62.69,2.46.77,1.71-.19,2.55-.11,1.55,1.66,2.39,1.73,1.82-1.62,2.66-1.56,1.54,2.12,2.38,2.18,1.81-1.81,2.66-1.76,1.59,1.6,2.43,1.65,1.77-1.38,2.61-1.34,1.64.9,2.49.94,1.65.8,2.5.83l2.53.08c.84,0,1.71-.83,2.55-.81s1.67.71,2.52.72,1.69-.51,2.54-.51,1.68-.23,2.53-.23,1.68-.38,2.52-.38,1.69.19,2.53.18,1.68-.36,2.52-.37,1.7.81,2.55.79,1.68-.12,2.53-.14,1.71.63,2.55.6,1.69-.13,2.53-.17,1.66-.8,2.5-.84,1.7.18,2.55.13,1.7.23,2.54.19,1.66-.6,2.5-.65,1.7.15,2.55.09,1.65-.41,2.5-.47,1.65-.49,2.49-.56,1.72.31,2.56.24,1.65-.5,2.49-.58,1.75.53,2.59.44,1.69-.08,2.53-.17,1.62-.73,2.46-.82,1.77.57,2.61.47,1.71,0,2.55-.06,1.68-.17,2.52-.28,1.59-.89,2.43-1,1.66-.37,2.49-.49,1.68-.18,2.52-.31,1.81.65,2.65.52,1.43-1.77,2.26-1.91,1.58-.74,2.42-.88,1.95,1.41,2.78,1.26,1.44-1.51,2.27-1.66,1.74.12,2.57,0,1.5-1.09,2.32-1.26,1.83.52,2.65.34,1.86.59,2.69.4,1.2-2.29,2-2.48,1.65-.31,2.47-.51,2,1.28,2.87,1.08,1.69-.23,2.5-.44,1.18-2.17,2-2.38,2,1.06,2.85.84,1.17-2.07,2-2.3,1.76,0,2.57-.19,1.54-.71,2.35-1,1.81.16,2.62-.09,1.36-1.28,2.16-1.54,2.1,1,2.9.75,1.64-.46,2.43-.73,1.59-.58,2.39-.86,1.22-1.63,2-1.91,1.68-.3,2.47-.58,1.56-.64,2.35-.94,1.57-.63,2.36-.93,1.34-1.21,2.12-1.51,1.64-.42,2.43-.73,2,.55,2.82.23,1.25-1.39,2-1.71,1.31-1.22,2.09-1.55,1.75-.2,2.52-.53,1.29-1.25,2.07-1.59,2.13.65,2.89.3,1.33-1.17,2.09-1.52,1.09-1.66,1.86-2,2,.39,2.8,0,1.73-.31,2.48-.67,1.42-1,2.17-1.33,1.23-1.32,2-1.7L632,1023c.75-.38,2,.11,2.7-.27s1.45-.89,2.19-1.28,1.12-1.5,1.87-1.9,1.81-.19,2.55-.59,1.21-1.31,1.95-1.71,1.59-.61,2.33-1,1.63-.53,2.37-1,1.66-.49,2.39-.91,1.17-1.36,1.9-1.78,1.37-1,2.09-1.44,1.71-.43,2.43-.87,1.37-1,2.09-1.44,1.16-1.33,1.88-1.77,1.35-1,2.07-1.46,1.56-.68,2.28-1.13,1.75-.39,2.46-.84,1.46-.86,2.17-1.32.55-2.24,1.25-2.7,2.17.22,2.87-.25,1.14-1.34,1.84-1.81,1.09-1.39,1.79-1.86,1.27-1.13,2-1.61,1.86-.28,2.55-.76,1.24-1.18,1.92-1.67.9-1.65,1.59-2.14,1.74-.46,2.43-.95,2-.05,2.73-.55.92-1.6,1.6-2.1.72-1.86,1.39-2.36,2.48.48,3.15,0,.57-2,1.24-2.56,1.71-.54,2.38-1.06,1.08-1.35,1.75-1.87,1.26-1.13,1.92-1.65,1.82-.42,2.48-.95.39-2.21,1-2.74,1.4-1,2.06-1.48,2.44.32,3.09-.22.68-1.83,1.33-2.36.89-1.57,1.54-2.11,2.05-.19,2.69-.73,1.52-.83,2.16-1.38.28-2.26.92-2.81,1.88-.41,2.51-1,.55-1.94,1.18-2.5,2.44.21,3.06-.35.85-1.59,1.48-2.16,1.44-.92,2.06-1.49,1.47-.9,2.09-1.47,1-1.47,1.57-2,.32-2.14.93-2.71,2-.31,2.64-.89.48-1.94,1.09-2.52,2.43.1,3-.48.74-1.67,1.34-2.26.63-1.78,1.23-2.36,1.66-.72,2.26-1.31,1.57-.81,2.17-1.41.9-1.49,1.49-2.08.76-1.63,1.36-2.22,1.59-.8,2.18-1.39,1.1-1.3,1.68-1.9,1.58-.82,2.17-1.42,1.41-1,2-1.59-.07-2.4.51-3,1.48-.93,2-1.53,1.31-1.09,1.89-1.7,1.46-.94,2-1.56.4-1.93,1-2.55,1.15-1.23,1.71-1.85,1.33-1.07,1.89-1.69,1.11-1.28,1.67-1.9,1.73-.72,2.29-1.34,1.69-.76,2.24-1.39,1.1-1.28,1.66-1.91.81-1.53,1.37-2.16.5-1.8,1-2.43,1.05-1.33,1.6-2,2.12-.41,2.67-1,.29-2,.83-2.61,1.21-1.19,1.74-1.83l1.63-1.94c.54-.65.75-1.58,1.28-2.22s1.27-1.15,1.79-1.8,1.15-1.25,1.67-1.9,1.76-.76,2.28-1.41.82-1.51,1.34-2.17-.11-2.26.4-2.91,2.46-.22,3-.88.84-1.5,1.36-2.16,0-2.12.54-2.78,2.33-.34,2.83-1,.51-1.74,1-2.41.93-1.42,1.43-2.08,1.5-1,2-1.66.05-2.08.54-2.75.78-1.54,1.27-2.21,2.16-.52,2.65-1.19.19-2,.67-2.64,1.1-1.3,1.58-2,.69-1.6,1.16-2.27,2.08-.63,2.55-1.3.8-1.53,1.26-2.2-.19-2.21.27-2.88,2.22-.57,2.67-1.23,1.19-1.28,1.63-1.95.56-1.72,1-2.38.65-1.68,1.06-2.32c.53-.82.61-1.77,1-2.36.88-1.39,2.73-1,2.35-2.2s-.78-1.24-1.45-2.32-.69-1.06-1.36-2.14-1.26-.71-1.93-1.78-.39-1.25-1.06-2.33-.89-.95-1.56-2-.39-1.25-1.06-2.32-.93-.92-1.61-2-.48-1.2-1.15-2.27-.75-1-1.42-2.11-.74-1-1.41-2.11-1.66-.46-2.33-1.54-.51-1.18-1.18-2.25.53-1.83-.14-2.91-1.41-.61-2.08-1.68-1-.87-1.68-1.95.34-1.7-.33-2.78-1.65-.47-2.32-1.54.19-1.62-.48-2.69-1.84-.35-2.51-1.43-.66-1.08-1.33-2.16.22-1.64-.45-2.72,0-1.48-.69-2.56-.71-1.05-1.39-2.13-1.3-.68-2-1.76-.9-.94-1.57-2,.25-1.66-.42-2.74-1.85-.35-2.52-1.42S794.72,776,794,775s-.66-1.08-1.34-2.16.9-2.06.23-3.14-1.2-.75-1.87-1.83-1.44-.6-2.11-1.68.69-2.19-.21-3.09S786.75,763,786.07,761.92ZM222.84,962.29c-1.32.37-1.9-1.11-2.88-2.06l-2-1.9c-1-1-.9-1-1.88-2s-.53-1.44-1.51-2.39-1.11-.87-1.67-2.12a4,4,0,0,1-.59-2.41c0-1.24.06-1.24.06-2.48s-.13-1.24-.13-2.48.58-1.24.58-2.48-.19-1.24-.19-2.48.69-1.24.69-2.48-1.52-1.25-1.52-2.49,0-1.24,0-2.49.6-1.24.6-2.48c0-.9-.31-2.23.11-2.95s1.81-1,2.56-1.45,1.65-1.49,2.54-1.49,1.41,1.77,2.13,2.19a3.75,3.75,0,0,1,1.56,1.57c.42.72,1,1.23,1,2.13,0,1.22.23,1.22.23,2.45s.93,1.22.93,2.45-.85,1.22-.85,2.45-1,1.22-1,2.45,1.65,1.23,1.65,2.45-1.33,1.23-1.33,2.45.38,1.23.38,2.45.95,1.23.95,2.45,0,1.23,0,2.46-.74,1.22-.74,2.45.33,1.23.33,2.45-1.61,1.53-1.3,2.72C222.08,961,224,962,222.84,962.29Zm21.54-37.5a6.89,6.89,0,0,1-.71,2.94,7,7,0,0,1-2.15,2.16,6.94,6.94,0,0,1-3,.68c-.9,0-1.83-.94-2.56-1.36a5.26,5.26,0,0,1-1.54-2.06c-.42-.73-1.24-1.47-1.24-2.36,0-1.23.06-1.23.06-2.46s-.13-1.23-.13-2.46.58-1.23.58-2.46-.19-1.23-.19-2.47.69-1.23.69-2.46-1.52-1.23-1.52-2.46,0-1.23,0-2.46.61-1.23.61-2.46-.69-1.24-.69-2.47.82-1.23.82-2.46-.81-1.23-.81-2.46,1.62-1.23,1.62-2.46v-2.47c0-1.23-.45-1.23-.45-2.46s-.23-1.24-.23-2.47-.93-1.23-.93-2.46.85-1.24.85-2.48,1-1.23,1-2.47c0-.89-1.31-2.13-.89-2.85s2-.51,2.76-.94a4.29,4.29,0,0,1,2.19-1c.89,0,2.13-.61,2.85-.19a6.7,6.7,0,0,1,2.05,2.12c.42.72,0,1.93,0,2.82,0,1.23.32,1.23.32,2.46s-1.32,1.23-1.32,2.46.54,1.23.54,2.46-.51,1.23-.51,2.47,2,1.23,2,2.46-.11,1.23-.11,2.46-.37,1.23-.37,2.46-.22,1.23-.22,2.46-.68,1.24-.68,2.47-.06,1.23-.06,2.46.69,1.23.69,2.47-.16,1.22-.16,2.45-.45,1.24-.45,2.47.31,1.23.31,2.46-.28,1.24-.28,2.47.48,1.23.48,2.47-.86,1.36-.57,2.56S244.38,923.55,244.38,924.79ZM761.62,806.36a9.7,9.7,0,0,1-.34,2.66,9.55,9.55,0,0,1-1.23,2.4,9.43,9.43,0,0,1-2,1.81c-.64.46-1.8.32-2.57.57a7.78,7.78,0,0,1-2.41,0c-.83,0-1.75.45-2.49.21a8.3,8.3,0,0,1-2.21-1.2,8.6,8.6,0,0,1-1.87-1.69c-.46-.64-.36-1.67-.61-2.44a7.64,7.64,0,0,1-.56-2.33c0-1.27.69-1.27.69-2.54s-1.52-1.28-1.52-2.55,0-1.27,0-2.54.6-1.28.6-2.55-.68-1.27-.68-2.54.81-1.28.81-2.55-.8-1.27-.8-2.54,1.61-1.27,1.61-2.54,0-1.27,0-2.54-.46-1.28-.46-2.55-.23-1.27-.23-2.54-.93-1.27-.93-2.55.85-1.27.85-2.54,1-1.27,1-2.55-1.65-1.27-1.65-2.54,1.33-1.28,1.33-2.55-.37-1.27-.37-2.55-1-1.27-1-2.54.05-1.28.05-2.55.74-1.28.74-2.55-.32-1.27-.32-2.55,1.33-1.27,1.33-2.54-.55-1.28-.55-2.55.52-1.28.52-2.55-2-1.28-2-2.55.12-1.28.12-2.56.36-1.28.36-2.55a8.46,8.46,0,0,1,.61-2.46c.25-.77,1.22-1.17,1.68-1.81a7,7,0,0,1,1.65-1.57c.64-.46,1-1.43,1.79-1.68a8.24,8.24,0,0,1,2.45-.22,7.39,7.39,0,0,1,2.25.8,7.65,7.65,0,0,1,2.21.79,7.76,7.76,0,0,1,1.45,1.85c.47.64,1.26,1.12,1.51,1.89s-.21,1.58-.21,2.41c0,1.27.68,1.27.68,2.54s.25,1.28.25,2.55.41,1.27.41,2.54-1.53,1.27-1.53,2.55,0,1.27,0,2.54.54,1.28.54,2.55.71,1.27.71,2.54-1.49,1.27-1.49,2.54,1.22,1.27,1.22,2.54-.07,1.28-.07,2.55-.38,1.27-.38,2.54.78,1.27.78,2.55-.3,1.27-.3,2.54-.76,1.27-.76,2.55.73,1.27.73,2.54-1,1.28-1,2.55-.34,1.27-.34,2.55,1.45,1.27,1.45,2.54S760,784.69,760,786s.34,1.28.34,2.55-.48,1.27-.48,2.54-.08,1.28-.08,2.55.31,1.28.31,2.55.56,1.28.56,2.55.3,1.28.3,2.55-1.44,1.53-1.15,2.78S761.62,805.08,761.62,806.36Z"/></svg>