<svg id="monster_2" data-name="monster 2" xmlns="http://www.w3.org/2000/svg" viewBox="0 0 1020.61 1063.78"><defs><style>.cls-1{fill:#636363;}</style></defs><title>monster-3</title><path class="cls-1" d="M413,1057.21c0-.8,0-153.72,0-153.72,0-80-29.58-156.52-82.15-211.16C279.16,638.61,245.62,563.64,241.56,480c-3.66-75.2,16.9-145.38,53.81-201.65,5.28-8,2-16.66,16.8-23.24,8.77-3.89,12.84-15.37,19.76-22.5,52.81-54.52,124.27-87.11,202.38-84.15,38,1.44,78.31,2.36,111.07,18.81,49.52,24.87,90.37,67.33,118.72,119.66,4,7.47,3.81,20.42,11.37,23,12.61,4.32,7.09,16.65,10.19,25.24a377.49,377.49,0,0,1,22.12,127.6c0,88-32.58,167.59-85.08,224.67-49.93,54.28-77.48,129-77.48,206.62h0a49.75,49.75,0,0,0,3.49,18.24c2.07,5.23,4.29,12.5,4.29,19.63,0,8.57-3.19,18.77-5.48,25a37.61,37.61,0,0,0-2.3,13c0,2.9-.31,41.69,0,41.17C615.9,1030.8,524.59,1076.68,413,1057.21Z"/></svg>