<svg id="eyes-1-happy" xmlns="http://www.w3.org/2000/svg" viewBox="0 0 1020.6 1063.8"><defs><style>.cls-1{fill:#fff;}.cls-2{fill:#262626;}.cls-3{fill:#3a3a3a;}.cls-4{fill:#4c4c4c;}</style></defs><title>monster-parts-eyes-1-happy</title><circle class="cls-1" cx="521.2" cy="398.9" r="99"/><path class="cls-2" d="M521.2,303.9a95,95,0,1,1-95,95,95.1,95.1,0,0,1,95-95m0-8a103,103,0,1,0,103,103,103,103,0,0,0-103-103Z"/><circle class="cls-3" cx="521.2" cy="395" r="70.8"/><circle cx="521.2" cy="395" r="38.6"/><path class="cls-4" d="M521.2,497.9a98.9,98.9,0,0,1-98-84.8c10-3.6,53.8-14.1,98.8-14.1s87.3,10.4,97.2,14A98.9,98.9,0,0,1,521.2,497.9Z"/><path class="cls-2" d="M522.1,403c39.3,0,79,8.6,92.6,12.7a95.1,95.1,0,0,1-187.1.1c13.9-4.1,54.2-12.8,94.4-12.8h.1m0-8H522c-51.5,0-103.4,13.9-103.2,15.8a103,103,0,0,0,204.7-.1c.2-1.9-50.4-15.7-101.4-15.7Z"/><path class="cls-2" d="M608.6,234.6c-4.2-4.3-10.6-5.5-17.5-4.1,1.4-13.3-2-24.2-10-27.8s-20.9,2.3-30.5,14.6c-7.2-23.1-24.1-38.5-39.6-35-11.3,2.5-19,14.4-21,30-13.9-10.6-30-13.1-40.2-5.1-7.6,6-10.2,16.7-8.1,28.5-7.6-1.2-14.5.5-18.6,5.4-7.7,9.1-2.9,25.7,10.7,37.1s30.7,13.3,38.4,4.2a17.6,17.6,0,0,0,2.3-3.7c11.5,5.8,23.4,6.1,31.5-.3a20.9,20.9,0,0,0,5.4-6.4c6.6,5.3,14,7.6,21.1,6a19.2,19.2,0,0,0,6.6-2.7,16.1,16.1,0,0,0,6.6,6.1c5,2.2,10.9,1.2,16.9-2.2l.7.8c8.4,8.4,25.4,5,37.9-7.5S617.1,243,608.6,234.6Z"/></svg>