<svg id="Monster_5" data-name="Monster 5" xmlns="http://www.w3.org/2000/svg" viewBox="0 0 1020.6 1063.8"><defs><style>.cls-1{fill:#636363;}.cls-2{fill:#444;}</style></defs><title>monster-5</title><path class="cls-1" d="M981.9,555.9l-116.6-5.4a70,70,0,0,0-73.2,70V848.6c0,1.4-.1,2.9-.2,4.3-.8,11.7-18.3,11.1-18.4-.6v-.5c0-74.1-10-200.1-10-307.5s10-195.1,10-195.6C773.5,232.9,582.3,79.9,519.9,77S263.8,232.9,263.8,348.7c0,.1,9.5,94.8,8.9,198-.6,99-11.2,205.8-11.4,244-.1,18.7-27.8,19.3-28.7.7-3.7-76.8,1-167.1,1.2-170.8v-.3a70.1,70.1,0,0,0-73.2-69.8L44,555.9a28,28,0,0,0-26.7,28V585a27.1,27.1,0,0,0,25.1,26.9l90.5,6.3a30,30,0,0,1,27.9,29.9l.8,243.6s104.8,201.4,342.5,168.1c265.7-37.2,361-287.1,361-287.1V648.1A30,30,0,0,1,893,618.2l90.5-6.3a27.1,27.1,0,0,0,25.1-26.9v-1.1A28,28,0,0,0,981.9,555.9Z"/><ellipse class="cls-2" cx="75.8" cy="612.5" rx="20.9" ry="6.7"/><ellipse class="cls-2" cx="126.3" cy="618.1" rx="6.7" ry="20.9" transform="translate(-503 662.7) rotate(-82.5)"/><ellipse class="cls-2" cx="160" cy="656.4" rx="6.7" ry="20.9" transform="translate(-48.6 13.8) rotate(-4.3)"/><ellipse class="cls-2" cx="162.3" cy="712.3" rx="6.7" ry="20.9"/><ellipse class="cls-2" cx="164.3" cy="766.4" rx="6.7" ry="20.9"/><ellipse class="cls-2" cx="163.6" cy="826.2" rx="6.7" ry="20.9"/><ellipse class="cls-2" cx="952.4" cy="612.5" rx="20.9" ry="6.7"/><ellipse class="cls-2" cx="901.8" cy="618.1" rx="20.9" ry="6.7" transform="translate(-72.9 122.9) rotate(-7.5)"/><ellipse class="cls-2" cx="868.1" cy="656.4" rx="20.9" ry="6.7" transform="translate(148.6 1473.1) rotate(-85.7)"/><ellipse class="cls-2" cx="865.8" cy="712.3" rx="6.7" ry="20.9"/><path class="cls-2" d="M860.4,784.3c-2-3.6-3.3-10.3-3.3-17.9,0-11.5,3-20.8,6.7-20.8s5.6,6,6.4,14.4Z"/></svg>