<svg id="eyes-2-sad" xmlns="http://www.w3.org/2000/svg" viewBox="0 0 1020.6 1063.8"><defs><style>.cls-1{fill:none;stroke:#000;stroke-linecap:round;stroke-miterlimit:10;stroke-width:8px;}.cls-2{fill:#fff;}.cls-3{fill:#3a3a3a;}.cls-4{fill:#4c4c4c;}</style></defs><title>monster-parts-eyes-2-sad</title><path class="cls-1" d="M438.2,317.3a41.8,41.8,0,0,0-23.9-7.4,42.2,42.2,0,0,0-25.6,8.6"/><path class="cls-1" d="M557.3,317.3a42.4,42.4,0,0,0-49.5,1.2"/><path class="cls-1" d="M483.1,419a41.1,41.1,0,0,0-23.9-7.5,42.2,42.2,0,0,0-25.6,8.6"/><path class="cls-1" d="M602.1,419a41.1,41.1,0,0,0-23.9-7.5,42.2,42.2,0,0,0-25.6,8.6"/><path class="cls-1" d="M676.3,317.3a42.4,42.4,0,0,0-49.5,1.2"/><circle class="cls-2" cx="459" cy="466.4" r="38"/><path d="M459,432.4a34,34,0,1,1-34,34,34,34,0,0,1,34-34m0-8a42,42,0,1,0,42,42,42,42,0,0,0-42-42Z"/><circle class="cls-3" cx="459" cy="464" r="17.3"/><circle cx="459" cy="464" r="9.5"/><circle class="cls-2" cx="578" cy="466.4" r="38"/><path d="M578,432.4a34,34,0,1,1-34,34,34,34,0,0,1,34-34m0-8a42,42,0,1,0,42,42,42,42,0,0,0-42-42Z"/><circle class="cls-3" cx="578" cy="462" r="17.3"/><circle cx="578" cy="462" r="9.5"/><polygon class="cls-2" points="470 445.4 458 464.4 477 452.4 470 445.4"/><polygon class="cls-2" points="590 444.4 578 463.4 597 451.4 590 444.4"/><circle class="cls-2" cx="414.1" cy="365.6" r="38"/><path d="M414.1,331.6a34,34,0,1,1-34,34,34,34,0,0,1,34-34m0-8a42,42,0,1,0,42,42,42,42,0,0,0-42-42Z"/><circle class="cls-3" cx="414.1" cy="363.1" r="17.3"/><circle cx="414.1" cy="363.1" r="9.4"/><polygon class="cls-2" points="425.1 344.6 413.1 363.6 432.1 351.6 425.1 344.6"/><circle class="cls-2" cx="533.2" cy="365.7" r="38"/><path d="M533.2,331.7a34,34,0,1,1-34,34,34,34,0,0,1,34-34m0-8a42,42,0,1,0,42,42,42,42,0,0,0-42-42Z"/><circle class="cls-3" cx="533.2" cy="362.2" r="17.3"/><circle cx="533.2" cy="362.2" r="9.5"/><circle class="cls-2" cx="652.2" cy="365.7" r="38"/><path d="M652.2,331.7a34,34,0,1,1-34,34,34,34,0,0,1,34-34m0-8a42,42,0,1,0,42,42,42,42,0,0,0-42-42Z"/><circle class="cls-3" cx="652.2" cy="361.2" r="17.3"/><circle cx="652.2" cy="361.2" r="9.5"/><polygon class="cls-2" points="544.2 343.7 532.2 362.7 551.2 350.7 544.2 343.7"/><polygon class="cls-2" points="664.2 342.7 652.2 361.7 671.2 349.7 664.2 342.7"/><path class="cls-4" d="M577.3,467.1c-17.5,0-34.6-4.1-39.1-5.6a40,40,0,0,1,79,0,154.3,154.3,0,0,1-39.9,5.6Z"/><path d="M577.7,429.7A37.9,37.9,0,0,1,614.8,460a158.3,158.3,0,0,1-37.5,5,146.9,146.9,0,0,1-36.7-5,37.8,37.8,0,0,1,37.1-30.3m0-4.2a42.1,42.1,0,0,0-41.8,37.2c-.1.8,20.6,6.5,41.4,6.5h0c21.1,0,42.2-5.7,42.1-6.5a42.1,42.1,0,0,0-41.7-37.2Z"/><path class="cls-4" d="M458.7,467.1a148.7,148.7,0,0,1-39.1-5.6,40,40,0,0,1,79,0c-4.6,1.5-21.9,5.6-39.8,5.6Z"/><path d="M459.1,429.7A37.8,37.8,0,0,1,496.2,460a157.4,157.4,0,0,1-37.5,5,146.9,146.9,0,0,1-36.7-5,37.8,37.8,0,0,1,37.1-30.3m0-4.2a42.1,42.1,0,0,0-41.8,37.2c-.1.8,20.6,6.5,41.4,6.5h.1c21,0,42.2-5.7,42.1-6.5a42.1,42.1,0,0,0-41.8-37.2Z"/><path class="cls-4" d="M413.7,366c-17.5,0-34.6-4.1-39.1-5.6a40,40,0,0,1,79,0c-4.6,1.5-22,5.6-39.9,5.6Z"/><path d="M414.1,328.6a37.9,37.9,0,0,1,37.1,30.3,158.3,158.3,0,0,1-37.5,5,146.9,146.9,0,0,1-36.7-5,37.8,37.8,0,0,1,37.1-30.3m0-4.2a42.1,42.1,0,0,0-41.8,37.2c-.1.8,20.6,6.5,41.4,6.5h0c21.1,0,42.2-5.7,42.2-6.5a42.2,42.2,0,0,0-41.8-37.2Z"/><path class="cls-4" d="M533.3,366.3c-17.6,0-34.6-4-39.2-5.5a40,40,0,0,1,79-.1c-4.6,1.6-21.9,5.6-39.8,5.6Z"/><path d="M533.6,329a37.8,37.8,0,0,1,37.1,30.3,157.6,157.6,0,0,1-37.4,4.9,153.9,153.9,0,0,1-36.8-4.9A37.8,37.8,0,0,1,533.6,329m0-4.2A42,42,0,0,0,491.9,362c-.1.8,20.6,6.4,41.4,6.4h0c21,0,42.2-5.6,42.1-6.4a42,42,0,0,0-41.8-37.2Z"/><path class="cls-4" d="M651.8,366.3c-17.5,0-34.5-4-39.1-5.5a40,40,0,0,1,79-.1c-4.6,1.6-21.9,5.6-39.8,5.6Z"/><path d="M652.2,329a37.8,37.8,0,0,1,37.1,30.3,158.6,158.6,0,0,1-37.5,4.9,152.9,152.9,0,0,1-36.7-4.9A37.8,37.8,0,0,1,652.2,329m0-4.2A42,42,0,0,0,610.4,362c-.1.8,20.6,6.4,41.4,6.4h.1c21,0,42.2-5.6,42.1-6.4a42,42,0,0,0-41.8-37.2Z"/></svg>