<svg id="mouth-1-null" xmlns="http://www.w3.org/2000/svg" viewBox="0 0 1020.6 1063.8"><defs><style>.cls-1{fill:#fff;}</style></defs><title>monster-parts-mouth-1-null</title><path class="cls-1" d="M441.4,707.9H489a0,0,0,0,1,0,0v27.2a23.2,23.2,0,0,1-23.2,23.2h0A24.3,24.3,0,0,1,441.4,734V707.9A0,0,0,0,1,441.4,707.9Z"/><path class="cls-1" d="M561.9,707.9h47.6a0,0,0,0,1,0,0v27.2a23.2,23.2,0,0,1-23.2,23.2h0A24.3,24.3,0,0,1,561.9,734V707.9a0,0,0,0,1,0,0Z"/><path d="M632.3,707.8H415.6a6,6,0,0,1,0-12H632.3a6,6,0,0,1,0,12Z"/></svg>