<svg id="ears-1" xmlns="http://www.w3.org/2000/svg" viewBox="0 0 1020.6 1063.8"><defs><style>.cls-1{fill:#262626;}</style></defs><title>monster-parts-ears-1</title><path class="cls-1" d="M402.5,181.5l-.2-.2-95.5-45.1a6.3,6.3,0,0,0-8.7,7.5l30.7,100.7c.2.3.2.5.3.6a5.6,5.6,0,0,0,.5.8c5.1,5.9,25.7-3.6,46-21.2s32.8-36.6,27.8-42.4Z"/><path class="cls-1" d="M655.6,177.2l.3-.2,95.4-45.1a6.3,6.3,0,0,1,8.8,7.5L729.3,240.1a1.6,1.6,0,0,1-.3.6,2.2,2.2,0,0,1-.5.8c-5.1,5.9-25.6-3.6-46-21.2s-32.8-36.6-27.7-42.4A2.7,2.7,0,0,1,655.6,177.2Z"/></svg>