<svg id="mouth-1-sad" xmlns="http://www.w3.org/2000/svg" viewBox="0 0 1020.6 1063.8"><defs><style>.cls-1{fill:#5e5e5e;stroke:#262626;stroke-linecap:round;stroke-miterlimit:10;stroke-width:12px;}.cls-1,.cls-3{opacity:0.99;}.cls-2{fill:#fff;}.cls-3{fill:#262626;}</style></defs><title>monster-parts-mouth-1-sad</title><path class="cls-1" d="M418.3,694.8H630.6a9.7,9.7,0,0,1,9.7,9.7v16.7A115.2,115.2,0,0,1,525.1,836.5h-1.3A115.2,115.2,0,0,1,408.6,721.3V704.6a9.7,9.7,0,0,1,9.7-9.7Z" transform="translate(1048.9 1531.3) rotate(-180)"/><path class="cls-2" d="M439.4,742.5l-.4-1.3s9.3-11.8,20.8-19.6a125.3,125.3,0,0,1,25.7-13.7v27.2a23.2,23.2,0,0,1-23.3,23.2h0a24.5,24.5,0,0,1-22.8-15.8"/><path class="cls-2" d="M611,742.5c.2-.4.3-.9.5-1.3s-9.3-11.8-20.8-19.6A128.3,128.3,0,0,0,565,707.9v27.2a23.2,23.2,0,0,0,23.2,23.2h0A24.4,24.4,0,0,0,611,742.5"/><path class="cls-3" d="M594,832.7c-5.9-15.8-32.8-27.7-65-27.7s-60.8,12.8-65.4,29.4l3.3,2.1H588.2Z"/></svg>