<?xml version="1.0" encoding="UTF-8" standalone="no"?>
<svg
   xmlns:dc="http://purl.org/dc/elements/1.1/"
   xmlns:cc="http://creativecommons.org/ns#"
   xmlns:rdf="http://www.w3.org/1999/02/22-rdf-syntax-ns#"
   xmlns:svg="http://www.w3.org/2000/svg"
   xmlns="http://www.w3.org/2000/svg"
   xmlns:sodipodi="http://sodipodi.sourceforge.net/DTD/sodipodi-0.dtd"
   xmlns:inkscape="http://www.inkscape.org/namespaces/inkscape"
   id="eyes-1-null"
   viewBox="0 0 1020.6 1063.8"
   version="1.1"
   sodipodi:docname="monster-parts-eyes-1-null-01.svg"
   inkscape:export-filename="/home/ldary/games/2020summit/dashboard-ui/avatars/monster-parts-eyes-1-null-01.png"
   inkscape:export-xdpi="96"
   inkscape:export-ydpi="96"
   inkscape:version="0.92.3 (2405546, 2018-03-11)">
  <metadata
     id="metadata1026">
    <rdf:RDF>
      <cc:Work
         rdf:about="">
        <dc:format>image/svg+xml</dc:format>
        <dc:type
           rdf:resource="http://purl.org/dc/dcmitype/StillImage" />
      </cc:Work>
    </rdf:RDF>
  </metadata>
  <sodipodi:namedview
     pagecolor="#ffffff"
     bordercolor="#666666"
     borderopacity="1"
     objecttolerance="10"
     gridtolerance="10"
     guidetolerance="10"
     inkscape:pageopacity="0"
     inkscape:pageshadow="2"
     inkscape:window-width="1504"
     inkscape:window-height="919"
     id="namedview1024"
     showgrid="false"
     inkscape:zoom="1.2549516"
     inkscape:cx="477.85532"
     inkscape:cy="571.95929"
     inkscape:window-x="0"
     inkscape:window-y="27"
     inkscape:window-maximized="0"
     inkscape:current-layer="eyes-1-null" />
  <defs
     id="defs1009">
    <style
       id="style1007">.cls-1{fill:#fff;}.cls-2{fill:#262626;}.cls-3{fill:#3a3a3a;}</style>
  </defs>
  <title
     id="title1011">monster-parts-eyes-1-null</title>
  <circle
     class="cls-1"
     cx="521.2"
     cy="398.9"
     r="99"
     id="circle1013" />
  <path
     class="cls-2"
     d="M521.2,303.9a95,95,0,1,1-95,95,95.1,95.1,0,0,1,95-95m0-8a103,103,0,1,0,103,103,103,103,0,0,0-103-103Z"
     id="path1015" />
  <circle
     class="cls-3"
     cx="521.2"
     cy="395"
     r="70.8"
     id="circle1017" />
  <circle
     cx="521.2"
     cy="395"
     r="38.6"
     id="circle1019"
     style="fill:#262626;fill-opacity:1" />
  <path
     class="cls-2"
     d="M608.6,234.6c-4.2-4.3-10.6-5.5-17.5-4.1,1.4-13.3-2-24.2-10-27.8s-20.9,2.3-30.5,14.6c-7.2-23.1-24.1-38.5-39.6-35-11.3,2.5-19,14.4-21,30-13.9-10.6-30-13.1-40.2-5.1-7.6,6-10.2,16.7-8.1,28.5-7.6-1.2-14.5.5-18.6,5.4-7.7,9.1-2.9,25.7,10.7,37.1s30.7,13.3,38.4,4.2a17.6,17.6,0,0,0,2.3-3.7c11.5,5.8,23.4,6.1,31.5-.3a20.9,20.9,0,0,0,5.4-6.4c6.6,5.3,14,7.6,21.1,6a19.2,19.2,0,0,0,6.6-2.7,16.1,16.1,0,0,0,6.6,6.1c5,2.2,10.9,1.2,16.9-2.2l.7.8c8.4,8.4,25.4,5,37.9-7.5S617.1,243,608.6,234.6Z"
     id="path1021" />
</svg>
